<svg xmlns="http://www.w3.org/2000/svg" xmlns:xlink="http://www.w3.org/1999/xlink" width="53.032" height="53.032" viewBox="0 0 53.032 53.032">
  <defs>
    <clipPath id="clip-path">
      <path id="Path_1474" data-name="Path 1474" d="M241.777,220.352H294.81v53.032H241.777Zm0,0" transform="translate(-241.777 -220.352)"/>
    </clipPath>
  </defs>
  <g id="_17" data-name="17" clip-path="url(#clip-path)">
    <path id="Path_1473" data-name="Path 1473" d="M247.9,220.352a6.15,6.15,0,0,0-6.119,6.119v40.794a6.15,6.15,0,0,0,6.119,6.119H288.69a6.15,6.15,0,0,0,6.12-6.119V226.471a6.151,6.151,0,0,0-6.12-6.119Zm0,4.08H288.69a2.012,2.012,0,0,1,2.04,2.04v40.794a2.012,2.012,0,0,1-2.04,2.04H247.9a2.012,2.012,0,0,1-2.04-2.04V226.471A2.012,2.012,0,0,1,247.9,224.431Zm6.119,8.158v4.08h28.556v-4.08Zm0,12.238v4.079h28.556v-4.079Zm0,12.238v4.079h28.556v-4.079Zm0,0" transform="translate(-241.777 -220.352)" fill="#fff"/>
  </g>
</svg>
