<svg xmlns="http://www.w3.org/2000/svg" xmlns:xlink="http://www.w3.org/1999/xlink" width="50.189" height="40.895" viewBox="0 0 50.189 40.895">
  <defs>
    <clipPath id="clip-path">
      <path id="Path_1480" data-name="Path 1480" d="M228.133,240h50.189v40.895H228.133Zm0,0"/>
    </clipPath>
  </defs>
  <g id="_19" data-name="19" transform="translate(-228.133 -240)" clip-path="url(#clip-path)">
    <path id="Path_1479" data-name="Path 1479" d="M263.484,275.721a2.825,2.825,0,0,1,2.869,2.7,2.856,2.856,0,0,1-2.869,2.869,2.826,2.826,0,0,1-2.7-2.869A2.79,2.79,0,0,1,263.484,275.721Zm-14.945,0a2.79,2.79,0,0,1,2.709,2.7,2.826,2.826,0,0,1-2.709,2.869,2.855,2.855,0,0,1-2.865-2.869A2.824,2.824,0,0,1,248.54,275.721Zm16.2-26.362,3.208,3.2,5.32-6.953a1.462,1.462,0,0,1,2.321,1.777l-7.352,9.6-5.565-5.563a1.462,1.462,0,1,1,2.068-2.066Zm4.326-8.707a9.255,9.255,0,1,0,9.259,9.255A9.254,9.254,0,0,0,269.063,240.652Zm-12.142,8.28q-.04.481-.04.975a12.179,12.179,0,0,0,12.182,12.176,12.3,12.3,0,0,0,1.684-.116l-.53,2.748a2.922,2.922,0,0,1-2.544,2.347l-9.268,1.051-10.172,1.269c-3.235.272-4.509,1.011-4.509,1.955,0,.606.49.891,1.943.98.468.031.9.027,1.652.009.495-.013.593-.018.793-.018h19.98a1.463,1.463,0,0,1,0,2.926h-19.98c-.16,0-.254,0-.717.014-.838.022-1.332.022-1.907-.014-2.8-.174-4.688-1.282-4.688-3.9a3.813,3.813,0,0,1,1.645-3.234,6.332,6.332,0,0,1-2.21-3.309l-4.928-17.81h-5.712a1.463,1.463,0,0,1,0-2.926h6.451a1.947,1.947,0,0,1,1.876,1.429L238.9,249a1.422,1.422,0,0,1,.441-.071h17.582" transform="translate(0 -0.551)" fill="#fff"/>
  </g>
</svg>
