<svg id="Layer_1" data-name="Layer 1" xmlns="http://www.w3.org/2000/svg" viewBox="0 0 39 39"><circle id="Ellipse_556" data-name="Ellipse 556" cx="19.5" cy="19.5" r="19.5" style="fill:#1f4385"/><path id="Path_2517" data-name="Path 2517" d="M315.6,389H296.4a.4.4,0,0,0-.4.4h0v12.9a.4.4,0,0,0,.4.4h5.8l1.9,4.7c0,.1.2.2.3.2h0a.5.5,0,0,0,.4-.2l1.6-4.7h9.2a.4.4,0,0,0,.4-.4h0V389.4A.4.4,0,0,0,315.6,389Zm-.4,13h-9.1l-.3.2-1.4,3.9-1.5-3.9a.5.5,0,0,0-.4-.2h-5.7V389.8h18.4Z" transform="translate(-286.5 -377)" style="fill:#fff"/></svg>