<svg xmlns="http://www.w3.org/2000/svg" width="52.127" height="73.939" viewBox="0 0 52.127 73.939">
  <g id="Group_1985" data-name="Group 1985" transform="translate(-241.758 -331.862)">
    <path id="Path_1232" data-name="Path 1232" d="M293.834,372.265c0,9.824-.114,19.239.049,28.649a11.408,11.408,0,0,1-5.532,10.357c-6.541,4.352-13.92,5.551-21.572,5.428a37.071,37.071,0,0,1-17.693-4.319c-4.9-2.709-7.518-6.489-7.317-12.416.308-9.089.081-18.2.081-27.644,6.94,8.189,16.16,10.146,25.988,10.138C277.621,382.449,286.811,380.54,293.834,372.265Z" transform="translate(0 -21.512)" fill="#191818"/>
    <path id="Path_1233" data-name="Path 1233" d="M268.048,331.872a39.878,39.878,0,0,1,17.382,3.664,19.053,19.053,0,0,1,5.841,4.167c3.609,3.928,3.574,8.645-.179,12.468-4.22,4.3-9.665,6.066-15.4,7.029a41.885,41.885,0,0,1-25.259-3.065,18.29,18.29,0,0,1-5.813-4.206c-3.378-3.69-3.473-8.212-.135-11.956,3.627-4.068,8.506-5.857,13.62-7.057A39.585,39.585,0,0,1,268.048,331.872Z" transform="translate(-0.145 0)" fill="#191818"/>
    <path id="Path_1234" data-name="Path 1234" d="M282.216,472.894c0,5,0,5.023-5.033,4.239-1.991-.31-3.958-.774-5.949-1.084-1.169-.182-1.478-.762-1.424-1.9a49.339,49.339,0,0,0-.016-6.06c-.133-1.744.621-1.708,1.9-1.343a29.708,29.708,0,0,0,8.268,1.238c1.81-.007,2.556.49,2.279,2.345A17.544,17.544,0,0,0,282.216,472.894Z" transform="translate(-14.919 -71.71)" fill="#1a1919"/>
    <path id="Path_1235" data-name="Path 1235" d="M298.652,472.692c0-4.241.005-4.206,4.079-4.8,2.3-.334,4.6-.731,6.863-1.249,1.178-.27,1.543-.021,1.45,1.172-.083,1.082-.012,2.175-.012,3.264,0,4.727.011,4.779-4.549,5.64-1.977.373-4.009.442-6.006.72-1.392.194-2.031-.2-1.849-1.721A25.436,25.436,0,0,0,298.652,472.692Z" transform="translate(-30.264 -71.71)" fill="#1a1919"/>
    <path id="Path_1236" data-name="Path 1236" d="M253.953,465.188c-9.162-2.61-12.544-7.52-11.769-17.2a22.2,22.2,0,0,0,10.875,7.734c.9.33.9.895.9,1.609C253.948,459.891,253.953,462.452,253.953,465.188Z" transform="translate(-0.17 -61.829)" fill="#1a1919"/>
    <path id="Path_1237" data-name="Path 1237" d="M339.172,447.607c.533,9.7-1.857,13.56-10.024,16.9-1.222.5-1.727.7-1.871-1.1-.378-4.72-.12-8.644,5.6-10.167C335.437,452.562,337.341,450.256,339.172,447.607Z" transform="translate(-45.472 -61.626)" fill="#1a1919"/>
    <path id="Path_1238" data-name="Path 1238" d="M247.547,414.728c0-1.942.009-3.884,0-5.826-.007-.936.179-1.832,1.307-1.759.955.062,1.087.909,1.082,1.753-.018,3.34.041,6.681-.018,10.02-.058,3.321,1.294,5.651,4.446,6.873.792.307,1.735.638,1.23,1.8-.482,1.105-1.363.722-2.179.436a8.929,8.929,0,0,1-5.86-8.17C247.529,418.147,247.547,416.437,247.547,414.728Z" transform="translate(-3.078 -40.08)" fill="#fcfbfb"/>
    <path id="Path_1239" data-name="Path 1239" d="M286.356,361.053a13.14,13.14,0,0,1-7.728-2.08c-2.974-2.037-2.959-5.15-.046-7.254,3.8-2.746,11.7-2.72,15.458.051,2.815,2.075,2.857,5.082.014,7.113A12.978,12.978,0,0,1,286.356,361.053Z" transform="translate(-18.443 -9.484)" fill="#f1f0f1"/>
    <path id="Path_1240" data-name="Path 1240" d="M315.488,342.793c1.1.042,1.88.446,1.93,1.42.044.869-.723,1.06-1.476,1.008-.838-.057-1.546-.412-1.653-1.295C314.178,343,314.871,342.8,315.488,342.793Z" transform="translate(-38.611 -5.82)" fill="#edeaeb"/>
    <path id="Path_1241" data-name="Path 1241" d="M328.849,359.919c.9.167,1.744.438,1.639,1.372-.1.913-.981,1.051-1.79,1.034-.779-.016-1.442-.339-1.408-1.169C327.329,360.2,328.172,360.05,328.849,359.919Z" transform="translate(-45.539 -14.938)" fill="#e9e7e8"/>
    <path id="Path_1242" data-name="Path 1242" d="M261.382,360.67c.734.054,1.462.253,1.475,1.106.015.988-.844,1.251-1.605,1.247s-1.647-.3-1.6-1.264S260.59,360.7,261.382,360.67Z" transform="translate(-9.528 -15.338)" fill="#efedee"/>
    <path id="Path_1243" data-name="Path 1243" d="M295.451,339.97a1.563,1.563,0,0,1-1.7,1.2c-.825-.027-1.592-.337-1.542-1.271.043-.782.745-1.056,1.505-1.081A1.537,1.537,0,0,1,295.451,339.97Z" transform="translate(-26.862 -3.704)" fill="#f6f5f5"/>
    <path id="Path_1244" data-name="Path 1244" d="M275.056,344.208c-.019.921-.615,1.2-1.363,1.257-.8.061-1.683-.047-1.857-.938-.19-.973.675-1.3,1.455-1.4A1.5,1.5,0,0,1,275.056,344.208Z" transform="translate(-16.001 -5.99)" fill="#ece9eb"/>
    <path id="Path_1245" data-name="Path 1245" d="M272.4,377.449c-.807-.087-1.7-.265-1.593-1.24.09-.846.894-1.213,1.743-1.147.726.057,1.45.369,1.462,1.182C274.023,377.236,273.208,377.415,272.4,377.449Z" transform="translate(-15.461 -22.997)" fill="#edebec"/>
    <path id="Path_1246" data-name="Path 1246" d="M315.282,378.508c-.79-.063-1.551-.235-1.586-1.073-.041-.976.816-1.282,1.582-1.28.743,0,1.649.208,1.619,1.224S316.006,378.467,315.282,378.508Z" transform="translate(-38.301 -23.583)" fill="#eceaeb"/>
    <path id="Path_1247" data-name="Path 1247" d="M293.851,379.833c.8.078,1.612.382,1.508,1.293-.1.854-.917,1.135-1.759,1.08-.763-.05-1.451-.425-1.428-1.186C292.2,380.108,292.99,379.837,293.851,379.833Z" transform="translate(-26.842 -25.541)" fill="#f7f5f6"/>
    <path id="Path_1248" data-name="Path 1248" d="M287.813,361.083a10.76,10.76,0,0,1-6.618-1.815c-2.4-1.765-2.416-4.184-.1-6,3.3-2.587,10.383-2.555,13.626.06,2.129,1.717,2.189,3.964.09,5.706C292.785,360.714,290.339,361.062,287.813,361.083Z" transform="translate(-20.028 -10.374)" fill="#191919"/>
    <path id="Path_1249" data-name="Path 1249" d="M289.239,353.693a9.423,9.423,0,0,1,5.952,1.665c1.763,1.317,1.727,2.855.019,4.234-2.858,2.307-9.561,2.278-12.346-.053-1.6-1.336-1.637-2.773,0-4.082A9.479,9.479,0,0,1,289.239,353.693Z" transform="translate(-21.24 -11.622)" fill="#fefefe"/>
  </g>
</svg>
