<svg xmlns="http://www.w3.org/2000/svg" width="62.002" height="50.452" viewBox="0 0 62.002 50.452">
  <g id="Group_1986" data-name="Group 1986" transform="translate(-308.775 -87.223)">
    <path id="Path_1250" data-name="Path 1250" d="M423.164,107.528l-3.434,6.161c-.163-.587-.322-1.076-.429-1.576-.065-.3-.11-.381-.422-.2a27.763,27.763,0,0,1-9.536,3.428,26.751,26.751,0,0,1-13.333-1.15c-.186-.064-.372-.129-.558-.191a.819.819,0,0,0-.139-.014v.929c0,1.764.006,3.529-.005,5.293a.438.438,0,0,0,.338.5,25.431,25.431,0,0,0,11.919,1.622,25.952,25.952,0,0,0,10.417-3.428l-1.626-.924,6.807-1.838-3.441,6.171c-.147-.562-.286-1.014-.379-1.475-.08-.393-.175-.49-.577-.254a27.231,27.231,0,0,1-8.337,3.17,26.83,26.83,0,0,1-14.726-1.055c-.107-.038-.216-.072-.332-.11a.9.9,0,0,0-.056.528q-.005,6.06,0,12.12a2.312,2.312,0,0,1-3.227,2.24,2.209,2.209,0,0,1-1.4-2.139c-.012-2.622,0-5.244,0-7.866q0-18.9,0-37.8a2.32,2.32,0,1,1,4.633-.029q.008,6.382,0,12.763c0,.958,0,.952.9,1.277a24.942,24.942,0,0,0,9.979,1.535,26.062,26.062,0,0,0,11.8-3.534l-1.639-.921,6.814-1.844-3.437,6.162c-.163-.593-.334-1.089-.429-1.6-.069-.369-.179-.317-.435-.167a27.528,27.528,0,0,1-7.942,3.111,26.669,26.669,0,0,1-14.973-.873c-.2-.07-.4-.124-.635-.2,0,2.145,0,4.254,0,6.364,0,.2.089.279.267.346a25.638,25.638,0,0,0,11.369,1.7,26.258,26.258,0,0,0,10.574-3.208c.137-.075.268-.162.457-.276l-1.625-.914Z" transform="translate(-52.388 0)" fill="#040506"/>
    <path id="Path_1251" data-name="Path 1251" d="M334.744,174.272a.941.941,0,0,1,.949.926,1.146,1.146,0,0,1-1.168,1.04.933.933,0,0,1-.967-.9A1.116,1.116,0,0,1,334.744,174.272Z" transform="translate(-15.853 -55.681)" fill="#070708"/>
    <path id="Path_1252" data-name="Path 1252" d="M384.42,126.955a.942.942,0,0,1-.948.931,1.145,1.145,0,0,1-1.19-1.015.933.933,0,0,1,.927-.943A1.106,1.106,0,0,1,384.42,126.955Z" transform="translate(-47.02 -24.758)" fill="#070708"/>
    <path id="Path_1253" data-name="Path 1253" d="M316.963,161.543a.969.969,0,0,1-.93-.956,1.35,1.35,0,0,1,1.211-1.092.95.95,0,0,1,.9.937A1.283,1.283,0,0,1,316.963,161.543Z" transform="translate(-4.643 -46.229)" fill="#080809"/>
    <path id="Path_1254" data-name="Path 1254" d="M384.4,150.858a.936.936,0,0,1-.962.912,1.152,1.152,0,0,1-1.185-1.026.952.952,0,0,1,.952-.93A1.1,1.1,0,0,1,384.4,150.858Z" transform="translate(-47.003 -40.036)" fill="#070708"/>
    <path id="Path_1255" data-name="Path 1255" d="M335.691,151.3a1.152,1.152,0,0,1-1.205,1.052.933.933,0,0,1-.931-.893,1.119,1.119,0,0,1,1.174-1.075A.945.945,0,0,1,335.691,151.3Z" transform="translate(-15.85 -40.399)" fill="#070708"/>
    <path id="Path_1256" data-name="Path 1256" d="M318.138,184.319a1.281,1.281,0,0,1-1.172,1.116.97.97,0,0,1-.932-.955,1.365,1.365,0,0,1,1.159-1.093A.94.94,0,0,1,318.138,184.319Z" transform="translate(-4.643 -61.511)" fill="#070809"/>
    <path id="Path_1257" data-name="Path 1257" d="M335.692,127.418a1.164,1.164,0,0,1-1.216,1.044.936.936,0,0,1-.923-.9,1.119,1.119,0,0,1,1.183-1.066A.946.946,0,0,1,335.692,127.418Z" transform="translate(-15.85 -25.121)" fill="#070708"/>
    <path id="Path_1258" data-name="Path 1258" d="M317.236,135.612a.94.94,0,0,1,.9.974,1.292,1.292,0,0,1-1.164,1.071.957.957,0,0,1-.939-.944A1.345,1.345,0,0,1,317.236,135.612Z" transform="translate(-4.643 -30.952)" fill="#080809"/>
    <path id="Path_1259" data-name="Path 1259" d="M353.866,148.124a.952.952,0,0,1-1.008-.923c0-.564.453-.948,1.139-.956a.915.915,0,0,1,1.017.939C355.006,147.76,354.565,148.121,353.866,148.124Z" transform="translate(-28.198 -37.753)" fill="#070708"/>
    <path id="Path_1260" data-name="Path 1260" d="M353.991,122.358a.922.922,0,0,1,1.028.879c.023.608-.414.991-1.138,1a.955.955,0,0,1-1.016-.911C352.85,122.761,353.3,122.371,353.991,122.358Z" transform="translate(-28.202 -22.474)" fill="#070808"/>
    <path id="Path_1261" data-name="Path 1261" d="M326.6,131.434a1.208,1.208,0,0,1-1.164,1.055.946.946,0,0,1-.942-.938,1.187,1.187,0,0,1,1.2-1.064A.9.9,0,0,1,326.6,131.434Z" transform="translate(-10.056 -27.675)" fill="#070708"/>
    <path id="Path_1262" data-name="Path 1262" d="M384.418,174.75a.938.938,0,0,1-.958.918,1.134,1.134,0,0,1-1.181-1.078.933.933,0,0,1,.943-.879A1.1,1.1,0,0,1,384.418,174.75Z" transform="translate(-47.016 -55.322)" fill="#070708"/>
    <path id="Path_1263" data-name="Path 1263" d="M353.887,172.012a.949.949,0,0,1-1.016-.909c-.014-.564.441-.956,1.123-.967a.919.919,0,0,1,1.031.926C355.019,171.643,354.585,172.006,353.887,172.012Z" transform="translate(-28.206 -53.035)" fill="#070808"/>
    <path id="Path_1264" data-name="Path 1264" d="M325.432,156.379a.948.948,0,0,1-.942-.939,1.193,1.193,0,0,1,1.2-1.063.9.9,0,0,1,.91.9A1.2,1.2,0,0,1,325.432,156.379Z" transform="translate(-10.052 -42.955)" fill="#070708"/>
    <path id="Path_1265" data-name="Path 1265" d="M373.891,149.206c-.7,0-1.2-.389-1.21-.953a.912.912,0,0,1,.963-.948c.711.007,1.177.392,1.177.973A.912.912,0,0,1,373.891,149.206Z" transform="translate(-40.877 -38.432)" fill="#060707"/>
    <path id="Path_1266" data-name="Path 1266" d="M326.6,179.208a1.2,1.2,0,0,1-1.172,1.045.938.938,0,0,1-.936-.938,1.191,1.191,0,0,1,1.2-1.063A.91.91,0,0,1,326.6,179.208Z" transform="translate(-10.054 -58.227)" fill="#070708"/>
    <path id="Path_1267" data-name="Path 1267" d="M363.965,171.831c-.718-.007-1.132-.352-1.125-.937a.917.917,0,0,1,.99-.926c.734,0,1.161.366,1.147.977A.9.9,0,0,1,363.965,171.831Z" transform="translate(-34.583 -52.928)" fill="#060707"/>
    <path id="Path_1268" data-name="Path 1268" d="M373.692,171.2c.714.026,1.155.423,1.129,1.017a.913.913,0,0,1-.976.88c-.7-.023-1.176-.427-1.164-1A.917.917,0,0,1,373.692,171.2Z" transform="translate(-40.878 -53.716)" fill="#060707"/>
    <path id="Path_1269" data-name="Path 1269" d="M373.885,125.317c-.721,0-1.227-.417-1.212-1a.913.913,0,0,1,.966-.9c.714.007,1.176.39,1.177.974A.91.91,0,0,1,373.885,125.317Z" transform="translate(-40.873 -23.152)" fill="#060708"/>
    <path id="Path_1270" data-name="Path 1270" d="M363.949,147.941c-.716-.011-1.128-.372-1.106-.968a.927.927,0,0,1,.98-.9c.74,0,1.169.37,1.153.986A.9.9,0,0,1,363.949,147.941Z" transform="translate(-34.584 -37.645)" fill="#060708"/>
    <path id="Path_1271" data-name="Path 1271" d="M345.226,172.469c0,.6-.5,1.008-1.217,1a.915.915,0,0,1-.909-.906c-.015-.594.479-1.017,1.195-1.021A.916.916,0,0,1,345.226,172.469Z" transform="translate(-21.957 -53.932)" fill="#060607"/>
    <path id="Path_1272" data-name="Path 1272" d="M363.918,124.066c-.692-.017-1.089-.361-1.084-.94a.926.926,0,0,1,1.058-.913c.7.027,1.085.368,1.078.951A.9.9,0,0,1,363.918,124.066Z" transform="translate(-34.579 -22.381)" fill="#060708"/>
    <path id="Path_1273" data-name="Path 1273" d="M345.225,148.567c.008.6-.481,1.012-1.2,1.011a.921.921,0,0,1-.921-.944c0-.575.479-.973,1.179-.987A.922.922,0,0,1,345.225,148.567Z" transform="translate(-21.956 -38.651)" fill="#070708"/>
    <path id="Path_1274" data-name="Path 1274" d="M343.1,124.777a1.065,1.065,0,0,1,1.2-1.016.922.922,0,0,1,.926.889c.023.606-.447,1.024-1.175,1.044A.924.924,0,0,1,343.1,124.777Z" transform="translate(-21.957 -23.372)" fill="#070708"/>
    <path id="Path_1275" data-name="Path 1275" d="M308.781,166.863a1.1,1.1,0,0,1,1.036-1.043.951.951,0,0,1,.92.96,1.094,1.094,0,0,1-1.023,1A.9.9,0,0,1,308.781,166.863Z" transform="translate(-0.004 -50.275)" fill="#070708"/>
    <path id="Path_1276" data-name="Path 1276" d="M308.78,142.973a1.1,1.1,0,0,1,1.039-1.039.953.953,0,0,1,.919.962,1.108,1.108,0,0,1-1.028,1A.893.893,0,0,1,308.78,142.973Z" transform="translate(-0.003 -34.996)" fill="#070708"/>
    <path id="Path_1277" data-name="Path 1277" d="M309.682,191.676a.9.9,0,0,1-.907-.949,1.113,1.113,0,0,1,1.019-1.014.954.954,0,0,1,.944.939A1.1,1.1,0,0,1,309.682,191.676Z" transform="translate(0 -65.559)" fill="#070808"/>
  </g>
</svg>
