<svg id="Layer_1" data-name="Layer 1" xmlns="http://www.w3.org/2000/svg" viewBox="0 0 40 40"><path id="activity" d="M312.6,400.4h-3l-2.1,6.6-4.4-13.1-2.2,6.5H298" transform="translate(-286 -376.5)" style="fill:none;stroke:#fff;stroke-linecap:round;stroke-linejoin:round;stroke-width:1.5px;isolation:isolate;opacity:0.800000011920929"/><g id="Group_4347" data-name="Group 4347"><circle id="Ellipse_541" data-name="Ellipse 541" cx="20" cy="20" r="20" style="fill:#f2f2f3"/><path id="Path_2500" data-name="Path 2500" d="M316.9,399.4h-7.6l1.2-5.9h6.4c.3.1.5-.1.6-.4a.7.7,0,0,0-.4-.6h-6.4l1.4-6.6a.5.5,0,0,0-.5-.5.5.5,0,0,0-.5.3l-1.4,6.8H304l1.3-6.6a.5.5,0,0,0-.5-.5.5.5,0,0,0-.5.3l-1.4,6.8h-7.8a.6.6,0,0,0-.6.5c0,.2.2.5.4.5h7.8l-1.2,5.9h-6.4c-.3.1-.5.3-.4.6a.4.4,0,0,0,.4.4h6.2l-1.3,6.7a.5.5,0,0,0,.3.6h.1a.5.5,0,0,0,.5-.4l1.4-6.9h5.8l-1.4,6.7a.5.5,0,0,0,.4.6h.1a.7.7,0,0,0,.5-.4l1.4-6.9h7.8a.5.5,0,0,0,.6-.4.7.7,0,0,0-.4-.6Zm-14.4,0,1.3-5.9h5.7l-1.2,5.9Z" transform="translate(-286 -376.5)" style="fill:#46515c"/></g></svg>