<svg id="Layer_1" data-name="Layer 1" xmlns="http://www.w3.org/2000/svg" viewBox="0 0 40 40"><g id="Group_4346" data-name="Group 4346"><circle id="Ellipse_540" data-name="Ellipse 540" cx="20" cy="20" r="20" style="fill:#45515c"/><g id="Group_4344" data-name="Group 4344"><path id="Path_2498" data-name="Path 2498" d="M691.5,375.1H674a.4.4,0,0,0-.4.4v17.6a.4.4,0,0,0,.4.4h17.5a.4.4,0,0,0,.4-.4V375.5A.4.4,0,0,0,691.5,375.1Zm-.3,5.4v12.2H674.4v-4.6l6-4.5,4.3,3.2h.5Zm0-1.1H691l-6.1,6.5-4.3-3.2a.2.2,0,0,0-.4,0l-5.8,4.3V375.9h16.8Z" transform="translate(-662.8 -364.3)" style="fill:#fff"/><path id="Path_2499" data-name="Path 2499" d="M677.8,381.6a1.8,1.8,0,1,0-1.8-1.8A1.8,1.8,0,0,0,677.8,381.6Zm-1.1-1.8a1.1,1.1,0,0,1,1.1-1.1,1,1,0,0,1,1,1.1,1,1,0,0,1-1,1,1,1,0,0,1-1.1-1Z" transform="translate(-662.8 -364.3)" style="fill:#fff"/></g></g></svg>