<svg id="Layer_1" data-name="Layer 1" xmlns="http://www.w3.org/2000/svg" viewBox="0 0 1064.33 1064.33"><g id="logo"><circle id="Ellipse-3" cx="532.17" cy="532.17" r="532.17" style="fill:#ef6f0e;isolation:isolate;opacity:0.14399999380111694"/><circle id="Ellipse-4" cx="532.17" cy="532.17" r="429.29" style="fill:#ef6f0e;isolation:isolate;opacity:0.28999999165534973"/><circle id="Ellipse-5" cx="532.17" cy="532.17" r="314.55" style="fill:#ef6f0e;isolation:isolate;opacity:0.9950000047683716"/><g id="compass-3-2"><g id="compass-4-2"><path id="Combined-Shape-2-2" d="M1016.75,645.87a98.46,98.46,0,1,1,98.47-98.46,98.44,98.44,0,0,1-98.47,98.46Zm0-17.9a80.56,80.56,0,1,0-80.55-80.56h0A80.55,80.55,0,0,0,1016.75,628ZM991.92,516.43l62.65-17.9a8.95,8.95,0,0,1,11.08,11.07l-17.91,62.65a9,9,0,0,1-6.15,6.15l-62.66,17.9a9,9,0,0,1-11.08-6.12,9.09,9.09,0,0,1,0-5l17.91-62.66A8.92,8.92,0,0,1,991.92,516.43Zm-2.41,58.23,42.38-12.11L1044,520.17l-42.38,12.11Zm27.25-18.3a8.95,8.95,0,1,1,9-9h0a9,9,0,0,1-9,9h0Z" transform="translate(-484.17 -15.67)" style="fill:#ef6f0e"/></g></g></g><g id="Group_3633" data-name="Group 3633"><circle id="Ellipse-2-2" cx="555.47" cy="550.36" r="346.34" style="fill:#e95815;isolation:isolate;opacity:0.28999999165534973"/><circle id="Ellipse-3-2" cx="555.47" cy="550.37" r="252.54" style="fill:#e95815;isolation:isolate;opacity:0.9950000047683716"/><g id="compass-5"><g id="compass-2-2"><path id="Combined-Shape-3" d="M1039.62,645.4A79.37,79.37,0,1,1,1119,566h0a79.36,79.36,0,0,1-79.36,79.37Zm0-14.43A64.94,64.94,0,1,0,974.68,566h0A64.93,64.93,0,0,0,1039.62,631Zm-20-89.91,50.51-14.43a7.22,7.22,0,0,1,8.92,5,7.36,7.36,0,0,1,0,3.95l-14.44,50.51a7.19,7.19,0,0,1-4.95,5l-50.51,14.43a7.22,7.22,0,0,1-8.92-5,7.36,7.36,0,0,1,0-4L1014.66,546A7.2,7.2,0,0,1,1019.62,541.06Zm-2,46.94,34.17-9.76,9.76-34.17-34.16,9.77Zm22-14.75a7.22,7.22,0,1,1,7.22-7.21,7.21,7.21,0,0,1-7.22,7.21h0Z" transform="translate(-484.17 -15.67)" style="fill:#e95815"/></g></g><g id="Group_3087" data-name="Group 3087"><g id="Group_3086" data-name="Group 3086"><path id="Path_2108" data-name="Path 2108" d="M1348.63,228.57c.88-6.41-8.16-11.68-15-12.23a38.31,38.31,0,0,1-9.67-.84c-6.65-2.31-9.31-10.91-15.8-13.64a18.6,18.6,0,0,0-15.14,2.14,39.55,39.55,0,0,1-14.6,5.68c-4.57.3-9.54-1.4-13.54.83-3,1.67-4.54,5.1-7.28,7.13a17.4,17.4,0,0,1-9.53,2.58,27,27,0,0,0-9.82,1.6,7.78,7.78,0,0,0-4.92,7.88Z" transform="translate(-484.17 -15.67)" style="fill:#f8fafa"/></g></g><g id="Group_3089" data-name="Group 3089"><g id="Group_3088" data-name="Group 3088"><path id="Path_2109" data-name="Path 2109" d="M883.23,236c1.38-10-12.77-18.27-23.4-19.13a60.07,60.07,0,0,1-15.13-1.3C834.29,212,830.13,198.53,820,194.23c-7.59-3.2-16.33-.34-23.69,3.35s-14.64,8.36-22.85,8.9c-7.15.45-14.92-2.2-21.17,1.29-4.67,2.61-7.12,8-11.4,11.15A27.22,27.22,0,0,1,726,223a41.88,41.88,0,0,0-15.36,2.51,12.14,12.14,0,0,0-7.69,12.33Z" transform="translate(-484.17 -15.67)" style="fill:#f2f3f3"/></g></g><g id="Group_3091" data-name="Group 3091"><g id="Group_3090" data-name="Group 3090"><path id="Path_2110" data-name="Path 2110" d="M1251.26,293c1.34-9.79-12.47-17.84-22.85-18.68a58.69,58.69,0,0,1-14.78-1.27c-10.16-3.55-14.23-16.67-24.14-20.86-7.41-3.12-15.94-.34-23.13,3.28s-14.29,8.17-22.32,8.68c-7,.45-14.57-2.14-20.68,1.27-4.55,2.54-6.94,7.79-11.13,10.89a26.5,26.5,0,0,1-14.56,3.95,41,41,0,0,0-15,2.46,11.85,11.85,0,0,0-7.52,12Z" transform="translate(-484.17 -15.67)" style="fill:#f2f3f3"/></g></g><g id="Group_3127" data-name="Group 3127"><g id="Group_3096" data-name="Group 3096"><g id="Group_3095" data-name="Group 3095"><g id="Group_3094" data-name="Group 3094"><g id="Group_3093" data-name="Group 3093"><g id="Group_3092" data-name="Group 3092"><path id="Path_2111" data-name="Path 2111" d="M1233,881.68c-33.84-15.6-47.65-53.37-52.75-88.63-.85-5.88-2.61-11.93-.74-17.56s7.72-10.29,13.4-8.78c4.71,1.26,7.52,6,10.68,9.71a34.68,34.68,0,0,0,16.07,10.65,13.23,13.23,0,0,0,12.2-1.07c4.55-3.69,3.89-10.77,2.81-16.58l-6-32.49a55.07,55.07,0,0,1-1.34-17.59,18.33,18.33,0,0,1,9.15-14.25,11.13,11.13,0,0,1,14.86,4.91,55.5,55.5,0,0,1,1.47,7.21,6.21,6.21,0,0,0,4.61,5.12c2.45.27,4.48-1.8,5.91-3.82a78.84,78.84,0,0,0,10.13-23.45,109,109,0,0,1,9.06-24,32,32,0,0,1,19.18-15.78,19.12,19.12,0,0,1,21.61,9.38c3.59,7.82.3,17-3.71,24.58a132.26,132.26,0,0,1-22.42,30.63,10.8,10.8,0,0,0-3.65,5.67c-.57,4.11,3.8,7.3,7.86,7.89a69.13,69.13,0,0,0,13.85-.91,13.27,13.27,0,0,1,12.39,4.82c3.44,5.54-.4,12.66-4.57,17.6a113.18,113.18,0,0,1-29.51,24.93,38.17,38.17,0,0,0-11.17,8.14,10.94,10.94,0,0,0-1.23,13,11.13,11.13,0,0,0,12.74,2.44,77.86,77.86,0,0,0,11.87-7.17c7.45-4.45,17.88-5.75,24.24.24a18.74,18.74,0,0,1,4.88,15.93,43.25,43.25,0,0,1-6.24,16,113.57,113.57,0,0,1-41.74,42.14c-17.41,9.76-34.26,14.59-53.9,11.15" transform="translate(-484.17 -15.67)" style="fill:#f8fafa"/></g></g></g></g></g><g id="Group_3102" data-name="Group 3102"><g id="Group_3101" data-name="Group 3101"><g id="Group_3100" data-name="Group 3100"><g id="Group_3099" data-name="Group 3099"><g id="Group_3098" data-name="Group 3098"><g id="Group_3097" data-name="Group 3097"><path id="Path_2112" data-name="Path 2112" d="M1238.13,858.09a527.83,527.83,0,0,1,10.62-59.84q1.82-7.86,3.58-15.54c1.19-5.1,2.37-10.16,3.83-15a265.16,265.16,0,0,1,10-27.53c3.61-8.6,7.33-16.62,10.88-24.14s7-14.39,10.42-20.55a209.25,209.25,0,0,1,18.26-27.85c2.4-3.11,4.35-5.46,5.68-7l1.54-1.78a3.71,3.71,0,0,1,.54-.58,3.65,3.65,0,0,1-.46.65l-1.46,1.85c-1.27,1.62-3.16,4-5.54,7.15a222.07,222.07,0,0,0-17.91,28c-3.36,6.17-6.76,13.07-10.29,20.57s-7.2,15.54-10.76,24.14a267.09,267.09,0,0,0-9.9,27.44c-1.44,4.84-2.6,9.86-3.79,15s-2.38,10.29-3.59,15.53a544.12,544.12,0,0,0-10.68,59.71" transform="translate(-484.17 -15.67)" style="fill:#d9d9d8"/></g></g></g></g></g></g><g id="Group_3108" data-name="Group 3108"><g id="Group_3107" data-name="Group 3107"><g id="Group_3106" data-name="Group 3106"><g id="Group_3105" data-name="Group 3105"><g id="Group_3104" data-name="Group 3104"><g id="Group_3103" data-name="Group 3103"><path id="Path_2113" data-name="Path 2113" d="M1256.46,767.58a12.74,12.74,0,0,1-1-2.37c-.59-1.56-1.37-3.83-2.3-6.65-1.87-5.65-4.17-13.54-6.68-22.23s-4.92-16.54-6.86-22.14c-1-2.8-1.77-5.06-2.34-6.62a11.31,11.31,0,0,1-.8-2.47,11.94,11.94,0,0,1,1.17,2.31c.7,1.51,1.61,3.74,2.67,6.51,2.14,5.54,4.68,13.38,7.19,22.1s4.67,16.36,6.37,22.3c.79,2.68,1.44,4.94,2,6.75A12.62,12.62,0,0,1,1256.46,767.58Z" transform="translate(-484.17 -15.67)" style="fill:#d9d9d8"/></g></g></g></g></g></g><g id="Group_3114" data-name="Group 3114"><g id="Group_3113" data-name="Group 3113"><g id="Group_3112" data-name="Group 3112"><g id="Group_3111" data-name="Group 3111"><g id="Group_3110" data-name="Group 3110"><g id="Group_3109" data-name="Group 3109"><path id="Path_2114" data-name="Path 2114" d="M1328.75,740.18a16.44,16.44,0,0,1-2.92.9c-1.89.51-4.62,1.24-8,2.25-6.73,2-15.91,5-25.89,8.82s-18.88,7.66-25.22,10.63c-3.19,1.46-5.73,2.71-7.5,3.56a16.58,16.58,0,0,1-2.79,1.24,16.16,16.16,0,0,1,2.6-1.62c1.71-1,4.21-2.33,7.36-3.89,6.28-3.16,15.15-7.12,25.16-11a267.1,267.1,0,0,1,26.06-8.54c3.4-.92,6.17-1.54,8.09-1.92A15.45,15.45,0,0,1,1328.75,740.18Z" transform="translate(-484.17 -15.67)" style="fill:#d9d9d8"/></g></g></g></g></g></g><g id="Group_3120" data-name="Group 3120"><g id="Group_3119" data-name="Group 3119"><g id="Group_3118" data-name="Group 3118"><g id="Group_3117" data-name="Group 3117"><g id="Group_3116" data-name="Group 3116"><g id="Group_3115" data-name="Group 3115"><path id="Path_2115" data-name="Path 2115" d="M1238.8,856.55a4.12,4.12,0,0,1-.68-.82l-1.76-2.48c-1.53-2.16-3.65-5.33-6.22-9.29-5.14-7.92-11.91-19.09-19.21-31.51s-14-23.64-18.93-31.65c-2.43-3.9-4.43-7.1-5.94-9.5l-1.58-2.59a4.24,4.24,0,0,1-.5-.94,4.12,4.12,0,0,1,.68.82c.48.67,1.06,1.48,1.76,2.48,1.53,2.15,3.65,5.33,6.22,9.29,5.14,7.91,11.91,19.09,19.21,31.52s14,23.63,18.93,31.65c2.43,3.89,4.43,7.1,5.93,9.49l1.59,2.6A4.14,4.14,0,0,1,1238.8,856.55Z" transform="translate(-484.17 -15.67)" style="fill:#d9d9d8"/></g></g></g></g></g></g><g id="Group_3126" data-name="Group 3126"><g id="Group_3125" data-name="Group 3125"><g id="Group_3124" data-name="Group 3124"><g id="Group_3123" data-name="Group 3123"><g id="Group_3122" data-name="Group 3122"><g id="Group_3121" data-name="Group 3121"><path id="Path_2116" data-name="Path 2116" d="M1332.44,806.67a3.8,3.8,0,0,1-.91.58l-2.71,1.49-10,5.35c-8.46,4.53-20.08,10.92-32.91,18s-24.53,13.37-33.07,17.72c-4.28,2.18-7.76,3.9-10.19,5.05l-2.81,1.3a3.87,3.87,0,0,1-1,.4,4.43,4.43,0,0,1,.91-.59l2.72-1.48,10-5.36c8.46-4.52,20.08-10.92,32.91-18s24.53-13.36,33.08-17.72c4.27-2.18,7.75-3.9,10.19-5l2.8-1.31A4.14,4.14,0,0,1,1332.44,806.67Z" transform="translate(-484.17 -15.67)" style="fill:#d9d9d8"/></g></g></g></g></g></g></g><g id="Group_3128" data-name="Group 3128"><path id="Path_2117" data-name="Path 2117" d="M1382.32,479.48l-30.75-25.26-.17,13.66-85.79-1.07-.27,22.44,85.78,1.07-.16,13.17Z" transform="translate(-484.17 -15.67)" style="fill:#f8fafa"/></g><g id="Group_3129" data-name="Group 3129"><path id="Path_2118" data-name="Path 2118" d="M1336.6,515.82l-19.85-16.31-.11,8.82-55.4-.69-.17,14.48,55.39.69-.11,8.5Z" transform="translate(-484.17 -15.67)" style="fill:#f8fafa"/></g><g id="Group_3130" data-name="Group 3130"><path id="Path_2119" data-name="Path 2119" d="M684.22,312.28s-17.88,5.55-1,43.94a485.76,485.76,0,0,0,29,57.61s2.88,8.85-4.48,9.78-23.27-2.55-27,6.17c-3.9,9.06,2.32,18.17,15.5,26.61s41.39,28,43.92,29.76,4.86,5.93-.06,7.35-41.22,3.13-39.39,20.31,42.42,34.66,46.82,36.65,5.37,4,4.85,6.41-12.76,1.87-23.07,2.77-22.11,3.76-20.22,13.58,25.27,31.58,84.56,40.86l27.75,2.5L837.85,594c32.33-50.56,31.51-82.49,25.4-90.41s-16.06-1-23.56,6.15-15.19,16.69-17.36,15.45-3-3.27-1.58-7.89,15.2-46.59,3.56-59.35S787.33,471.24,783,474s-5.89-1.81-5.54-4.84,4.39-37.15,6.8-52.62-.3-26.16-9.66-29.23c-9-3-17,11.25-22.53,16.15s-10.29-3.11-10.29-3.11a485.66,485.66,0,0,0-23.95-59.88c-17.58-38.07-33.94-28-33.94-28" transform="translate(-484.17 -15.67)" style="fill:#e95815"/></g><g id="Group_3133" data-name="Group 3133"><g id="Group_3132" data-name="Group 3132"><g id="Group_3131" data-name="Group 3131"><path id="Path_2120" data-name="Path 2120" d="M822.44,623.2c-12.8-28-34.71-78.18-53.74-121.15s-36.3-81.84-49-109.92c-6.33-14-11.47-25.36-15-33.24-1.76-3.89-3.13-6.94-4.08-9l-1-2.38c-.23-.53-.33-.81-.33-.81s.15.25.4.79l1.12,2.32,4.22,9c3.66,7.79,8.88,19.11,15.27,33.12,12.8,28,30.15,66.87,49.19,109.82S810.31,594.88,823,623" transform="translate(-484.17 -15.67)" style="fill:#d9d9d8"/></g></g></g><g id="Group_3136" data-name="Group 3136"><g id="Group_3135" data-name="Group 3135"><g id="Group_3134" data-name="Group 3134"><path id="Path_2121" data-name="Path 2121" d="M702.75,435.55a8.61,8.61,0,0,1,1.91.65c1.21.46,2.94,1.18,5.07,2.11,4.25,1.84,10,4.53,16.4,7.62l16.22,8,4.93,2.38a8.66,8.66,0,0,1,1.78.94,8.58,8.58,0,0,1-1.91-.64c-1.21-.47-2.94-1.18-5-2.13-4.24-1.89-10-4.65-16.35-7.74l-16.28-7.84-4.94-2.37A9.76,9.76,0,0,1,702.75,435.55Z" transform="translate(-484.17 -15.67)" style="fill:#d9d9d8"/></g></g></g><g id="Group_3139" data-name="Group 3139"><g id="Group_3138" data-name="Group 3138"><g id="Group_3137" data-name="Group 3137"><path id="Path_2122" data-name="Path 2122" d="M751.06,455.55c-.22-.09,4.81-12.3,11.23-27.26s11.79-27,12-26.9-4.81,12.3-11.23,27.26S751.28,455.65,751.06,455.55Z" transform="translate(-484.17 -15.67)" style="fill:#d9d9d8"/></g></g></g><g id="Group_3142" data-name="Group 3142"><g id="Group_3141" data-name="Group 3141"><g id="Group_3140" data-name="Group 3140"><path id="Path_2123" data-name="Path 2123" d="M777.31,522.86a9.08,9.08,0,0,1,1.23-1.65l3.56-4.32c3-3.65,7.13-8.71,11.44-14.46s8.11-11.07,10.79-14.94l3.2-4.6a9.29,9.29,0,0,1,1.25-1.63,9.63,9.63,0,0,1-1,1.82c-.68,1.13-1.68,2.76-3,4.74-2.56,4-6.24,9.38-10.61,15.13s-8.55,10.77-11.66,14.33c-1.58,1.77-2.86,3.19-3.77,4.14A9.68,9.68,0,0,1,777.31,522.86Z" transform="translate(-484.17 -15.67)" style="fill:#d9d9d8"/></g></g></g><g id="Group_3145" data-name="Group 3145"><g id="Group_3144" data-name="Group 3144"><g id="Group_3143" data-name="Group 3143"><path id="Path_2124" data-name="Path 2124" d="M729.64,514.38a8.08,8.08,0,0,1,1.9.14l5.12.71c4.32.63,10.29,1.56,16.84,2.64s12.52,2.11,16.81,2.9l5.08,1a8.87,8.87,0,0,1,1.84.47,8.07,8.07,0,0,1-1.9-.13l-5.12-.71c-4.32-.63-10.29-1.56-16.85-2.65s-12.51-2.1-16.8-2.89l-5.08-1A7.77,7.77,0,0,1,729.64,514.38Z" transform="translate(-484.17 -15.67)" style="fill:#d9d9d8"/></g></g></g><g id="Group_3148" data-name="Group 3148"><g id="Group_3147" data-name="Group 3147"><g id="Group_3146" data-name="Group 3146"><path id="Path_2125" data-name="Path 2125" d="M745.26,576.74a12.34,12.34,0,0,1,2.43.21l6.57.87c5.54.79,13.19,1.92,21.62,3.22s16.06,2.54,21.58,3.47l6.52,1.15a13.68,13.68,0,0,1,2.38.54,14.07,14.07,0,0,1-2.43-.21l-6.57-.87c-5.54-.79-13.19-1.92-21.62-3.22s-16.06-2.54-21.58-3.47l-6.52-1.15A13.89,13.89,0,0,1,745.26,576.74Z" transform="translate(-484.17 -15.67)" style="fill:#d9d9d8"/></g></g></g><g id="Group_3151" data-name="Group 3151"><g id="Group_3150" data-name="Group 3150"><g id="Group_3149" data-name="Group 3149"><path id="Path_2126" data-name="Path 2126" d="M805,585.56a15.72,15.72,0,0,1,1.5-2.13l4.31-5.64c3.63-4.75,8.62-11.36,13.93-18.8s9.95-14.28,13.26-19.27c1.59-2.37,2.92-4.38,4-5.9a14.56,14.56,0,0,1,1.53-2.11,15.34,15.34,0,0,1-1.24,2.29c-.85,1.44-2.11,3.52-3.71,6-3.19,5.08-7.76,12-13.08,19.45s-10.39,14-14.15,18.67c-1.88,2.33-3.43,4.2-4.52,5.47A15.48,15.48,0,0,1,805,585.56Z" transform="translate(-484.17 -15.67)" style="fill:#d9d9d8"/></g></g></g><g id="Group_3173" data-name="Group 3173"><g id="Group_3154" data-name="Group 3154"><g id="Group_3153" data-name="Group 3153"><g id="Group_3152" data-name="Group 3152"><path id="Path_2127" data-name="Path 2127" d="M1220,815.27a13.06,13.06,0,0,1,7,7.45,23,23,0,0,1,1.22,10.33,40.65,40.65,0,0,1-8.11,19.18c-5.82-4.77-7.39-13.36-7.91-17.77-.83-7,1.9-20.05,7.81-19.19" transform="translate(-484.17 -15.67)" style="fill:#de3848"/></g></g></g><g id="Group_3157" data-name="Group 3157"><g id="Group_3156" data-name="Group 3156"><g id="Group_3155" data-name="Group 3155"><path id="Path_2128" data-name="Path 2128" d="M1227.06,863.13a11.1,11.1,0,0,1,3.27-10.68,14.75,14.75,0,0,1,10.79-3.75,6.24,6.24,0,0,1,4.85,2,4.78,4.78,0,0,1,.23,4.82,9.75,9.75,0,0,1-3.47,3.63,19.1,19.1,0,0,1-15.67,4" transform="translate(-484.17 -15.67)" style="fill:#de3848"/></g></g></g><g id="Group_3161" data-name="Group 3161"><g id="Group_3160" data-name="Group 3160"><g id="Group_3159" data-name="Group 3159"><g id="Group_3158" data-name="Group 3158"><path id="Path_2129" data-name="Path 2129" d="M1220.43,884a8.11,8.11,0,0,1,.16-1.39c.15-1,.34-2.24.57-3.75a39.11,39.11,0,0,1,3.48-12.06,23.87,23.87,0,0,1,8.29-9.37,16.28,16.28,0,0,1,3.44-1.66c.43-.16.79-.22,1-.29a1,1,0,0,1,.36-.06,25.43,25.43,0,0,0-4.61,2.3,24.64,24.64,0,0,0-8,9.3,42,42,0,0,0-3.56,11.89c-.3,1.59-.54,2.86-.73,3.74A6.41,6.41,0,0,1,1220.43,884Z" transform="translate(-484.17 -15.67)" style="fill:#1c262a"/></g></g></g></g><g id="Group_3165" data-name="Group 3165"><g id="Group_3164" data-name="Group 3164"><g id="Group_3163" data-name="Group 3163"><g id="Group_3162" data-name="Group 3162"><path id="Path_2130" data-name="Path 2130" d="M1218.82,825.42a3.11,3.11,0,0,1,.09.6l.16,1.74c.12,1.5.28,3.68.45,6.38.34,5.38.71,12.83.94,21.06s.24,15.7.19,21.1c0,2.7-.06,4.88-.11,6.39l-.06,1.73a3.08,3.08,0,0,1-.06.61,2.47,2.47,0,0,1,0-.61l0-1.73c0-1.59,0-3.74,0-6.39,0-5.4-.13-12.85-.34-21.08s-.54-15.68-.8-21.07c-.12-2.64-.23-4.81-.3-6.38l-.06-1.73A2.57,2.57,0,0,1,1218.82,825.42Z" transform="translate(-484.17 -15.67)" style="fill:#1c262a"/></g></g></g></g><g id="Group_3168" data-name="Group 3168"><g id="Group_3167" data-name="Group 3167"><g id="Group_3166" data-name="Group 3166"><path id="Path_2131" data-name="Path 2131" d="M1217.38,867.55a26.06,26.06,0,0,0-14.8-18.62,5.5,5.5,0,0,0-5.94.09,5.38,5.38,0,0,0-.26,5.93,22.23,22.23,0,0,0,20.87,13.17" transform="translate(-484.17 -15.67)" style="fill:#de3848"/></g></g></g><g id="Group_3172" data-name="Group 3172"><g id="Group_3171" data-name="Group 3171"><g id="Group_3170" data-name="Group 3170"><g id="Group_3169" data-name="Group 3169"><path id="Path_2132" data-name="Path 2132" d="M1203.68,855.26a7.33,7.33,0,0,1,1.23.49,14.7,14.7,0,0,1,1.38.68c.6.32,1.19.66,1.76,1a21.84,21.84,0,0,1,2,1.43,26.72,26.72,0,0,1,9.15,12.74,26,26,0,0,1,.75,2.75,22.18,22.18,0,0,1,.41,2.44,17.18,17.18,0,0,1,.16,2,10,10,0,0,1,0,1.55,6.28,6.28,0,0,1-.11,1.3c-.1,0,0-1.87-.39-4.84a22.11,22.11,0,0,0-.47-2.4,27.48,27.48,0,0,0-7.67-13.41c-.67-.65-1.37-1.27-2.1-1.85s-1.3-1-2-1.46C1205.37,856.09,1203.64,855.36,1203.68,855.26Z" transform="translate(-484.17 -15.67)" style="fill:#1c262a"/></g></g></g></g></g><g id="Group_3177" data-name="Group 3177"><g id="Group_3176" data-name="Group 3176"><g id="Group_3175" data-name="Group 3175"><g id="Group_3174" data-name="Group 3174"><path id="Path_2133" data-name="Path 2133" d="M739.24,844.26c1.47-5.74-2.28-11.48-6.49-15.65s-9.25-7.88-11.44-13.38c-3.56-8.91,1.22-20.44-4.84-27.87-3.56-4.38-10-5.84-13.12-10.51a23.78,23.78,0,0,1-2.85-8.35,84.7,84.7,0,0,0-21.09-39.45,73.63,73.63,0,0,0,8.28,38A48.32,48.32,0,0,1,694,781.52c1.32,8.46-3.41,17.18-1.32,25.5,2.37,9.5,13.05,15.87,13.56,25.66.43,8.28-6.78,15.54-6.24,23.81a22.4,22.4,0,0,0,3.67,9.82A32.88,32.88,0,0,0,733.69,884l17.45.61Z" transform="translate(-484.17 -15.67)" style="fill:#de3848"/></g></g></g></g><g id="Group_3182" data-name="Group 3182"><g id="Group_3181" data-name="Group 3181"><g id="Group_3180" data-name="Group 3180"><g id="Group_3179" data-name="Group 3179"><g id="Group_3178" data-name="Group 3178"><path id="Path_2134" data-name="Path 2134" d="M739.24,844.26c1.47-5.74-2.28-11.48-6.49-15.65s-9.25-7.88-11.44-13.38c-3.56-8.91,1.22-20.44-4.84-27.87-3.56-4.38-10-5.84-13.12-10.51a23.78,23.78,0,0,1-2.85-8.35,84.7,84.7,0,0,0-21.09-39.45,73.63,73.63,0,0,0,8.28,38A48.32,48.32,0,0,1,694,781.52c1.32,8.46-3.41,17.18-1.32,25.5,2.37,9.5,13.05,15.87,13.56,25.66.43,8.28-6.78,15.54-6.24,23.81a22.4,22.4,0,0,0,3.67,9.82A32.88,32.88,0,0,0,733.69,884l17.45.61Z" transform="translate(-484.17 -15.67)" style="fill:#7b0c15"/></g></g></g></g></g><g id="Group_3204" data-name="Group 3204"><g id="Group_3193" data-name="Group 3193"><g id="Group_3187" data-name="Group 3187"><g id="Group_3186" data-name="Group 3186"><g id="Group_3185" data-name="Group 3185"><g id="Group_3184" data-name="Group 3184"><g id="Group_3183" data-name="Group 3183"><path id="Path_2135" data-name="Path 2135" d="M754.67,885.11a13.82,13.82,0,0,0,4.8-.1,29.91,29.91,0,0,0,5.68-1.43,24,24,0,0,0,7-3.84A9.66,9.66,0,0,0,775,875.9a17.72,17.72,0,0,0,.82-5.21,50.92,50.92,0,0,1,.4-5.65,15.72,15.72,0,0,1,2.16-5.63A42.6,42.6,0,0,0,785,847.47a39.36,39.36,0,0,0-.48-15.29,32.55,32.55,0,0,1,.4-16.4c1.87-5.46,5.7-10.39,7.61-16.54s1-12.9,1.43-19.49a25.73,25.73,0,0,1,2.27-9.69c1.41-3.08,3.37-6,4.9-9.25a67.85,67.85,0,0,0,4.49-21.33l1.25-11.15a54.8,54.8,0,0,1,1.94-11.16,98.7,98.7,0,0,1,4.17-10.8,35.46,35.46,0,0,0,2-5.64c.29-2,.48-4,.57-6a70.71,70.71,0,0,0-.47-12.08c-.48-4-1.19-8-1.63-12.06l-.08-.69-.09-.79-.72.35a26.9,26.9,0,0,0-9.39,7.92A42.62,42.62,0,0,0,797.42,688,131.89,131.89,0,0,0,792,710.85,62.14,62.14,0,0,1,784.81,732c-1.91,3.11-4.22,5.94-6.25,9a24.72,24.72,0,0,0-4.33,9.95c-1,7.38,3,13.87,2.18,20.4a22.57,22.57,0,0,1-3.16,9.06c-1.59,2.79-3.45,5.38-5.22,8a50.87,50.87,0,0,0-4.68,8,25.21,25.21,0,0,0-2.14,8.74c-.43,5.89.39,11.48,0,16.75a38.47,38.47,0,0,1-4.31,14.34c-2.11,4.29-4.45,8.17-6.42,11.94-1,1.87-1.9,3.71-2.65,5.55a28.1,28.1,0,0,0-1.53,5.54,35,35,0,0,0-.13,10,25.12,25.12,0,0,0,5,12.7,12.79,12.79,0,0,0,1.41,1.53,7.18,7.18,0,0,0,1.15,1c.65.48,1,.7,1,.7a21.85,21.85,0,0,1-3.38-3.35,25.26,25.26,0,0,1-4.75-12.61,34.75,34.75,0,0,1,.23-9.82,26.74,26.74,0,0,1,1.54-5.39c.74-1.8,1.67-3.63,2.66-5.49,2-3.73,4.36-7.59,6.52-11.91a39.28,39.28,0,0,0,4.45-14.6c.46-5.38-.35-11,.09-16.74a24.72,24.72,0,0,1,2.11-8.45,50.49,50.49,0,0,1,4.63-7.91c1.77-2.58,3.65-5.18,5.28-8a23.54,23.54,0,0,0,3.33-9.43c.84-7-3.2-13.49-2.14-20.35a23.6,23.6,0,0,1,4.18-9.5c2-3,4.32-5.81,6.29-9a63.13,63.13,0,0,0,7.33-21.45,130.74,130.74,0,0,1,5.4-22.67,42,42,0,0,1,5.62-10.35,25.61,25.61,0,0,1,9-7.6l-.79-.45.08.71c.43,4.08,1.16,8.08,1.63,12.06a68.62,68.62,0,0,1,.46,11.9,56.68,56.68,0,0,1-.53,5.82,35.31,35.31,0,0,1-2,5.44,98.83,98.83,0,0,0-4.21,10.92,56,56,0,0,0-2,11.35q-.63,5.63-1.24,11.16a67,67,0,0,1-4.35,21c-1.47,3.16-3.43,6.08-4.88,9.27A26.85,26.85,0,0,0,793,779.71c-.4,6.73.5,13.32-1.33,19.29s-5.61,10.89-7.54,16.52a33.21,33.21,0,0,0-.37,16.8,39.1,39.1,0,0,1,.57,15,42.92,42.92,0,0,1-6.43,11.79A16.31,16.31,0,0,0,775.7,865a49.45,49.45,0,0,0-.36,5.71,18.08,18.08,0,0,1-.74,5.07,9.35,9.35,0,0,1-2.72,3.68,24,24,0,0,1-6.83,3.85,30.8,30.8,0,0,1-5.59,1.52,22.46,22.46,0,0,1-3.56.34C755.09,885.1,754.67,885.11,754.67,885.11Z" transform="translate(-484.17 -15.67)" style="fill:#e95815"/></g></g></g></g></g><g id="Group_3192" data-name="Group 3192"><g id="Group_3191" data-name="Group 3191"><g id="Group_3190" data-name="Group 3190"><g id="Group_3189" data-name="Group 3189"><g id="Group_3188" data-name="Group 3188"><path id="Path_2136" data-name="Path 2136" d="M809.82,679.52a1.87,1.87,0,0,0-.17.52l-.4,1.59c-.34,1.37-.75,3.45-1.41,6s-2.27,5.51-3.62,9.1a129.37,129.37,0,0,0-4.15,12.38c-1.33,4.65-2.51,9.82-3.75,15.36a64.37,64.37,0,0,1-5.58,17c-1.43,2.84-3,5.71-4.32,8.85a41.16,41.16,0,0,0-2.51,10,203.65,203.65,0,0,1-3.76,21.11c-3.51,14.31-6.83,27.93-9.87,40.33L762,854.74c-2.3,9.3-4.16,16.86-5.48,22.19-.61,2.56-1.08,4.58-1.43,6.05l-.35,1.59a2.43,2.43,0,0,0-.08.54,1.91,1.91,0,0,0,.19-.52l.46-1.55c.4-1.46.94-3.46,1.64-6,1.4-5.31,3.38-12.83,5.82-22.11s5.31-20.49,8.51-32.84l10-40.33a202.69,202.69,0,0,0,3.76-21.2,40,40,0,0,1,2.41-9.77c1.23-3.06,2.82-5.94,4.25-8.78a65.1,65.1,0,0,0,5.57-17.31c1.19-5.54,2.33-10.7,3.6-15.35s2.63-8.78,4-12.36,2.82-6.56,3.46-9.23.94-4.71,1.21-6.11l.28-1.58A2.08,2.08,0,0,0,809.82,679.52Z" transform="translate(-484.17 -15.67)" style="fill:#e95815"/></g></g></g></g></g></g><g id="Group_3203" data-name="Group 3203"><g id="Group_3197" data-name="Group 3197"><g id="Group_3196" data-name="Group 3196"><g id="Group_3195" data-name="Group 3195"><g id="Group_3194" data-name="Group 3194"><path id="Path_2137" data-name="Path 2137" d="M757.76,885.16c11.39-6.77,14.67-27.34,9.91-39.72s-13.08-23.69-14.36-36.89c-1-10.14,2.34-20.57,0-30.46-3.18-13.39-16.25-23.74-16.1-37.51.08-7.71,4.48-15,4.13-22.69-.43-9.46-7.69-17-12.19-25.29-6.88-12.76-7.34-27.84-9.69-42.14s-7.8-29.61-20.47-36.64c-1.88,12.14-5.07,20.46-4.07,36.9.36,5.91,7.22,17.22,8.15,30.16.57,7.74,1,15.49,1.42,23.23a74.43,74.43,0,0,0,3.65,22.25c2.07,5.41,5.39,10.32,6.93,15.89,2.89,10.49-.9,21.86,1.43,32.48,2,9,8.21,16.76,9.5,25.9,1.79,12.83-6.52,26.16-2.27,38.4,2.11,6.07,7.12,11,8.52,17.21,1.1,4.87-.1,10,.9,14.91,1.61,7.87,16.62,14,24.65,13.5" transform="translate(-484.17 -15.67)" style="fill:#e95815"/></g></g></g></g><g id="Group_3202" data-name="Group 3202"><g id="Group_3201" data-name="Group 3201"><g id="Group_3200" data-name="Group 3200"><g id="Group_3199" data-name="Group 3199"><g id="Group_3198" data-name="Group 3198"><path id="Path_2138" data-name="Path 2138" d="M702.1,625.87a2.21,2.21,0,0,0,0,.68l.25,2c.26,1.75.56,4.33,1.15,7.66s2.37,7.12,3.74,11.66,2.9,9.76,4.18,15.61,2.38,12.32,3.53,19.29a81,81,0,0,0,5.85,21.81c1.58,3.64,3.39,7.29,4.75,11.17a50.25,50.25,0,0,1,2.4,12.32,246.92,246.92,0,0,0,3.35,26.55c3.49,18,6.81,35.13,9.84,50.72,3.19,15.54,6.06,29.53,8.49,41.31s4.42,21.18,5.81,27.83c.7,3.22,1.24,5.75,1.64,7.55l.45,2a3,3,0,0,0,.2.66,3.94,3.94,0,0,0-.08-.68c-.09-.5-.21-1.16-.35-2-.34-1.8-.81-4.35-1.43-7.6-1.3-6.66-3.16-16.17-5.46-27.89l-8.25-41.36c-3-15.6-6.29-32.72-9.76-50.71A253,253,0,0,1,729.1,728a51.3,51.3,0,0,0-2.48-12.57c-1.39-4-3.21-7.63-4.81-11.24a80.66,80.66,0,0,1-5.87-21.55c-1.19-7-2.32-13.45-3.68-19.31s-2.84-11.09-4.35-15.63-3.23-8.31-3.91-11.56-1-5.87-1.35-7.59l-.37-2A3.67,3.67,0,0,0,702.1,625.87Z" transform="translate(-484.17 -15.67)" style="fill:#e95815"/></g></g></g></g></g></g></g><g id="Group_3327" data-name="Group 3327"><g id="Group_3282" data-name="Group 3282"><g id="Group_3215" data-name="Group 3215"><g id="Group_3214" data-name="Group 3214"><g id="Group_3213" data-name="Group 3213"><g id="Group_3212" data-name="Group 3212"><g id="Group_3211" data-name="Group 3211"><g id="Group_3210" data-name="Group 3210"><g id="Group_3209" data-name="Group 3209"><g id="Group_3208" data-name="Group 3208"><g id="Group_3207" data-name="Group 3207"><g id="Group_3206" data-name="Group 3206"><g id="Group_3205" data-name="Group 3205"><path id="Path_2139" data-name="Path 2139" d="M1055.8,884.63h-223a50.58,50.58,0,0,1-49.61-50l2.37-561.68a48.81,48.81,0,0,1,49-48.59h0l224,1a48.8,48.8,0,0,1,48.58,49l-2.38,561.68a48.79,48.79,0,0,1-49,48.58Z" transform="translate(-484.17 -15.67)" style="fill:#1c262a"/></g></g></g></g></g></g></g></g></g></g></g><g id="Group_3281" data-name="Group 3281"><g id="Group_3219" data-name="Group 3219"><g id="Group_3218" data-name="Group 3218"><g id="Group_3217" data-name="Group 3217"><g id="Group_3216" data-name="Group 3216"><path id="Path_2140" data-name="Path 2140" d="M1058.8,246.69l-43.44-.2a10.8,10.8,0,0,0-10.6,11l0,7.88a10.78,10.78,0,0,1-10.59,11h0l-84.68-.4A10.8,10.8,0,0,1,899,264.86l0-7.88a10.81,10.81,0,0,0-10.5-11.08l-15.28-.07-38-.18a34.2,34.2,0,0,0-34.34,34h0l-2.31,548.24a34.17,34.17,0,0,0,34,34.32l223.59,1a34.18,34.18,0,0,0,34.34-34v0L1092.82,281A34.17,34.17,0,0,0,1058.8,246.69Z" transform="translate(-484.17 -15.67)" style="fill:#f2f3f3"/></g></g></g></g><g id="Group_3275" data-name="Group 3275"><g id="Group_3220" data-name="Group 3220"><path id="Path_2141" data-name="Path 2141" d="M963.9,759.69c-.26,6.62-.5,12.82-.7,18h32.12L991.39,758Z" transform="translate(-484.17 -15.67)" style="fill:#f2f3f3"/></g><g id="Group_3221" data-name="Group 3221"><path id="Path_2142" data-name="Path 2142" d="M833.37,767.94l.28,9.73H960c.21-5.46.45-11.53.69-17.8Z" transform="translate(-484.17 -15.67)" style="fill:#f2f3f3"/></g><g id="Group_3222" data-name="Group 3222"><path id="Path_2143" data-name="Path 2143" d="M993,757.85l4,19.83h59.2l-.72-23.78Z" transform="translate(-484.17 -15.67)" style="fill:#f2f3f3"/></g><g id="Group_3223" data-name="Group 3223"><path id="Path_2144" data-name="Path 2144" d="M967.1,480.64l11.2-64.92L949,413.55v67.09Z" transform="translate(-484.17 -15.67)" style="fill:#f2f3f3"/></g><g id="Group_3224" data-name="Group 3224"><path id="Path_2145" data-name="Path 2145" d="M830.73,731.9,798.9,744.37l-.09,22.55,32.86-2.08Z" transform="translate(-484.17 -15.67)" style="fill:#f2f3f3"/></g><g id="Group_3225" data-name="Group 3225"><path id="Path_2146" data-name="Path 2146" d="M830.6,726.83l-1.74-60.46h0V645.05l-29.51,3.12-.39,91,31.65-12.4Z" transform="translate(-484.17 -15.67)" style="fill:#f2f3f3"/></g><g id="Group_3226" data-name="Group 3226"><path id="Path_2147" data-name="Path 2147" d="M828.82,597.45l-29.28-3.86-.21,49.76,29.49-3.13Z" transform="translate(-484.17 -15.67)" style="fill:#f2f3f3"/></g><g id="Group_3227" data-name="Group 3227"><path id="Path_2148" data-name="Path 2148" d="M1047,646l-1.23,17.33L1011.23,667l2.67,13.71,39.26-3-.59-19.66,3.13-13Z" transform="translate(-484.17 -15.67)" style="fill:#f2f3f3"/></g><g id="Group_3228" data-name="Group 3228"><path id="Path_2149" data-name="Path 2149" d="M984.72,682.92l27.58-2.08-6-30.78-24.07,2.43Z" transform="translate(-484.17 -15.67)" style="fill:#f2f3f3"/></g><g id="Group_3229" data-name="Group 3229"><path id="Path_2150" data-name="Path 2150" d="M985,686.11l2.11,25.66L990.83,747l1.54,7.7,63-4L1053.26,681Z" transform="translate(-484.17 -15.67)" style="fill:#f2f3f3"/></g><g id="Group_3230" data-name="Group 3230"><path id="Path_2151" data-name="Path 2151" d="M876.57,565l2.42,4.15-48.58,28.33v67.21L881.69,661l98.8-10L976.88,607,882.5,594.67l.63-4.75,93.37,12.2-6.16-74.58-92.42,8.89-.31-3.19,92.46-8.89-3.19-38.9H878l-78.06,14.2-.4,89.09,29.56,3.9ZM835.4,658.25s.36-55.42,0-57.49L875,579.67l5.14,75.74Z" transform="translate(-484.17 -15.67)" style="fill:#f2f3f3"/></g><g id="Group_3231" data-name="Group 3231"><path id="Path_2152" data-name="Path 2152" d="M1043.81,646.28l-35.91,3.62,2.72,14,32.19-3.47Z" transform="translate(-484.17 -15.67)" style="fill:#f2f3f3"/></g><g id="Group_3232" data-name="Group 3232"><path id="Path_2153" data-name="Path 2153" d="M964.36,747.81c-.11,2.91-.23,5.81-.33,8.66l26.73-1.69-1.38-6.9Z" transform="translate(-484.17 -15.67)" style="fill:#f2f3f3"/></g><g id="Group_3233" data-name="Group 3233"><path id="Path_2154" data-name="Path 2154" d="M906.78,480.63l4.71-21.36h35.88V413.41L835.16,405.1v43.06l-35,7.92L800,494.73l77.62-14.12Z" transform="translate(-484.17 -15.67)" style="fill:#f2f3f3"/></g><g id="Group_3234" data-name="Group 3234"><path id="Path_2155" data-name="Path 2155" d="M981.66,353l-1-3.92,42.85-17L995.69,276.2a11.43,11.43,0,0,1-1.54.13l-47.35-.23,1.29,78.31Z" transform="translate(-484.17 -15.67)" style="fill:#f2f3f3"/></g><g id="Group_3235" data-name="Group 3235"><path id="Path_2156" data-name="Path 2156" d="M1046.59,323l0-76.39-31.19-.14a10.78,10.78,0,0,0-10.59,11l0,7.85a11.12,11.12,0,0,1-4.58,9l27.89,56Z" transform="translate(-484.17 -15.67)" style="fill:#f2f3f3"/></g><g id="Group_3236" data-name="Group 3236"><path id="Path_2157" data-name="Path 2157" d="M885.5,326.31l-3.61-80.43-8.68,0-33.89-.16-14.44,71.93ZM877.78,254l1.16,65.5-45.05-6.59L843.75,254Z" transform="translate(-484.17 -15.67)" style="fill:#f2f3f3"/></g><g id="Group_3237" data-name="Group 3237"><path id="Path_2158" data-name="Path 2158" d="M887.15,326.54v.69c.07,6.28.21,17.58.3,29.68l59-2.41-1.29-78.38-35.71-.18A10.79,10.79,0,0,1,899,264.86l0-7.87a10.8,10.8,0,0,0-10.5-11.08l-5,0,3.62,80.66Z" transform="translate(-484.17 -15.67)" style="fill:#f2f3f3"/></g><g id="Group_3238" data-name="Group 3238"><path id="Path_2159" data-name="Path 2159" d="M820.12,316.92l14.3-71.22a34.17,34.17,0,0,0-33.56,34l-.14,35.51.14-1Z" transform="translate(-484.17 -15.67)" style="fill:#f2f3f3"/></g><g id="Group_3239" data-name="Group 3239"><path id="Path_2160" data-name="Path 2160" d="M830.34,404.76l-30-2.22-.19,48.63,30.22-6.83Z" transform="translate(-484.17 -15.67)" style="fill:#f2f3f3"/></g><g id="Group_3240" data-name="Group 3240"><path id="Path_2161" data-name="Path 2161" d="M819.81,318.5l-19.09-2.75-.34,78.74,4.12.3Z" transform="translate(-484.17 -15.67)" style="fill:#f2f3f3"/></g><g id="Group_3241" data-name="Group 3241"><path id="Path_2162" data-name="Path 2162" d="M880.43,725.92l.51-63.23-50.5,3.57,1.79,61.94Z" transform="translate(-484.17 -15.67)" style="fill:#f2f3f3"/></g><g id="Group_3242" data-name="Group 3242"><path id="Path_2163" data-name="Path 2163" d="M889.71,711.33l71.52,34.25c.85-22.38,1.61-43.32,1.54-44.65l1.55-.08.76-1.51c1,.51,1,.51.48,15.77-.3,8.51-.72,19.84-1.15,31.18h24.73l-3.65-34.36-4.87-59.27-93.44,9.43Z" transform="translate(-484.17 -15.67)" style="fill:#f2f3f3"/></g><g id="Group_3243" data-name="Group 3243"><path id="Path_2164" data-name="Path 2164" d="M1065,606.39l-.8-8.34L978.47,607l3.61,43.92,74-7.47Z" transform="translate(-484.17 -15.67)" style="fill:#f2f3f3"/></g><g id="Group_3244" data-name="Group 3244"><path id="Path_2165" data-name="Path 2165" d="M947.38,464.1h-32l-3.66,16.54h35.68Z" transform="translate(-484.17 -15.67)" style="fill:#f2f3f3"/></g><g id="Group_3245" data-name="Group 3245"><path id="Path_2166" data-name="Path 2166" d="M1051.78,469.68l-80.2-5.54-3.27,18.95,3.38,41.11,84.57-8.13ZM974.53,483l4.31-12,69.63,4.4,4,34.21-75.63,9Z" transform="translate(-484.17 -15.67)" style="fill:#f2f3f3"/></g><g id="Group_3246" data-name="Group 3246"><path id="Path_2167" data-name="Path 2167" d="M1060.1,555.6l-3.52-36.37L972,527.37l3.17,38.7Z" transform="translate(-484.17 -15.67)" style="fill:#f2f3f3"/></g><g id="Group_3247" data-name="Group 3247"><path id="Path_2168" data-name="Path 2168" d="M831.76,768.05l-32.84,2.07-.13-2.13,0,9.69H832Z" transform="translate(-484.17 -15.67)" style="fill:#f2f3f3"/></g><g id="Group_3248" data-name="Group 3248"><path id="Path_2169" data-name="Path 2169" d="M1092.23,305l.48,1.22.1-25.18a34.17,34.17,0,0,0-34-34.32l-10.65-.05,0,75.76Z" transform="translate(-484.17 -15.67)" style="fill:#f2f3f3"/></g><g id="Group_3249" data-name="Group 3249"><path id="Path_2170" data-name="Path 2170" d="M961.15,747.33l-73-35-2.57-50.11-3.07.31L882,727.44l-49.75,2.37,0,1.45v0h0l1,33.45,127.54-8.06C960.93,753.57,961.05,750.44,961.15,747.33Zm-125.77-13.4L905,729l45.31,21-114.94,6.22Z" transform="translate(-484.17 -15.67)" style="fill:#f2f3f3"/></g><g id="Group_3250" data-name="Group 3250"><path id="Path_2171" data-name="Path 2171" d="M1071.48,389.11l3-17.72c-26.17-9.34-28-36.63-27.91-44.9l-17.09,6.76,25.72,51.65Z" transform="translate(-484.17 -15.67)" style="fill:#f2f3f3"/></g><g id="Group_3251" data-name="Group 3251"><path id="Path_2172" data-name="Path 2172" d="M978.09,602.18l35.61-3.7-7-31.43-31.15,3.83Z" transform="translate(-484.17 -15.67)" style="fill:#f2f3f3"/></g><g id="Group_3252" data-name="Group 3252"><path id="Path_2173" data-name="Path 2173" d="M1051.9,416.26H985.43l-5.52-.4-7.52,43.53,78.91,5.46-1.83-18.93,7.76-28Z" transform="translate(-484.17 -15.67)" style="fill:#f2f3f3"/></g><g id="Group_3253" data-name="Group 3253"><path id="Path_2174" data-name="Path 2174" d="M1050.27,408.25l.84-20.78L1025,335l-40.5,16,13.92,57.19Zm-26.87-66.84L1047.34,387l-3.45,14.2-41-1.54-10.24-43.08Z" transform="translate(-484.17 -15.67)" style="fill:#f2f3f3"/></g><g id="Group_3254" data-name="Group 3254"><path id="Path_2175" data-name="Path 2175" d="M1060.6,658.93l1.23,40.81,28.8-1.62.09,1.58-28.85,1.62,1.47,48.85,27.23-1.72.2,3.19-27.33,1.73.73,24.29h26.53l.58-136.19-27.14,2.74Z" transform="translate(-484.17 -15.67)" style="fill:#f2f3f3"/></g><g id="Group_3255" data-name="Group 3255"><path id="Path_2176" data-name="Path 2176" d="M885.57,327.93l-61-8.75-15.25,76,76.51,5.67C886.14,389.14,885.87,353.25,885.57,327.93Z" transform="translate(-484.17 -15.67)" style="fill:#f2f3f3"/></g><g id="Group_3256" data-name="Group 3256"><path id="Path_2177" data-name="Path 2177" d="M985.87,408.25h9.23L982,354.62,948.1,356l.82,49.5Z" transform="translate(-484.17 -15.67)" style="fill:#f2f3f3"/></g><g id="Group_3257" data-name="Group 3257"><path id="Path_2178" data-name="Path 2178" d="M798.59,816.69l0,11.24c0,.35,0,.68,0,1Z" transform="translate(-484.17 -15.67)" style="fill:#f2f3f3"/></g><g id="Group_3258" data-name="Group 3258"><path id="Path_2179" data-name="Path 2179" d="M887.39,401l59.92,4.44-.81-49.31-59,2.41C887.59,375.17,887.64,393,887.39,401Z" transform="translate(-484.17 -15.67)" style="fill:#f2f3f3"/></g><g id="Group_3259" data-name="Group 3259"><path id="Path_2180" data-name="Path 2180" d="M1060.56,560.41l-52.3,6.44,7,31.46,48.45-5Z" transform="translate(-484.17 -15.67)" style="fill:#f2f3f3"/></g><g id="Group_3260" data-name="Group 3260"><path id="Path_2181" data-name="Path 2181" d="M1074.74,369.79l3.34-19.88,14.44,1.12.18-42.8-44.52,17.62C1047.25,356,1066.19,366.56,1074.74,369.79Z" transform="translate(-484.17 -15.67)" style="fill:#f2f3f3"/></g><g id="Group_3261" data-name="Group 3261"><path id="Path_2182" data-name="Path 2182" d="M1057.59,446.61l1.82,18.78,32.62,2.25.16-38.66-27.3-8.63Z" transform="translate(-484.17 -15.67)" style="fill:#f2f3f3"/></g><g id="Group_3262" data-name="Group 3262"><path id="Path_2183" data-name="Path 2183" d="M1073.11,607l-8.56,35.61,26.75-2.7.16-37.36c-8.21-2.16-15.37-3.92-19.22-4.66Z" transform="translate(-484.17 -15.67)" style="fill:#f2f3f3"/></g><g id="Group_3263" data-name="Group 3263"><path id="Path_2184" data-name="Path 2184" d="M1055.06,408.85l37.17,11.74.09-21.14-36.5-9.43Z" transform="translate(-484.17 -15.67)" style="fill:#f2f3f3"/></g><g id="Group_3264" data-name="Group 3264"><path id="Path_2185" data-name="Path 2185" d="M1071.75,593c3,.46,8.67,1.66,19.72,4.56l.34-81.67-27.27,2.62Z" transform="translate(-484.17 -15.67)" style="fill:#f2f3f3"/></g><g id="Group_3265" data-name="Group 3265"><path id="Path_2186" data-name="Path 2186" d="M1064.24,515.3l27.6-2.66.17-40.18-32.13-2.22Z" transform="translate(-484.17 -15.67)" style="fill:#f2f3f3"/></g><g id="Group_3266" data-name="Group 3266"><path id="Path_2187" data-name="Path 2187" d="M1077.82,370.8q7.83,2.37,14.6,3.73l.09-20.28-11.75-.92Z" transform="translate(-484.17 -15.67)" style="fill:#f2f3f3"/></g><g id="Group_3267" data-name="Group 3267"><path id="Path_2188" data-name="Path 2188" d="M1074.59,389.91l17.75,4.58.08-18.32q-6.9-1.37-14.87-3.78Z" transform="translate(-484.17 -15.67)" style="fill:#f2f3f3"/></g><g id="Group_3268" data-name="Group 3268"><path id="Path_2189" data-name="Path 2189" d="M1090.79,751.66l-.2-3.2-27.23,1.72-1.47-48.84,28.84-1.63-.09-1.58-28.8,1.62-1.22-40.81,3.53-14.7,27.14-2.75v-1.6l-26.75,2.7,8.57-35.61-.88-9.1c3.84.74,11,2.5,19.22,4.66l0-5c-11-2.9-16.72-4.1-19.72-4.55l-7.21-74.49,27.27-2.62v-3.22l-27.59,2.65-4.36-45,32.14,2.22,0-4.82-32.62-2.26-1.82-18.77,7.3-26.26,27.3,8.63,0-8.39-37.16-11.74.75-18.82,36.5,9.43v-5l-17.74-4.58,3-17.52q8,2.41,14.87,3.77v-1.64q-6.75-1.35-14.6-3.72l2.94-17.47,11.75.91v-3.21L1078,349.93l-3.35,19.88c-8.55-3.23-27.47-13.82-26.56-43.94l44.53-17.61v-2l-.49-1.23-44,17.41-.05-75.75h-1.58l0,76.39L1028,330.39l-27.89-56a10.18,10.18,0,0,1-4.47,1.81l27.87,56L980.7,349.11l1,3.93-33.58,1.37-1.29-78.31h-1.58l1.28,78.38-59,2.41c-.09-12.08-.22-23.38-.3-29.67v-.69h0l-3.62-80.66h-1.61l3.61,80.43-60.62-8.7,14.44-71.93h-4.12c-.27,0-.52,0-.79,0l-14.3,71.22-19.26-2.77-.15,1.05v.55l19.1,2.74-15.35,76.32-4.11-.3,0,8,30,2.22v39.56l-30.22,6.84,0,4.94,35-7.91V405.12l112.21,8.31v45.85H911.49l-4.72,21.37h-29.2L800,494.77l0,4.9L878,485.46H966.9l3.19,38.9-92.46,8.89.3,3.19,92.42-8.89,6.12,74.56L883.1,589.92l-.63,4.74L976.87,607l3.62,44-98.81,10-51.28,3.63v-67.2L879,569.12,876.56,565,829.1,592.66l-29.56-3.9v4.85l29.28,3.86v42.77l-29.49,3.12,0,4.84,29.51-3.13v21.32h0l1.74,60.46v0l-31.65,12.39v5.17l31.82-12.46,1,32.93-32.87,2.08V768l.13,2.14,32.84-2.08.27,9.63h1.61L833.4,768l127.32-8.06c-.24,6.26-.48,12.33-.69,17.81h3.2c.2-5.14.44-11.37.7-18L991.42,758l3.94,19.73H997l-4-19.83,62.45-4,.72,23.78h8M964.05,756.49c.11-2.84.23-5.74.34-8.65l25,.06,1.38,6.9Zm28.35-1.79L990.86,747l-3.74-35.21L985,686.11l68.28-5.14,2.09,69.72Zm15.53-104.77,35.91-3.63-1,14.1-32.19,3.48Zm-1.59.16,6,30.77-27.57,2.08-2.51-30.43Zm46.88,27.69-39.26,3L1011.28,667l34.58-3.73L1047.1,646l8.61-.91-3.13,13Zm-46.5-110.71,7,31.43-35.61,3.71-2.57-31.3Zm8.62,31.26-7-31.47,52.29-6.44,3.16,32.87Zm36-133.49-78.9-5.45L980,415.86l5.52.4H1052l5.33,1.69-7.76,27.95Zm-4.75-138.33c-.07,8.26,1.74,35.56,27.91,44.9l-3,17.71-16.29-4.21-25.71-51.64ZM1025,335.05l26.11,52.44-.83,20.78H998.4l-13.93-57.19Zm-42.94,19.59,13,53.63h-9.22l-37-2.74-.81-49.5Zm-35.55,1.46.82,49.31-60-4.47c.24-8,.2-25.78.07-42.46ZM824.61,319.2l61,8.76c.3,25.32.57,61.2.27,72.9l-76.51-5.67Zm153.73,96.55-11.2,64.91H949V413.55Zm-63,48.37h32v16.54H911.69Zm53,19,3.27-18.95,80.19,5.54,4.49,46.39-84.57,8.13Zm88.26,36.18,3.52,36.36-85,10.47L972,527.42ZM978.52,607l85.72-8.91.79,8.34-8.91,37-74,7.47Zm7,105,3.66,34.35H964.45c.44-11.33.86-22.66,1.16-31.17.53-15.27.53-15.27-.49-15.78l-.76,1.52-1.54.07c.07,1.34-.7,22.28-1.55,44.66l-71.51-34.25-2.53-49.24,93.44-9.43ZM881,662.72l-.51,63.22-48.21,2.29-1.78-61.94Zm-48.67,68.56h0v0l0-1.44L882,727.43l.51-64.89,3.06-.3,2.57,50.11,73,35c-.11,3.11-.24,6.24-.36,9.35l-127.53,8.06Z" transform="translate(-484.17 -15.67)" style="fill:#fff"/></g><g id="Group_3269" data-name="Group 3269"><path id="Path_2190" data-name="Path 2190" d="M905,729l-69.63,4.89v22.35l114.94-6.22Z" transform="translate(-484.17 -15.67)" style="fill:#e6e6e6"/></g><g id="Group_3270" data-name="Group 3270"><path id="Path_2191" data-name="Path 2191" d="M1048.49,475.49l-69.64-4.4-4.3,12,2.37,35.61,75.63-9Z" transform="translate(-484.17 -15.67)" style="fill:#e6e6e6"/></g><g id="Group_3271" data-name="Group 3271"><path id="Path_2192" data-name="Path 2192" d="M798.76,756.47l-.17,60.22V829a34.16,34.16,0,0,0,34,33.3l223.59,1a34.17,34.17,0,0,0,34.34-34h0l.21-72.81Z" transform="translate(-484.17 -15.67)" style="fill:#e6e6e6"/></g><g id="Group_3272" data-name="Group 3272"><path id="Path_2193" data-name="Path 2193" d="M878.94,319.53,877.79,254h-34l-9.86,58.91Z" transform="translate(-484.17 -15.67)" style="fill:#e6e6e6"/></g><g id="Group_3273" data-name="Group 3273"><path id="Path_2194" data-name="Path 2194" d="M1043.88,401.15l3.46-14.2-23.94-45.54-30.72,15.12,10.24,43.07Z" transform="translate(-484.17 -15.67)" style="fill:#e6e6e6"/></g><g id="Group_3274" data-name="Group 3274"><path id="Path_2195" data-name="Path 2195" d="M835.4,600.74c.36,2.07,0,57.49,0,57.49l44.77-2.83L875,579.65Z" transform="translate(-484.17 -15.67)" style="fill:#e6e6e6"/></g></g><g id="Group_3276" data-name="Group 3276"><path id="Path_2196" data-name="Path 2196" d="M984.74,645.76l-2.38-34.35,76.8-9.87v5.94l-9.29,31.58Z" transform="translate(-484.17 -15.67)" style="fill:#e6e6e6"/></g><g id="Group_3280" data-name="Group 3280"><g id="Group_3279" data-name="Group 3279"><g id="Group_3278" data-name="Group 3278"><g id="Group_3277" data-name="Group 3277"><path id="Path_2197" data-name="Path 2197" d="M1056.33,733.26l-1-22.4-67.5,3.28a10.16,10.16,0,0,1-5.11-1.08L887,664.7a6.94,6.94,0,0,1-3.8-5.83l-13-252.77a4.23,4.23,0,0,1,1.26-3.23,4.28,4.28,0,0,1,3.27-1.19l41,3V359.85h4.8v45.5a4.24,4.24,0,0,1-4.23,4.23H916l-41-3,13,252.1a2.15,2.15,0,0,0,1.17,1.8l95.75,48.36a5.5,5.5,0,0,0,2.7.57l68.06-3.31a4.25,4.25,0,0,1,4.45,4v0l1,22.95Z" transform="translate(-484.17 -15.67)" style="fill:#fff"/></g></g></g></g></g></g><g id="Group_3286" data-name="Group 3286"><g id="Group_3283" data-name="Group 3283"><path id="Path_2198" data-name="Path 2198" d="M1036.49,332.38a9.35,9.35,0,1,1-9.35-9.35,9.35,9.35,0,0,1,9.35,9.35Z" transform="translate(-484.17 -15.67)" style="fill:#de3848"/></g><g id="Group_3284" data-name="Group 3284" style="opacity:0.6000000238418579"><circle id="Ellipse_532" data-name="Ellipse 532" cx="542.98" cy="316.7" r="9.35" style="fill:#fff"/></g><g id="Group_3285" data-name="Group 3285"><path id="Path_2199" data-name="Path 2199" d="M1033.35,332.05a6.22,6.22,0,1,1-6.22-6.22h0A6.23,6.23,0,0,1,1033.35,332.05Z" transform="translate(-484.17 -15.67)" style="fill:#de3848"/></g></g><g id="Group_3287" data-name="Group 3287"><path id="Path_2200" data-name="Path 2200" d="M1058.36,736.7l-1.16-26.26a1.39,1.39,0,0,0-.47-1,1.36,1.36,0,0,0-1-.37l-70.49,3.66L976.73,606,966.11,483v-.11l12-65.68a5.21,5.21,0,0,1,5.11-4.27l63.66-.2a4.55,4.55,0,0,0,4.54-4.27l1.09-17.66a13.09,13.09,0,0,0-1.27-6.54l-24.85-51.88,1.44-.69,24.87,51.88a14.89,14.89,0,0,1,1.44,7.34l-1.1,17.66a6.16,6.16,0,0,1-6.13,5.77l-63.67.2a3.6,3.6,0,0,0-3.54,3l-12,65.57,10.6,122.74,8.36,105.25,68.93-3.56a3,3,0,0,1,2.19.79,3,3,0,0,1,1,2.1l1.16,26.26Z" transform="translate(-484.17 -15.67)" style="fill:#de3848"/></g><g id="Group_3288" data-name="Group 3288"><path id="Path_2201" data-name="Path 2201" d="M1062.72,734.54a4,4,0,1,1-4-4A4,4,0,0,1,1062.72,734.54Z" transform="translate(-484.17 -15.67)" style="fill:#de3848"/></g><g id="Group_3291" data-name="Group 3291"><g id="Group_3289" data-name="Group 3289"><path id="Path_2202" data-name="Path 2202" d="M985.63,660.64a3.76,3.76,0,1,1-4-3.5,3.76,3.76,0,0,1,4,3.5Z" transform="translate(-484.17 -15.67)" style="fill:#de3848"/></g><g id="Group_3290" data-name="Group 3290"><path id="Path_2203" data-name="Path 2203" d="M982.22,663.81a6.78,6.78,0,0,0-6.29,7.22l13.51-.92A6.77,6.77,0,0,0,982.22,663.81Z" transform="translate(-484.17 -15.67)" style="fill:#de3848"/></g></g><g id="Group_3297" data-name="Group 3297"><g id="Group_3293" data-name="Group 3293"><g id="Group_3292" data-name="Group 3292"><path id="Path_2204" data-name="Path 2204" d="M1035.61,620.82h-33.27a5.07,5.07,0,0,0-5.08,5.07h0v20.89a5.07,5.07,0,0,0,5.07,5.08h.68v5l5.78-5h26.82a5.07,5.07,0,0,0,5.08-5.07h0V625.89a5.07,5.07,0,0,0-5.07-5.07Z" transform="translate(-484.17 -15.67)" style="fill:#de3848"/></g></g><g id="Group_3295" data-name="Group 3295" style="opacity:0.4000000059604645"><g id="Group_3294" data-name="Group 3294"><path id="Path_2205" data-name="Path 2205" d="M1035.61,620.82h-33.27a5.07,5.07,0,0,0-5.08,5.07h0v20.89a5.07,5.07,0,0,0,5.07,5.08h.68v5l5.78-5h26.82a5.07,5.07,0,0,0,5.08-5.07h0V625.89a5.07,5.07,0,0,0-5.07-5.07Z" transform="translate(-484.17 -15.67)" style="fill:#fff"/></g></g><g id="Group_3296" data-name="Group 3296"><path id="Path_2206" data-name="Path 2206" d="M1012.9,637.19v2.73h-1.12v-2.77l-3.14-5.14h1.21l2.53,4.16,2.54-4.16H1016Z" transform="translate(-484.17 -15.67)" style="fill:#fff"/><path id="Path_2207" data-name="Path 2207" d="M1015.8,636.92A3.11,3.11,0,1,1,1019,640h-.05a3,3,0,0,1-3.11-2.84A.88.88,0,0,1,1015.8,636.92Zm5.14,0a2,2,0,1,0-2,2.12,2,2,0,0,0,2-2v-.16Z" transform="translate(-484.17 -15.67)" style="fill:#fff"/><path id="Path_2208" data-name="Path 2208" d="M1029.09,633.93v6h-1V639a2.4,2.4,0,0,1-2,1,2.35,2.35,0,0,1-2.57-2.1,2.09,2.09,0,0,1,0-.5v-3.45h1.09v3.32c0,1.19.59,1.76,1.61,1.76a1.75,1.75,0,0,0,1.86-1.65,1.13,1.13,0,0,0,0-.32v-3.1Z" transform="translate(-484.17 -15.67)" style="fill:#fff"/></g></g><g id="Group_3308" data-name="Group 3308"><g id="Group_3299" data-name="Group 3299"><g id="Group_3298" data-name="Group 3298"><ellipse id="Ellipse_533" data-name="Ellipse 533" cx="354.21" cy="769.36" rx="0.42" ry="2.41" style="fill:#1c262a"/></g></g><g id="Group_3301" data-name="Group 3301"><g id="Group_3300" data-name="Group 3300"><ellipse id="Ellipse_534" data-name="Ellipse 534" cx="354.21" cy="778.97" rx="0.42" ry="2.41" style="fill:#1c262a"/></g></g><g id="Group_3303" data-name="Group 3303"><g id="Group_3302" data-name="Group 3302"><ellipse id="Ellipse_535" data-name="Ellipse 535" cx="354.21" cy="788.59" rx="0.42" ry="2.41" style="fill:#1c262a"/></g></g><g id="Group_3305" data-name="Group 3305"><g id="Group_3304" data-name="Group 3304"><ellipse id="Ellipse_536" data-name="Ellipse 536" cx="354.21" cy="798.2" rx="0.42" ry="2.41" style="fill:#1c262a"/></g></g><g id="Group_3307" data-name="Group 3307"><g id="Group_3306" data-name="Group 3306"><ellipse id="Ellipse_537" data-name="Ellipse 537" cx="354.21" cy="807.14" rx="0.42" ry="1.73" style="fill:#1c262a"/></g></g></g><g id="Group_3317" data-name="Group 3317"><g id="Group_3310" data-name="Group 3310"><g id="Group_3309" data-name="Group 3309"><path id="Path_2209" data-name="Path 2209" d="M845.19,832.77a6.81,6.81,0,1,0-12.67,3.44h0l0,0c.26.44.59.75.91,1.21l4,5.24a1.22,1.22,0,0,0,1.71.26,1.33,1.33,0,0,0,.27-.26l3.89-5.14c.35-.42.68-.86,1-1.31h0A6.82,6.82,0,0,0,845.19,832.77Zm-6.81,3a3,3,0,1,1,3-3A3,3,0,0,1,838.38,835.73Z" transform="translate(-484.17 -15.67)" style="fill:#344952"/></g></g><g id="Group_3312" data-name="Group 3312"><g id="Group_3311" data-name="Group 3311"><path id="Path_2210" data-name="Path 2210" d="M1011.24,835.74c0,.23-34.54.41-77.16.41s-77.15-.19-77.15-.41,34.54-.42,77.15-.42S1011.24,835.51,1011.24,835.74Z" transform="translate(-484.17 -15.67)" style="fill:#1c262a"/></g></g><g id="Group_3314" data-name="Group 3314"><g id="Group_3313" data-name="Group 3313"><path id="Path_2211" data-name="Path 2211" d="M950.34,829c0,.24-20.93.42-46.74.42s-46.75-.18-46.75-.42,20.93-.39,46.75-.39S950.34,828.74,950.34,829Z" transform="translate(-484.17 -15.67)" style="fill:#de3848"/></g></g><g id="Group_3316" data-name="Group 3316"><g id="Group_3315" data-name="Group 3315"><path id="Path_2212" data-name="Path 2212" d="M882.16,843.39a181.93,181.93,0,0,1-24.71,0,181.93,181.93,0,0,1,24.71,0Z" transform="translate(-484.17 -15.67)" style="fill:#1c262a"/></g></g></g><g id="Group_3326" data-name="Group 3326"><g id="Group_3319" data-name="Group 3319"><g id="Group_3318" data-name="Group 3318"><path id="Path_2213" data-name="Path 2213" d="M845.19,779.66a6.81,6.81,0,1,0-12.67,3.44h0l0,0c.26.44.59.75.91,1.21l4,5.24a1.23,1.23,0,0,0,1.72.26,1.6,1.6,0,0,0,.26-.26l3.89-5.14c.35-.42.68-.86,1-1.31h0A6.82,6.82,0,0,0,845.19,779.66Zm-6.81,3a3,3,0,1,1,3-3h0A3,3,0,0,1,838.38,782.63Z" transform="translate(-484.17 -15.67)" style="fill:#de3848"/></g></g><g id="Group_3321" data-name="Group 3321"><g id="Group_3320" data-name="Group 3320"><path id="Path_2214" data-name="Path 2214" d="M1043.81,782.63c0,.23-41.83.41-93.42.41s-93.44-.19-93.44-.41,41.83-.42,93.44-.42S1043.81,782.39,1043.81,782.63Z" transform="translate(-484.17 -15.67)" style="fill:#1c262a"/></g></g><g id="Group_3323" data-name="Group 3323"><g id="Group_3322" data-name="Group 3322"><path id="Path_2215" data-name="Path 2215" d="M989.15,775.86c0,.23-29.62.41-66.15.41s-66.16-.19-66.16-.41,29.61-.42,66.15-.42S989.15,775.63,989.15,775.86Z" transform="translate(-484.17 -15.67)" style="fill:#de3848"/></g></g><g id="Group_3325" data-name="Group 3325"><g id="Group_3324" data-name="Group 3324"><path id="Path_2216" data-name="Path 2216" d="M929.94,790.28c0,.23-16.22.41-36.25.41s-36.24-.19-36.24-.41,16.22-.42,36.24-.42S929.94,790.05,929.94,790.28Z" transform="translate(-484.17 -15.67)" style="fill:#1c262a"/></g></g></g></g><g id="Group_3333" data-name="Group 3333"><g id="Group_3332" data-name="Group 3332"><g id="Group_3331" data-name="Group 3331"><g id="Group_3328" data-name="Group 3328"><path id="Path_2217" data-name="Path 2217" d="M1311.31,397.79l-7.3-16.27a41.56,41.56,0,1,1,14.81-1.48h0Z" transform="translate(-484.17 -15.67)" style="fill:#fff"/></g><g id="Group_3330" data-name="Group 3330"><g id="Group_3329" data-name="Group 3329"><path id="Path_2218" data-name="Path 2218" d="M1311.31,397.79c.55-1.35,2.77-6.71,7.34-17.81l.2.29h0l-1.62,0,1.55-.45a41.23,41.23,0,0,0,18.3-11.08,37.4,37.4,0,0,0,4.08-5c.6-.94,1.25-1.88,1.84-2.86l1.62-3.11A41,41,0,0,0,1325,303.17c-.74-.34-1.48-.67-2.23-1a40.3,40.3,0,0,0-18.71-2.87,41,41,0,0,0-18.36,6,41.56,41.56,0,0,0-13.11,13.08,40.29,40.29,0,0,0-6,16.48,41.6,41.6,0,0,0,7.7,29.82,44.22,44.22,0,0,0,9.66,9.36,41.14,41.14,0,0,0,20,7.24h.12l0,.11,7.12,16.35-7.48-16.19.16.13a41.46,41.46,0,0,1-20.31-7.17,44.84,44.84,0,0,1-9.85-9.45,42.2,42.2,0,0,1-7.94-30.31,41.17,41.17,0,0,1,6-16.8,42.36,42.36,0,0,1,13.35-13.36,41.87,41.87,0,0,1,18.73-6.17,41.15,41.15,0,0,1,19.09,2.94A42.29,42.29,0,0,1,1338.33,312a41.35,41.35,0,0,1,8.8,15.19,42,42,0,0,1-1.94,30.87l-1.66,3.16c-.6,1-1.27,1.94-1.89,2.89a37.82,37.82,0,0,1-4.17,5.11,41.48,41.48,0,0,1-18.59,11.08l-.06-.4h.34l-.13.3Z" transform="translate(-484.17 -15.67)" style="fill:#1c262a"/></g></g></g></g></g><g id="Group_3335" data-name="Group 3335"><g id="Group_3334" data-name="Group 3334"><path id="Path_2219" data-name="Path 2219" d="M1325,338.63a15.6,15.6,0,1,0-29,7.88h0l0,.06c.6,1,1.35,1.73,2.11,2.77l9.06,12a2.81,2.81,0,0,0,3.94.55,2.39,2.39,0,0,0,.55-.55l8.9-11.77a33.39,33.39,0,0,0,2.27-3l0,0h0A15.51,15.51,0,0,0,1325,338.63Zm-15.6,6.79a6.87,6.87,0,1,1,6.86-6.87A6.87,6.87,0,0,1,1309.37,345.42Z" transform="translate(-484.17 -15.67)" style="fill:#e95815"/></g></g><g id="Group_3490" data-name="Group 3490"><g id="Group_3483" data-name="Group 3483"><g id="Group_3339" data-name="Group 3339"><g id="Group_3338" data-name="Group 3338"><g id="Group_3337" data-name="Group 3337"><g id="Group_3336" data-name="Group 3336"><path id="Path_2220" data-name="Path 2220" d="M1194.38,321.8a14.45,14.45,0,0,1,10.68-9.76,17.25,17.25,0,0,1,15.74,2.55,35.35,35.35,0,0,0,8.75,6.73c5.76,2,12.51-2.31,18,.28a7.86,7.86,0,0,1-3.71,15,7,7,0,0,1,3.14,9.34,5.73,5.73,0,0,1-.41.73,10.49,10.49,0,0,1-10.64,3.88,22.15,22.15,0,0,1-10.33-5.79c-3-2.68-5.64-5.7-8.82-8.13a17.2,17.2,0,0,0-11-4.05,15.74,15.74,0,0,0-12.46,9.22,40.25,40.25,0,0,0-3.26,15.79,67,67,0,0,1-2,16.08c-.19.6-.48,1.28-1.08,1.47-.88.27-1.63-.66-2.06-1.47a79.59,79.59,0,0,1-9.09-29.54,24.66,24.66,0,0,1,2.85-16.71c3.29-5,11.61-8.76,15.7-5.57" transform="translate(-484.17 -15.67)" style="fill:#1c262a"/></g></g></g></g><g id="Group_3454" data-name="Group 3454"><g id="Group_3453" data-name="Group 3453"><g id="Group_3452" data-name="Group 3452"><g id="Group_3364" data-name="Group 3364"><g id="Group_3363" data-name="Group 3363"><g id="Group_3362" data-name="Group 3362"><g id="Group_3350" data-name="Group 3350"><g id="Group_3349" data-name="Group 3349"><g id="Group_3348" data-name="Group 3348"><g id="Group_3347" data-name="Group 3347"><g id="Group_3346" data-name="Group 3346"><g id="Group_3345" data-name="Group 3345"><g id="Group_3344" data-name="Group 3344"><g id="Group_3343" data-name="Group 3343"><g id="Group_3342" data-name="Group 3342"><g id="Group_3341" data-name="Group 3341"><g id="Group_3340" data-name="Group 3340"><path id="Path_2221" data-name="Path 2221" d="M1183.93,346.9l-2.77,60.65c-.47,10.32.94,25.56,17.29,25.56h0c14.17-1.07,18.37-14.32,18.8-23.94.2-4.57.39-8.38.43-8.85,0,0,15.51-.75,17.32-16,.87-7.36,1.44-22.67,1.8-36.52a28.58,28.58,0,0,0-25.55-29.13l-1.47-.16C1193.82,317.78,1184.25,330.91,1183.93,346.9Z" transform="translate(-484.17 -15.67)" style="fill:#fbad8b"/></g></g></g></g></g></g></g></g></g></g></g><g id="Group_3361" data-name="Group 3361"><g id="Group_3360" data-name="Group 3360"><g id="Group_3359" data-name="Group 3359"><g id="Group_3358" data-name="Group 3358"><g id="Group_3357" data-name="Group 3357"><g id="Group_3356" data-name="Group 3356"><g id="Group_3355" data-name="Group 3355"><g id="Group_3354" data-name="Group 3354"><g id="Group_3353" data-name="Group 3353"><g id="Group_3352" data-name="Group 3352"><g id="Group_3351" data-name="Group 3351"><path id="Path_2222" data-name="Path 2222" d="M1217.73,400.11a35.68,35.68,0,0,1-19.28-7.76s3.54,11.47,18.9,11.72Z" transform="translate(-484.17 -15.67)" style="fill:#e8845a"/></g></g></g></g></g></g></g></g></g></g></g></g></g></g><g id="Group_3451" data-name="Group 3451"><g id="Group_3450" data-name="Group 3450"><g id="Group_3427" data-name="Group 3427"><g id="Group_3426" data-name="Group 3426"><g id="Group_3425" data-name="Group 3425"><g id="Group_3388" data-name="Group 3388"><g id="Group_3375" data-name="Group 3375"><g id="Group_3374" data-name="Group 3374"><g id="Group_3373" data-name="Group 3373"><g id="Group_3372" data-name="Group 3372"><g id="Group_3371" data-name="Group 3371"><g id="Group_3370" data-name="Group 3370"><g id="Group_3369" data-name="Group 3369"><g id="Group_3368" data-name="Group 3368"><g id="Group_3367" data-name="Group 3367"><g id="Group_3366" data-name="Group 3366"><g id="Group_3365" data-name="Group 3365"><path id="Path_2223" data-name="Path 2223" d="M1232.87,359.17a2.18,2.18,0,0,1-2.33,2,2.09,2.09,0,0,1-2-2.14v-.06a2.2,2.2,0,0,1,2.33-2,2.09,2.09,0,0,1,2,2.15Z" transform="translate(-484.17 -15.67)" style="fill:#1c262a"/></g></g></g></g></g></g></g></g></g></g></g><g id="Group_3387" data-name="Group 3387"><g id="Group_3386" data-name="Group 3386"><g id="Group_3385" data-name="Group 3385"><g id="Group_3384" data-name="Group 3384"><g id="Group_3383" data-name="Group 3383"><g id="Group_3382" data-name="Group 3382"><g id="Group_3381" data-name="Group 3381"><g id="Group_3380" data-name="Group 3380"><g id="Group_3379" data-name="Group 3379"><g id="Group_3378" data-name="Group 3378"><g id="Group_3377" data-name="Group 3377"><g id="Group_3376" data-name="Group 3376"><path id="Path_2224" data-name="Path 2224" d="M1232.73,355c-.3.25-1.82-1.15-4.17-1.39s-4.18.74-4.41.43c-.11-.14.22-.63,1-1.09a6,6,0,0,1,3.56-.7,5.82,5.82,0,0,1,3.28,1.46C1232.69,354.3,1232.88,354.84,1232.73,355Z" transform="translate(-484.17 -15.67)" style="fill:#1c262a"/></g></g></g></g></g></g></g></g></g></g></g></g></g><g id="Group_3412" data-name="Group 3412"><g id="Group_3399" data-name="Group 3399"><g id="Group_3398" data-name="Group 3398"><g id="Group_3397" data-name="Group 3397"><g id="Group_3396" data-name="Group 3396"><g id="Group_3395" data-name="Group 3395"><g id="Group_3394" data-name="Group 3394"><g id="Group_3393" data-name="Group 3393"><g id="Group_3392" data-name="Group 3392"><g id="Group_3391" data-name="Group 3391"><g id="Group_3390" data-name="Group 3390"><g id="Group_3389" data-name="Group 3389"><path id="Path_2225" data-name="Path 2225" d="M1209.8,357.52a2.18,2.18,0,0,1-2.33,2,2.08,2.08,0,0,1-2-2.14v-.06a2.2,2.2,0,0,1,2.33-2,2.1,2.1,0,0,1,2,2.15Z" transform="translate(-484.17 -15.67)" style="fill:#1c262a"/></g></g></g></g></g></g></g></g></g></g></g><g id="Group_3411" data-name="Group 3411"><g id="Group_3410" data-name="Group 3410"><g id="Group_3409" data-name="Group 3409"><g id="Group_3408" data-name="Group 3408"><g id="Group_3407" data-name="Group 3407"><g id="Group_3406" data-name="Group 3406"><g id="Group_3405" data-name="Group 3405"><g id="Group_3404" data-name="Group 3404"><g id="Group_3403" data-name="Group 3403"><g id="Group_3402" data-name="Group 3402"><g id="Group_3401" data-name="Group 3401"><g id="Group_3400" data-name="Group 3400"><path id="Path_2226" data-name="Path 2226" d="M1209.64,352.94c-.3.26-1.82-1.14-4.16-1.38s-4.19.74-4.42.43c-.11-.14.22-.63,1-1.09a6,6,0,0,1,3.56-.7,5.82,5.82,0,0,1,3.28,1.46C1209.6,352.29,1209.78,352.83,1209.64,352.94Z" transform="translate(-484.17 -15.67)" style="fill:#1c262a"/></g></g></g></g></g></g></g></g></g></g></g></g></g><g id="Group_3424" data-name="Group 3424"><g id="Group_3423" data-name="Group 3423"><g id="Group_3422" data-name="Group 3422"><g id="Group_3421" data-name="Group 3421"><g id="Group_3420" data-name="Group 3420"><g id="Group_3419" data-name="Group 3419"><g id="Group_3418" data-name="Group 3418"><g id="Group_3417" data-name="Group 3417"><g id="Group_3416" data-name="Group 3416"><g id="Group_3415" data-name="Group 3415"><g id="Group_3414" data-name="Group 3414"><g id="Group_3413" data-name="Group 3413"><path id="Path_2227" data-name="Path 2227" d="M1216.3,371.23a15.76,15.76,0,0,1,3.88-.29c.6,0,1.19-.05,1.33-.45a3.16,3.16,0,0,0-.21-1.82q-.63-2.26-1.29-4.74a79.11,79.11,0,0,1-2.71-12.35,77.51,77.51,0,0,1,3.7,12.1l1.2,4.75a3.45,3.45,0,0,1,.07,2.37,1.53,1.53,0,0,1-1.08.77,4.45,4.45,0,0,1-1,0A15.62,15.62,0,0,1,1216.3,371.23Z" transform="translate(-484.17 -15.67)" style="fill:#1c262a"/></g></g></g></g></g></g></g></g></g></g></g></g></g></g></g><g id="Group_3438" data-name="Group 3438"><g id="Group_3437" data-name="Group 3437"><g id="Group_3436" data-name="Group 3436"><g id="Group_3435" data-name="Group 3435"><g id="Group_3434" data-name="Group 3434"><g id="Group_3433" data-name="Group 3433"><g id="Group_3432" data-name="Group 3432"><g id="Group_3431" data-name="Group 3431"><g id="Group_3430" data-name="Group 3430"><g id="Group_3429" data-name="Group 3429"><g id="Group_3428" data-name="Group 3428"><path id="Path_2228" data-name="Path 2228" d="M1211.22,343.82c-.3.61-2.6.06-5.39.1s-5.09.55-5.39-.06c-.13-.29.32-.85,1.28-1.37a9.41,9.41,0,0,1,8.22,0C1210.89,343,1211.36,343.53,1211.22,343.82Z" transform="translate(-484.17 -15.67)" style="fill:#1c262a"/></g></g></g></g></g></g></g></g></g></g></g><g id="Group_3449" data-name="Group 3449"><g id="Group_3448" data-name="Group 3448"><g id="Group_3447" data-name="Group 3447"><g id="Group_3446" data-name="Group 3446"><g id="Group_3445" data-name="Group 3445"><g id="Group_3444" data-name="Group 3444"><g id="Group_3443" data-name="Group 3443"><g id="Group_3442" data-name="Group 3442"><g id="Group_3441" data-name="Group 3441"><g id="Group_3440" data-name="Group 3440"><g id="Group_3439" data-name="Group 3439"><path id="Path_2229" data-name="Path 2229" d="M1232.59,348.09c-.47.49-2-.24-4-.47s-3.62,0-4-.63c-.13-.28.18-.79.95-1.22a5.76,5.76,0,0,1,6.37.88C1232.63,347.27,1232.8,347.84,1232.59,348.09Z" transform="translate(-484.17 -15.67)" style="fill:#1c262a"/></g></g></g></g></g></g></g></g></g></g></g></g></g></g></g></g><g id="Group_3478" data-name="Group 3478"><g id="Group_3465" data-name="Group 3465"><g id="Group_3464" data-name="Group 3464"><g id="Group_3463" data-name="Group 3463"><g id="Group_3462" data-name="Group 3462"><g id="Group_3461" data-name="Group 3461"><g id="Group_3460" data-name="Group 3460"><g id="Group_3459" data-name="Group 3459"><g id="Group_3458" data-name="Group 3458"><g id="Group_3457" data-name="Group 3457"><g id="Group_3456" data-name="Group 3456"><g id="Group_3455" data-name="Group 3455"><path id="Path_2230" data-name="Path 2230" d="M1184,358.32c-.24-.14-10.15-4.21-10.92,6.25a7.89,7.89,0,0,0,6.6,9,7.76,7.76,0,0,0,3.32-.21C1183,373.06,1184,358.32,1184,358.32Z" transform="translate(-484.17 -15.67)" style="fill:#fbad8b"/></g></g></g></g></g></g></g></g></g></g></g><g id="Group_3477" data-name="Group 3477"><g id="Group_3476" data-name="Group 3476"><g id="Group_3475" data-name="Group 3475"><g id="Group_3474" data-name="Group 3474"><g id="Group_3473" data-name="Group 3473"><g id="Group_3472" data-name="Group 3472"><g id="Group_3471" data-name="Group 3471"><g id="Group_3470" data-name="Group 3470"><g id="Group_3469" data-name="Group 3469"><g id="Group_3468" data-name="Group 3468"><g id="Group_3467" data-name="Group 3467"><g id="Group_3466" data-name="Group 3466"><path id="Path_2231" data-name="Path 2231" d="M1180.07,369.15s-.19.12-.51.24a1.83,1.83,0,0,1-1.36-.08,4.53,4.53,0,0,1-1.79-4.2,6.21,6.21,0,0,1,.71-2.57,2.11,2.11,0,0,1,1.47-1.3.93.93,0,0,1,1,.58c.12.3,0,.51.09.53s.24-.16.19-.6a1.19,1.19,0,0,0-.36-.68,1.38,1.38,0,0,0-1-.34,2.56,2.56,0,0,0-2,1.48,6.17,6.17,0,0,0-.84,2.87,4.72,4.72,0,0,0,2.32,4.71,1.92,1.92,0,0,0,1.68-.16C1180,369.41,1180.11,369.18,1180.07,369.15Z" transform="translate(-484.17 -15.67)" style="fill:#e8845a"/></g></g></g></g></g></g></g></g></g></g></g></g></g><g id="Group_3482" data-name="Group 3482"><g id="Group_3481" data-name="Group 3481"><g id="Group_3480" data-name="Group 3480"><g id="Group_3479" data-name="Group 3479"><path id="Path_2232" data-name="Path 2232" d="M1240.38,345a22.16,22.16,0,0,1-19.11-6.49c-3.37-3.54-5.75-8.36-10.25-10.28a12.42,12.42,0,0,0-9.61.29,24.12,24.12,0,0,0-7.89,5.83c2.13,8.07-.79,16.51-3.64,24.34a4.13,4.13,0,0,1-1.47,2.27c-1.33.82-3.1-.12-4.05-1.36a13,13,0,0,1-2.11-7.1,43.2,43.2,0,0,1,1.9-16.9,29.41,29.41,0,0,1,9.59-13.89,27.85,27.85,0,0,1,20.18-5.27,34.16,34.16,0,0,1,19,9.15,20,20,0,0,1,5.61,8.05" transform="translate(-484.17 -15.67)" style="fill:#1c262a"/></g></g></g></g></g><g id="Group_3489" data-name="Group 3489"><g id="Group_3485" data-name="Group 3485"><g id="Group_3484" data-name="Group 3484"><path id="Path_2233" data-name="Path 2233" d="M1217,377.85a10.48,10.48,0,0,1-1.34,2.65,3.55,3.55,0,0,1-2.5,1.45,3.17,3.17,0,0,1-2.67-1.46,4.9,4.9,0,0,1-.74-3c0-1,.47-2.1,1.43-2.21a2.19,2.19,0,0,1,1.15.26l5,2" transform="translate(-484.17 -15.67)" style="fill:#e8845a"/></g></g><g id="Group_3488" data-name="Group 3488"><g id="Group_3487" data-name="Group 3487"><g id="Group_3486" data-name="Group 3486"><path id="Path_2234" data-name="Path 2234" d="M1215,382a7.11,7.11,0,0,1-2.67-.33,3.86,3.86,0,0,1-2-1.83,4,4,0,0,1-.06-3.27,3.48,3.48,0,0,1,.43-.75c.2-.2.16-.2.4-.17a4.52,4.52,0,0,1,.79.32l.82.33c1.07.44,2,.8,2.86,1.12a8.84,8.84,0,0,0,2.71.81,9.27,9.27,0,0,0-2.47-1.4c-.79-.39-1.73-.81-2.77-1.29l-.79-.36c-.3-.15-.6-.28-.91-.4a1.17,1.17,0,0,0-.74,0,1.39,1.39,0,0,0-.56.43,4.6,4.6,0,0,0-.41,5,4.27,4.27,0,0,0,2.54,2,4,4,0,0,0,2.16.09C1214.81,382.2,1215.05,382,1215,382Z" transform="translate(-484.17 -15.67)" style="fill:#1c262a"/></g></g></g></g></g><g id="Group_3519" data-name="Group 3519"><g id="Group_3518" data-name="Group 3518"><g id="Group_3517" data-name="Group 3517"><g id="Group_3493" data-name="Group 3493"><g id="Group_3492" data-name="Group 3492"><g id="Group_3491" data-name="Group 3491"><path id="Path_2235" data-name="Path 2235" d="M1309.09,813.39l11.67,33.88s38.38-.49,41.13,5.57l-64.89,25-20.36-52Z" transform="translate(-484.17 -15.67)" style="fill:#de3848"/></g></g></g><g id="Group_3497" data-name="Group 3497"><g id="Group_3496" data-name="Group 3496"><g id="Group_3495" data-name="Group 3495"><g id="Group_3494" data-name="Group 3494"><path id="Path_2236" data-name="Path 2236" d="M1299.62,852.19a2.84,2.84,0,0,0-.67,3.73,2.74,2.74,0,0,0,3.7.7,3,3,0,0,0,.69-4,2.84,2.84,0,0,0-3.93-.3" transform="translate(-484.17 -15.67)" style="fill:#d9d9d8"/></g></g></g></g><g id="Group_3500" data-name="Group 3500" style="opacity:0.6000000238418579"><g id="Group_3499" data-name="Group 3499"><g id="Group_3498" data-name="Group 3498"><path id="Path_2237" data-name="Path 2237" d="M1297,877.83l-1.85-5.32,62.91-22s3.38.14,3.83,2.3Z" transform="translate(-484.17 -15.67)" style="fill:#fff"/></g></g></g><g id="Group_3504" data-name="Group 3504"><g id="Group_3503" data-name="Group 3503"><g id="Group_3502" data-name="Group 3502"><g id="Group_3501" data-name="Group 3501"><path id="Path_2238" data-name="Path 2238" d="M1321.68,846.54c.11.32-1.41,1.07-2.58,2.69s-1.48,3.28-1.83,3.26-.57-2,.88-4S1321.63,846.22,1321.68,846.54Z" transform="translate(-484.17 -15.67)" style="fill:#1c262a"/></g></g></g></g><g id="Group_3508" data-name="Group 3508"><g id="Group_3507" data-name="Group 3507"><g id="Group_3506" data-name="Group 3506"><g id="Group_3505" data-name="Group 3505"><path id="Path_2239" data-name="Path 2239" d="M1329.58,846.73c.19.28-1,1.35-1.54,3.1s-.32,3.29-.64,3.4-1.22-1.6-.48-3.77S1329.45,846.41,1329.58,846.73Z" transform="translate(-484.17 -15.67)" style="fill:#1c262a"/></g></g></g></g><g id="Group_3512" data-name="Group 3512"><g id="Group_3511" data-name="Group 3511"><g id="Group_3510" data-name="Group 3510"><g id="Group_3509" data-name="Group 3509"><path id="Path_2240" data-name="Path 2240" d="M1336.58,853.39c-.27.18-1.31-1.24-1.17-3.28s1.36-3.31,1.58-3.1-.32,1.49-.41,3.16S1336.87,853.23,1336.58,853.39Z" transform="translate(-484.17 -15.67)" style="fill:#1c262a"/></g></g></g></g><g id="Group_3516" data-name="Group 3516"><g id="Group_3515" data-name="Group 3515"><g id="Group_3514" data-name="Group 3514"><g id="Group_3513" data-name="Group 3513"><path id="Path_2241" data-name="Path 2241" d="M1318.17,839.11c0,.34-1.64.46-3.38,1.27s-2.92,1.92-3.19,1.71.63-1.85,2.7-2.77S1318.22,838.8,1318.17,839.11Z" transform="translate(-484.17 -15.67)" style="fill:#1c262a"/></g></g></g></g></g></g></g><g id="Group_3539" data-name="Group 3539"><g id="Group_3524" data-name="Group 3524"><g id="Group_3521" data-name="Group 3521"><g id="Group_3520" data-name="Group 3520"><path id="Path_2242" data-name="Path 2242" d="M1071.05,808.94l-.72.94-14,18.34-17.41,11.92L1062.16,885l25.64,0s-1.85-6.16-14.19-9.35l-.81-24.63L1095,826.73" transform="translate(-484.17 -15.67)" style="fill:#de3848"/></g></g><g id="Group_3523" data-name="Group 3523" style="opacity:0.6000000238418579"><g id="Group_3522" data-name="Group 3522"><path id="Path_2243" data-name="Path 2243" d="M1038.9,840.14,1062.18,885l25.64,0-2.88-3.86L1064.09,880l-21.49-42.37Z" transform="translate(-484.17 -15.67)" style="fill:#fff"/></g></g></g><g id="Group_3527" data-name="Group 3527"><g id="Group_3526" data-name="Group 3526"><g id="Group_3525" data-name="Group 3525"><path id="Path_2244" data-name="Path 2244" d="M1073.48,864.39c-.19.26-1.67-.58-3.65-.52s-3.44.87-3.64.61,1.19-1.73,3.62-1.75S1073.72,864.19,1073.48,864.39Z" transform="translate(-484.17 -15.67)" style="fill:#1c262a"/></g></g></g><g id="Group_3530" data-name="Group 3530"><g id="Group_3529" data-name="Group 3529"><g id="Group_3528" data-name="Group 3528"><path id="Path_2245" data-name="Path 2245" d="M1073.08,858.29c-.26.18-1.4-1.33-3.44-1.73s-3.68.53-3.85.26c-.09-.11.21-.54.93-.93a4.79,4.79,0,0,1,5.87,1.19C1073.08,857.7,1073.19,858.22,1073.08,858.29Z" transform="translate(-484.17 -15.67)" style="fill:#1c262a"/></g></g></g><g id="Group_3533" data-name="Group 3533"><g id="Group_3532" data-name="Group 3532"><g id="Group_3531" data-name="Group 3531"><path id="Path_2246" data-name="Path 2246" d="M1073.24,850.42c-.28.15-1.15-1.34-2.94-2s-3.39,0-3.52-.33c-.06-.13.26-.48,1-.75a4.44,4.44,0,0,1,5.21,1.84C1073.35,849.9,1073.38,850.38,1073.24,850.42Z" transform="translate(-484.17 -15.67)" style="fill:#1c262a"/></g></g></g><g id="Group_3536" data-name="Group 3536"><g id="Group_3535" data-name="Group 3535"><g id="Group_3534" data-name="Group 3534"><path id="Path_2247" data-name="Path 2247" d="M1080.11,844.36c-.3.11-1-1.35-2.62-2.37s-3.16-1.19-3.2-1.51,1.9-.73,3.83.58S1080.42,844.33,1080.11,844.36Z" transform="translate(-484.17 -15.67)" style="fill:#1c262a"/></g></g></g><g id="Group_3538" data-name="Group 3538" style="opacity:0.6000000238418579"><g id="Group_3537" data-name="Group 3537"><path id="Path_2248" data-name="Path 2248" d="M1059.33,839.38a3,3,0,1,1-3-3h0a3,3,0,0,1,3,3Z" transform="translate(-484.17 -15.67)" style="fill:#fff"/></g></g></g><g id="Group_3544" data-name="Group 3544"><g id="Group_3540" data-name="Group 3540"><path id="Path_2249" data-name="Path 2249" d="M1156.44,624.35l79.27,116.18,42.85,101.59,36.3-19.39L1278.16,721l-53.92-106.87Z" transform="translate(-484.17 -15.67)" style="fill:#1c262a"/></g><g id="Group_3541" data-name="Group 3541"><path id="Path_2250" data-name="Path 2250" d="M1123.7,614.1l-13.23,93.53-54.11,118,32.23,18.74,68.84-117,38.2-113.31Z" transform="translate(-484.17 -15.67)" style="fill:#1c262a"/></g><g id="Group_3543" data-name="Group 3543"><g id="Group_3542" data-name="Group 3542"><path id="Path_2251" data-name="Path 2251" d="M1088.59,844.37a3.77,3.77,0,0,1,.28-.57l.9-1.61,3.52-6.19c3.11-5.39,7.57-13.13,13-22.66l43.43-74.63,8.1-13.87,0,.07c9.44-28.42,17.81-53.56,23.8-71.64l7.14-21.24q1.26-3.67,2-5.72l.53-1.47a3.07,3.07,0,0,1,.2-.5,2.42,2.42,0,0,1-.13.53l-.45,1.49-1.83,5.76c-1.64,5-4,12.3-6.91,21.32l-23.53,71.73v0l0,0c-2.6,4.44-5.32,9.1-8.09,13.87l-43.61,74.51-13.3,22.55-3.65,6.11-1,1.58A3.13,3.13,0,0,1,1088.59,844.37Z" transform="translate(-484.17 -15.67)" style="fill:#344952"/></g></g></g><g id="Group_3545" data-name="Group 3545"><path id="Path_2252" data-name="Path 2252" d="M1229.29,563.46l-2.68-40.14-10.16-94.62,3.61-19.74-40.06-16-4.81,9.62c-24.06,3.62-34.18,51.1-34.18,51.1l-.84,96.55-26.71,65.45,6.93,6.1c10.94,6.57,112.91,2.43,112.91,2.43Z" transform="translate(-484.17 -15.67)" style="fill:#002b3b"/></g><g id="Group_3547" data-name="Group 3547" style="opacity:0.30000001192092896"><g id="Group_3546" data-name="Group 3546"><path id="Path_2253" data-name="Path 2253" d="M1123.7,590.54a126.54,126.54,0,0,0,24.2,23.4c5,3.73,10.87,7.27,17,6.29,5.94-1,10.36-5.84,14.25-10.44L1201.07,584a10.61,10.61,0,0,0,2.83-4.92,6.86,6.86,0,0,0-3.07-6.33,15,15,0,0,0-7-2.29c-15.38-1.82-30.41,5.82-45.9,6-5.29,0-13.9-1-18.91.73l-5.33,13.46" transform="translate(-484.17 -15.67)" style="fill:#040505"/></g></g><g id="Group_3548" data-name="Group 3548"><path id="Path_2254" data-name="Path 2254" d="M1206.27,527.53a23.68,23.68,0,0,1,3,30.27l-13.69,20-19.89,25.9a15.6,15.6,0,0,1-23.37,1.62L1061.6,535.5a13.55,13.55,0,0,1-2.77-18.6L1095.75,465a13.56,13.56,0,0,1,18.9-3.2l0,0Z" transform="translate(-484.17 -15.67)" style="fill:#344952"/></g><g id="Group_3550" data-name="Group 3550"><g id="Group_3549" data-name="Group 3549"><path id="Path_2255" data-name="Path 2255" d="M1159.3,609.35a3,3,0,0,1,.25-.47l.79-1.37c.73-1.19,1.81-2.91,3.25-5.12,2.87-4.41,7.12-10.75,12.38-18.55s11.59-17.06,18.44-27.44a68.82,68.82,0,0,0,4.82-8.16,10.3,10.3,0,0,0,1-4.6,7.84,7.84,0,0,0-1.73-4.38,38,38,0,0,0-7.85-6.46l-8.68-6.15-59.9-42.74-18.09-13-4.89-3.56-1.27-.95a2.5,2.5,0,0,1-.39-.34,2.64,2.64,0,0,1,.46.27l1.31.88,5,3.45,18.25,12.8,60,42.51,8.67,6.17a38.42,38.42,0,0,1,8,6.64,8.63,8.63,0,0,1,1.87,4.84,11,11,0,0,1-1.09,4.95,67,67,0,0,1-4.92,8.27c-6.89,10.37-13.27,19.58-18.59,27.35C1165.77,599.67,1159.3,609.35,1159.3,609.35Z" transform="translate(-484.17 -15.67)" style="fill:#1c262a"/></g></g><g id="Group_3551" data-name="Group 3551"><path id="Path_2256" data-name="Path 2256" d="M1193.72,405.77s-25.75-13.63-64.64,48.05l6.89,8.05s32.48-57.1,53.94-50.2-10.05,96.94-10.05,96.94S1227.06,418.84,1193.72,405.77Z" transform="translate(-484.17 -15.67)" style="fill:#1c262a"/></g><g id="Group_3552" data-name="Group 3552"><path id="Path_2257" data-name="Path 2257" d="M1107.7,475.19a33.51,33.51,0,0,0-4.51,41.54c.3.45.6.89.9,1.31l35,54.39,29.33-18.08h0L1140,502.83s13.19-13.63,27.56-28.95c19.34-20.64,39.93-46,25.18-60.53,0,0-10.06-8-25.52,4C1156.06,426,1124.37,458.09,1107.7,475.19Z" transform="translate(-484.17 -15.67)" style="fill:#5d9573"/></g><g id="Group_3558" data-name="Group 3558"><g id="Group_3554" data-name="Group 3554"><g id="Group_3553" data-name="Group 3553"><path id="Path_2258" data-name="Path 2258" d="M1289.74,465.78l-29.63,63.34a19.39,19.39,0,0,1-15.1,11h0a19.39,19.39,0,0,1-20.21-11.47L1202.68,478l12.56-54.64L1245,487.11l24.29-34.42Z" transform="translate(-484.17 -15.67)" style="fill:#5d9573"/></g></g><g id="Group_3557" data-name="Group 3557"><g id="Group_3556" data-name="Group 3556"><g id="Group_3555" data-name="Group 3555"><path id="Path_2259" data-name="Path 2259" d="M1236.23,508.48a165.78,165.78,0,0,1,8.44-22A164.09,164.09,0,0,1,1236.23,508.48Z" transform="translate(-484.17 -15.67)" style="fill:#5d9573"/></g></g></g></g><g id="Group_3560" data-name="Group 3560"><g id="Group_3559" data-name="Group 3559"><path id="Path_2260" data-name="Path 2260" d="M1229.67,562.79a8.64,8.64,0,0,1-.17-1.33l-.36-3.92c-.3-3.48-.72-8.39-1.23-14.42-1.06-12.23-2.52-29-4.13-47.55s-3.35-35.36-4.69-47.5c-.68-6-1.24-10.9-1.64-14.37l-.45-3.91a7.83,7.83,0,0,1-.11-1.37,7.69,7.69,0,0,1,.27,1.35l.61,3.88c.5,3.38,1.17,8.28,1.91,14.35,1.48,12.13,3.24,28.92,4.93,47.48s3,35.39,3.89,47.58c.39,6,.73,11,1,14.44l.2,3.92A5.71,5.71,0,0,1,1229.67,562.79Z" transform="translate(-484.17 -15.67)" style="fill:#1c262a"/></g></g><g id="Group_3572" data-name="Group 3572"><g id="Group_3562" data-name="Group 3562"><g id="Group_3561" data-name="Group 3561"><path id="Path_2261" data-name="Path 2261" d="M1162.28,558l3.87,8.07a51.55,51.55,0,0,1,10.83,2.41,141.59,141.59,0,0,1,14.56,11.37,3.74,3.74,0,0,1-4.35,2A57,57,0,0,1,1180,577h0a3.82,3.82,0,0,0-2.56,5.91c2.26,3.4,4.88,7.36,5.14,7.93a45.22,45.22,0,0,0,9.07,4.26,2.55,2.55,0,0,1,1.38,3.33,2.58,2.58,0,0,1-1.78,1.51,1.1,1.1,0,0,1-.67-.08s1.82,3.85-4.82,2.74c0,0-4.4,3-7.81,1.15a24.5,24.5,0,0,1-9,.49c-2.77-.93-14.27-17.13-14.27-17.13l-10-18.12Z" transform="translate(-484.17 -15.67)" style="fill:#fbad8b"/></g></g><g id="Group_3565" data-name="Group 3565"><g id="Group_3564" data-name="Group 3564"><g id="Group_3563" data-name="Group 3563"><path id="Path_2262" data-name="Path 2262" d="M1172.67,587.06a12.31,12.31,0,0,0,1.31,3.24,18.27,18.27,0,0,0,5.2,6.65,16.35,16.35,0,0,0,7.92,2.64,11,11,0,0,0,3.43.06,15.15,15.15,0,0,0-3.34-.7,18.14,18.14,0,0,1-7.5-2.77,20.52,20.52,0,0,1-5.16-6.22A15.73,15.73,0,0,0,1172.67,587.06Z" transform="translate(-484.17 -15.67)" style="fill:#e8845a"/></g></g></g><g id="Group_3568" data-name="Group 3568"><g id="Group_3567" data-name="Group 3567"><g id="Group_3566" data-name="Group 3566"><path id="Path_2263" data-name="Path 2263" d="M1169.4,590.79a6.58,6.58,0,0,0,1,3,22.26,22.26,0,0,0,1.82,2.95,10.4,10.4,0,0,0,3.07,3,18,18,0,0,0,4,1.47l3.26.86a10.69,10.69,0,0,0,3.07.58,11.08,11.08,0,0,0-2.89-1.19c-.9-.31-2-.67-3.21-1a20.37,20.37,0,0,1-3.75-1.46,10.76,10.76,0,0,1-2.86-2.73,32.56,32.56,0,0,1-1.92-2.77C1170,591.86,1169.52,590.75,1169.4,590.79Z" transform="translate(-484.17 -15.67)" style="fill:#e8845a"/></g></g></g><g id="Group_3571" data-name="Group 3571"><g id="Group_3570" data-name="Group 3570"><g id="Group_3569" data-name="Group 3569"><path id="Path_2264" data-name="Path 2264" d="M1166,595.4a24.62,24.62,0,0,0,4.41,6.42,3.41,3.41,0,0,0,1.43,1,11.69,11.69,0,0,0,1.39.53,14.57,14.57,0,0,0,2.44.54c1.41.18,2.31,0,2.29-.12a11.44,11.44,0,0,0-2.17-.52,20.17,20.17,0,0,1-2.29-.7,12.67,12.67,0,0,1-1.29-.54,2.76,2.76,0,0,1-1.09-.76c-1.35-1.7-2.61-3.17-3.54-4.21A9.44,9.44,0,0,0,1166,595.4Z" transform="translate(-484.17 -15.67)" style="fill:#e8845a"/></g></g></g></g><g id="Group_3574" data-name="Group 3574"><g id="Group_3573" data-name="Group 3573"><path id="Path_2265" data-name="Path 2265" d="M1212.82,406.45a55.51,55.51,0,0,1-1.19,7.91,53.79,53.79,0,0,1-1.54,7.86,49,49,0,0,1,2.73-15.77Z" transform="translate(-484.17 -15.67)" style="fill:#1c262a"/></g></g><g id="Group_3576" data-name="Group 3576"><g id="Group_3575" data-name="Group 3575"><path id="Path_2266" data-name="Path 2266" d="M1200.52,411.31a25.43,25.43,0,0,1,2.8-8.74A25.43,25.43,0,0,1,1200.52,411.31Z" transform="translate(-484.17 -15.67)" style="fill:#1c262a"/></g></g><g id="Group_3578" data-name="Group 3578"><g id="Group_3577" data-name="Group 3577"><path id="Path_2267" data-name="Path 2267" d="M1191.45,406.87a21.94,21.94,0,0,1,3.89-7.6A22.29,22.29,0,0,1,1191.45,406.87Z" transform="translate(-484.17 -15.67)" style="fill:#1c262a"/></g></g><g id="Group_3580" data-name="Group 3580"><g id="Group_3579" data-name="Group 3579"><path id="Path_2268" data-name="Path 2268" d="M1179.54,405.49a40,40,0,0,1,7-9.18,40.79,40.79,0,0,1-7,9.18Z" transform="translate(-484.17 -15.67)" style="fill:#1c262a"/></g></g><g id="Group_3582" data-name="Group 3582"><g id="Group_3581" data-name="Group 3581"><path id="Path_2269" data-name="Path 2269" d="M1140.17,503.4a31.73,31.73,0,0,1-2.66-1.94,25.17,25.17,0,0,0-7-3.39,24.66,24.66,0,0,0-7.74-1,32.61,32.61,0,0,1-3.28.19,8.49,8.49,0,0,1,3.24-.8,21.09,21.09,0,0,1,15.16,4.47A8.59,8.59,0,0,1,1140.17,503.4Z" transform="translate(-484.17 -15.67)" style="fill:#1c262a"/></g></g><g id="Group_3584" data-name="Group 3584"><g id="Group_3583" data-name="Group 3583"><path id="Path_2270" data-name="Path 2270" d="M1131.56,482.92a9.83,9.83,0,0,1,2.58,2.27,26.67,26.67,0,0,1,6.7,15,9.47,9.47,0,0,1,0,3.44,35.08,35.08,0,0,0-9.26-20.67Z" transform="translate(-484.17 -15.67)" style="fill:#1c262a"/></g></g><g id="Group_3586" data-name="Group 3586"><g id="Group_3585" data-name="Group 3585"><path id="Path_2271" data-name="Path 2271" d="M1168.57,554a6.7,6.7,0,0,1-.63-1l-1.68-2.87-6.1-10.7-20.32-36.21-.14-.27.21-.22c2-2.1,4.08-4.31,6.22-6.55l32.9-34.42,10-10.37,2.77-2.77a8.75,8.75,0,0,1,1-.93,8.66,8.66,0,0,1-.87,1.05l-2.65,2.89-9.85,10.55-32.72,34.61-6.22,6.55.06-.49,20.08,36.34,5.87,10.82,1.56,2.94A6.76,6.76,0,0,1,1168.57,554Z" transform="translate(-484.17 -15.67)" style="fill:#1c262a"/></g></g><g id="Group_3588" data-name="Group 3588" style="opacity:0.30000001192092896"><g id="Group_3587" data-name="Group 3587"><path id="Path_2272" data-name="Path 2272" d="M1153.22,489.36l11.43,8.2a12.43,12.43,0,0,0,4.15-3.54,118.67,118.67,0,0,0,18.52-39.85Z" transform="translate(-484.17 -15.67)" style="fill:#040505"/></g></g><g id="Group_3590" data-name="Group 3590"><g id="Group_3589" data-name="Group 3589"><path id="Path_2273" data-name="Path 2273" d="M1169.74,471.34a16.34,16.34,0,0,0-1.86-6.09,17.58,17.58,0,0,0-4.54-5.14,30.28,30.28,0,0,0-7.45-4.06c-2.82-1.14-5.62-1.91-8.12-2.92a15.37,15.37,0,0,1-6-3.9,8.76,8.76,0,0,1-2.18-4.29,3.5,3.5,0,0,1,0-1.76c.08,0,0,.63.31,1.69a9.11,9.11,0,0,0,2.3,4,15.47,15.47,0,0,0,5.82,3.58c2.44.94,5.28,1.7,8.15,2.86a29.56,29.56,0,0,1,7.61,4.23,17,17,0,0,1,4.58,5.48,12.62,12.62,0,0,1,1.41,4.6A5,5,0,0,1,1169.74,471.34Z" transform="translate(-484.17 -15.67)" style="fill:#f2f3f3"/></g></g><g id="Group_3592" data-name="Group 3592"><g id="Group_3591" data-name="Group 3591"><path id="Path_2274" data-name="Path 2274" d="M1222.13,478.48a13.78,13.78,0,0,1-2.13-.14,40.1,40.1,0,0,0-5.8,0c-2.44.18-5.33.6-8.55,1.08a69.82,69.82,0,0,1-10.6,1,24.56,24.56,0,0,1-10.49-2,16.69,16.69,0,0,1-6.67-5.65,12,12,0,0,1-2.07-5.51,8.66,8.66,0,0,1,0-1.61,1.52,1.52,0,0,1,.1-.55c.09,0,0,.8.22,2.12a12.57,12.57,0,0,0,2.23,5.22,16.67,16.67,0,0,0,6.51,5.28,24.61,24.61,0,0,0,10.17,1.91,78.64,78.64,0,0,0,10.49-.95,86.25,86.25,0,0,1,8.62-.91,32,32,0,0,1,5.87.22A8.76,8.76,0,0,1,1222.13,478.48Z" transform="translate(-484.17 -15.67)" style="fill:#f2f3f3"/></g></g><g id="Group_3594" data-name="Group 3594"><g id="Group_3593" data-name="Group 3593"><path id="Path_2275" data-name="Path 2275" d="M1232.89,463.54a17.38,17.38,0,0,1-11.58,8.59c-.09-.24,3-1.31,6.22-3.71S1232.68,463.41,1232.89,463.54Z" transform="translate(-484.17 -15.67)" style="fill:#f2f3f3"/></g></g><g id="Group_3596" data-name="Group 3596"><g id="Group_3595" data-name="Group 3595"><path id="Path_2276" data-name="Path 2276" d="M1237.45,474.35a23.72,23.72,0,0,1-15,10.64A41.8,41.8,0,0,0,1237.45,474.35Z" transform="translate(-484.17 -15.67)" style="fill:#f2f3f3"/></g></g><g id="Group_3598" data-name="Group 3598"><g id="Group_3597" data-name="Group 3597"><path id="Path_2277" data-name="Path 2277" d="M1224.22,496.43a24.44,24.44,0,0,0-9.31-2.89,66.81,66.81,0,0,0-10.68,0,73.78,73.78,0,0,1-13.21-.08,59.43,59.43,0,0,1-22.74-7.37,54.55,54.55,0,0,1-6.06-4,15.11,15.11,0,0,1-2-1.74,17.27,17.27,0,0,1,2.2,1.48c1.43.94,3.47,2.34,6.15,3.78a62.1,62.1,0,0,0,22.56,7.06,78.26,78.26,0,0,0,13.08.14,62.7,62.7,0,0,1,10.79.15,21.69,21.69,0,0,1,7,2,11.26,11.26,0,0,1,1.7,1C1224.05,496.27,1224.23,496.39,1224.22,496.43Z" transform="translate(-484.17 -15.67)" style="fill:#f2f3f3"/></g></g><g id="Group_3600" data-name="Group 3600"><g id="Group_3599" data-name="Group 3599"><path id="Path_2278" data-name="Path 2278" d="M1163.18,476.82a3.87,3.87,0,0,1-.34,1.11l-.12.3-.12-.31a11.79,11.79,0,0,0-5.19-5.33,25.16,25.16,0,0,0-5.48-2.18c-2.08-.61-4.36-1.14-6.68-2a30.49,30.49,0,0,1-12.68-8.82,25.9,25.9,0,0,1-2.74-3.83,6.34,6.34,0,0,1-.75-1.55c.13-.09,1.29,2.1,3.93,5a32,32,0,0,0,12.53,8.43c2.24.81,4.52,1.36,6.61,2a24.93,24.93,0,0,1,5.61,2.37,11,11,0,0,1,5.08,5.82h-.24A3.74,3.74,0,0,1,1163.18,476.82Z" transform="translate(-484.17 -15.67)" style="fill:#f2f3f3"/></g></g><g id="Group_3602" data-name="Group 3602"><g id="Group_3601" data-name="Group 3601"><path id="Path_2279" data-name="Path 2279" d="M1390.81,885c0,.23-165.1.41-368.72.41s-368.76-.19-368.76-.41,165.07-.42,368.76-.42S1390.81,884.8,1390.81,885Z" transform="translate(-484.17 -15.67)" style="fill:#1c262a"/></g></g><g id="Group_3632" data-name="Group 3632"><g id="Group_3631" data-name="Group 3631"><g id="Group_3604" data-name="Group 3604"><g id="Group_3603" data-name="Group 3603"><path id="Path_2280" data-name="Path 2280" d="M1293.37,430.67l17.52-4.36s4.75,4.25,2.29,8.63a167.24,167.24,0,0,0-6.57,15.49l-13.55,4.36-3.82,11-23.32-9.95,6.22-20.64,13-16.18,9.86-1.49,6.64,5.61s-5.54,4-9.27-.31l-4.53,1.74.4,2.73a4.11,4.11,0,0,0,4.66,3.47Z" transform="translate(-484.17 -15.67)" style="fill:#fbad8b"/></g></g><g id="Group_3606" data-name="Group 3606"><g id="Group_3605" data-name="Group 3605"><path id="Path_2281" data-name="Path 2281" d="M1310.79,427l11.47-5.57a4.68,4.68,0,0,1,4.32.84l.57,1.18-13.72,9Z" transform="translate(-484.17 -15.67)" style="fill:#fbad8b"/></g></g><g id="Group_3609" data-name="Group 3609"><g id="Group_3608" data-name="Group 3608"><g id="Group_3607" data-name="Group 3607"><path id="Path_2282" data-name="Path 2282" d="M1286.7,444.87a12.43,12.43,0,0,1,1.18-2.91,16.3,16.3,0,0,0,1.74-7.08,8.21,8.21,0,0,0-1-3.78,11.43,11.43,0,0,1-.79-1.7,5.06,5.06,0,0,1-.2-1.68,8.31,8.31,0,0,1,.39-3.17,14.28,14.28,0,0,1,.29,3.12,5.77,5.77,0,0,0,1.1,3,8.57,8.57,0,0,1,1.19,4.18,14.57,14.57,0,0,1-2.09,7.41A9.07,9.07,0,0,1,1286.7,444.87Z" transform="translate(-484.17 -15.67)" style="fill:#e8845a"/></g></g></g><g id="Group_3630" data-name="Group 3630"><g id="Group_3611" data-name="Group 3611"><g id="Group_3610" data-name="Group 3610"><path id="Path_2283" data-name="Path 2283" d="M1338.54,403.07c.16.33,2.55,3.87,2.55,3.87l-52.26,38.44-3.27-4.17Z" transform="translate(-484.17 -15.67)" style="fill:#1c262a"/></g></g><g id="Group_3617" data-name="Group 3617"><g id="Group_3613" data-name="Group 3613"><g id="Group_3612" data-name="Group 3612"><path id="Path_2284" data-name="Path 2284" d="M1306.36,449.66a2.89,2.89,0,0,0-.79-4l-.08-.05a8.16,8.16,0,0,0-4.51-1,33.8,33.8,0,0,0-7.65.42,5,5,0,0,0-2.31.95,2.13,2.13,0,0,0-.73,2.26c.37,1,1.51,1.33,2.52,1.53a36.07,36.07,0,0,0,8.23.65" transform="translate(-484.17 -15.67)" style="fill:#fbad8b"/></g></g><g id="Group_3616" data-name="Group 3616"><g id="Group_3615" data-name="Group 3615"><g id="Group_3614" data-name="Group 3614"><path id="Path_2285" data-name="Path 2285" d="M1301,450.38a14.73,14.73,0,0,1-4.91.19c-.76-.06-1.59-.15-2.48-.28a7.26,7.26,0,0,1-2.88-.84,2.19,2.19,0,0,1-1-1.56,2.53,2.53,0,0,1,.53-1.83,5,5,0,0,1,3.26-1.58,30.13,30.13,0,0,1,6.57-.35,10.36,10.36,0,0,1,5.34,1.06,3.43,3.43,0,0,1,1.58,3.32c-.17.92-.68,1.18-.69,1.16s.29-.4.32-1.19a3.09,3.09,0,0,0-1.58-2.7,10.32,10.32,0,0,0-5-.75,32.42,32.42,0,0,0-6.38.39,4.27,4.27,0,0,0-2.69,1.22,1.36,1.36,0,0,0,0,1.92.87.87,0,0,0,.21.17,7,7,0,0,0,2.51.79c.86.17,1.67.29,2.41.4C1299.17,450.26,1301,450.23,1301,450.38Z" transform="translate(-484.17 -15.67)" style="fill:#e8845a"/></g></g></g></g><g id="Group_3623" data-name="Group 3623"><g id="Group_3619" data-name="Group 3619"><g id="Group_3618" data-name="Group 3618"><path id="Path_2286" data-name="Path 2286" d="M1310.74,439c-4.17-1-7.15-1.44-11.32-2.46a6.6,6.6,0,0,0-4.12-.12c-1.29.54-2.11,2.37-1.16,3.39a3.32,3.32,0,0,0,1.27.74l12.47,4.89" transform="translate(-484.17 -15.67)" style="fill:#fbad8b"/></g></g><g id="Group_3622" data-name="Group 3622"><g id="Group_3621" data-name="Group 3621"><g id="Group_3620" data-name="Group 3620"><path id="Path_2287" data-name="Path 2287" d="M1307.88,445.4a26.76,26.76,0,0,1-4.87-1.54l-5.18-1.93-3.07-1.19a2.31,2.31,0,0,1-1.43-1.49,2.69,2.69,0,0,1,.37-2.08,3.07,3.07,0,0,1,1.58-1.3,4.67,4.67,0,0,1,1.89-.24,19.25,19.25,0,0,1,3.28.66l5.37,1.24a22.5,22.5,0,0,1,4.91,1.43,35.64,35.64,0,0,1-5-.76c-1.55-.27-3.4-.59-5.44-1.05a20.78,20.78,0,0,0-3.13-.58,2.68,2.68,0,0,0-2.61,1.11,1.76,1.76,0,0,0-.27,1.32,1.39,1.39,0,0,0,.91.89l3,1.22,5.11,2.11A27.44,27.44,0,0,1,1307.88,445.4Z" transform="translate(-484.17 -15.67)" style="fill:#e8845a"/></g></g></g></g><g id="Group_3629" data-name="Group 3629"><g id="Group_3625" data-name="Group 3625"><g id="Group_3624" data-name="Group 3624"><path id="Path_2288" data-name="Path 2288" d="M1313.43,432.44c-4.23-.75-7.07-1.28-11.29-2a6.6,6.6,0,0,0-4.12.15c-1.25.62-2,2.49-.94,3.46a3.49,3.49,0,0,0,1.32.66l12.75,4.07" transform="translate(-484.17 -15.67)" style="fill:#fbad8b"/></g></g><g id="Group_3628" data-name="Group 3628"><g id="Group_3627" data-name="Group 3627"><g id="Group_3626" data-name="Group 3626"><path id="Path_2289" data-name="Path 2289" d="M1311.15,438.74a26.25,26.25,0,0,1-4.94-1.23l-5.28-1.58-3.13-1a2.34,2.34,0,0,1-1.54-1.34,2.64,2.64,0,0,1,.18-2.11,3.14,3.14,0,0,1,1.47-1.43,4.6,4.6,0,0,1,1.86-.39,17.66,17.66,0,0,1,3.32.44l5.4,1.08a27,27,0,0,1,4.94,1.23,25.21,25.21,0,0,1-5-.57l-5.44-.87a17.64,17.64,0,0,0-3.14-.4,2.64,2.64,0,0,0-2.5,1.32c-1.23,2.24,2.16,2.4,3.9,3.17l5.22,1.77A26.83,26.83,0,0,1,1311.15,438.74Z" transform="translate(-484.17 -15.67)" style="fill:#e8845a"/></g></g></g></g></g></g></g></g></svg>