<svg id="Layer_1" data-name="Layer 1" xmlns="http://www.w3.org/2000/svg" viewBox="0 0 1218.43 1080.33"><g id="Instagram_Post-3" data-name="Instagram Post-3"><path id="Path_1304" data-name="Path 1304" d="M1131.74-.33H857l-1.94.47-1.8.66-1.67.81-1.54,1-1.34,1.14-1.07,1.6a11,11,0,0,0-.87,1.34,8.58,8.58,0,0,0-.67,1.4,9.4,9.4,0,0,0-.4,1.47,9,9,0,0,0,0,1.47,8.23,8.23,0,0,0,.54,2.94,9,9,0,0,0,.66,1.4,11,11,0,0,0,.87,1.34l413.09,517.61a9.75,9.75,0,0,1,1.54,2.74,8.22,8.22,0,0,1,0,5.82,9.75,9.75,0,0,1-1.54,2.74L847.64,1063.36a11,11,0,0,0-.87,1.34,8.52,8.52,0,0,0-1.07,2.87,9,9,0,0,0,0,1.47,9,9,0,0,0,0,1.47,9.4,9.4,0,0,0,.4,1.47,8.58,8.58,0,0,0,.67,1.4,11,11,0,0,0,.87,1.34l1.14,1.2,1.33,1.14,1.54,1,1.67.8,1.81.67,1.93.47h274.75a21.64,21.64,0,0,0,4-.4,19,19,0,0,0,3.74-1.14,15.81,15.81,0,0,0,3.21-1.8,12.74,12.74,0,0,0,2.47-2.34l422.24-529a10,10,0,0,0,1.54-2.74,8.19,8.19,0,0,0,0-5.81,10.31,10.31,0,0,0-1.6-2.41l-422.31-529a13,13,0,0,0-2.47-2.34,16.08,16.08,0,0,0-3.21-1.8A18.88,18.88,0,0,0,1135.68,0,21.68,21.68,0,0,0,1131.74-.33Z" transform="translate(-351.11 0.33)" style="fill:#fefefd"/><path id="Path_1305" data-name="Path 1305" d="M638.46-.33h-276l-1.93.47L358.7.8,357,1.61,355.49,3l-1.2,1.07-1.14,1.2a9.85,9.85,0,0,0-.86,1.34,10.57,10.57,0,0,0-.67,1.4,8.42,8.42,0,0,0-.4,1.47,7.22,7.22,0,0,0,0,1.47,7.22,7.22,0,0,0,0,1.47,8.19,8.19,0,0,0,.4,1.47,9.1,9.1,0,0,0,.67,1.41,9.75,9.75,0,0,0,.86,1.33L766.31,534.32a10,10,0,0,1,1.53,2.74,8.33,8.33,0,0,1,0,5.82,10,10,0,0,1-1.53,2.74L353.09,1063.36a9,9,0,0,0-.87,1.34,9.49,9.49,0,0,0-.67,1.4,8.42,8.42,0,0,0-.4,1.47,7.22,7.22,0,0,0,0,1.47,9,9,0,0,0,0,1.47,8.42,8.42,0,0,0,.4,1.47,10.57,10.57,0,0,0,.67,1.4,9,9,0,0,0,.87,1.34l1.13,1.2,1.34,1.14,1.54,1,1.67.8,1.8.67,1.94.47H637.26a20.89,20.89,0,0,0,4-.4,19,19,0,0,0,3.74-1.14,15.35,15.35,0,0,0,3.21-1.8,12.37,12.37,0,0,0,2.4-2.34l422.24-529a9.61,9.61,0,0,0,1.54-2.74,8.19,8.19,0,0,0,0-5.81,9.51,9.51,0,0,0-1.54-2.41l-421-529a11.83,11.83,0,0,0-2.4-2.34,15.81,15.81,0,0,0-3.21-1.8A18.78,18.78,0,0,0,642.47,0,20.74,20.74,0,0,0,638.46-.33Z" transform="translate(-351.11 0.33)" style="fill:#fff"/></g></svg>