<svg id="Layer_1" data-name="Layer 1" xmlns="http://www.w3.org/2000/svg" xmlns:xlink="http://www.w3.org/1999/xlink" viewBox="0 0 769.27 1036.3"><defs><clipPath id="clip-path" transform="translate(0 0)"><polygon points="-0.17 -0.03 570.02 -0.03 570.02 1036.3 -0.07 1036.3 -0.17 -0.03" style="fill:none"/></clipPath><clipPath id="clip-path-2" transform="translate(0 0)"><rect x="-0.17" y="-0.03" width="567.88" height="1036.33" style="fill:none"/></clipPath><clipPath id="clip-path-3" transform="translate(0 0)"><rect x="99.74" y="-0.03" width="368.61" height="68.19" style="fill:none"/></clipPath><clipPath id="clip-path-4" transform="translate(0 0)"><rect x="99.74" y="-0.03" width="105.97" height="68.19" style="fill:none"/></clipPath><clipPath id="clip-path-5" transform="translate(0 0)"><rect x="466.15" y="216.06" width="303.45" height="302.42" style="fill:none"/></clipPath></defs><g id="App_Icons-4" data-name="App Icons-4"><g style="clip-path:url(#clip-path)"><g id="Group_2138" data-name="Group 2138"><path id="Path_1547" data-name="Path 1547" d="M501.79,1036.3H66.88A66.88,66.88,0,0,1,0,969.46V66.85A66.85,66.85,0,0,1,66.85,0h434.8a66.85,66.85,0,0,1,66.89,66.81h0V969.45a66.88,66.88,0,0,1-66.89,66.85" transform="translate(0 0)" style="fill:#98dee9"/></g></g><path id="Path_1549" data-name="Path 1549" d="M568.67,654.75a35.8,35.8,0,0,0-28.07,10.32l-16.86,16.86a71.19,71.19,0,0,1-82,13.76A293.11,293.11,0,0,1,307.56,561.52a71.09,71.09,0,0,1,13.76-82l16.86-16.86a35.75,35.75,0,0,0,.06-50.55l-.06-.06-50.61-50.61a35.81,35.81,0,0,0-50.61,0l-45.59,45.65a139.52,139.52,0,0,0-12.86,182.35A1150.69,1150.69,0,0,0,413.8,824.63,139.79,139.79,0,0,0,568.62,833V654.79" transform="translate(0 0)" style="fill:#81d0d8"/><g style="clip-path:url(#clip-path-2)"><g id="Group_2139" data-name="Group 2139"><path id="Path_1550" data-name="Path 1550" d="M552,986.17H184.07A133.75,133.75,0,0,1,50.3,852.44V16.69a65.61,65.61,0,0,1,1.82-14.9,66.73,66.73,0,0,0-52,65V969.42a66.89,66.89,0,0,0,66.74,66.81H501.63a66.81,66.81,0,0,0,65.08-51.93,68.47,68.47,0,0,1-14.89,1.76" transform="translate(0 0)" style="fill:#81d0d8"/></g></g><g style="clip-path:url(#clip-path-3)"><g id="Group_2140" data-name="Group 2140"><path id="Path_1552" data-name="Path 1552" d="M414.27,66.85H154.55a33.34,33.34,0,0,1-29.87-18.48L100.6,0H468.49L444.38,48.37a33.38,33.38,0,0,1-29.86,18.48" transform="translate(0 0)" style="fill:#79828a"/></g></g><path id="Path_1554" data-name="Path 1554" d="M354.92,378.62,304.28,328a35.81,35.81,0,0,0-50.61,0l-45.45,45.62A139.52,139.52,0,0,0,195.38,556,1150.69,1150.69,0,0,0,430.67,791.17,139.69,139.69,0,0,0,613,778.3l45.65-45.59a35.78,35.78,0,0,0,0-50.6h0L608,631.51a35.81,35.81,0,0,0-50.61,0l-16.86,16.85a71.19,71.19,0,0,1-82,13.76A293.08,293.08,0,0,1,324.38,527.94a71.16,71.16,0,0,1,13.76-82L355,429.08a35.78,35.78,0,0,0,0-50.6h0" transform="translate(0 0)" style="fill:#f96464"/><path id="Path_1555" data-name="Path 1555" d="M646.38,728.14A139.71,139.71,0,0,1,464,741,1150.43,1150.43,0,0,1,228.69,505.82a139.64,139.64,0,0,1-18.24-134.46l-2.33,2.27A139.51,139.51,0,0,0,195.25,556,1150.69,1150.69,0,0,0,430.54,791.17,139.67,139.67,0,0,0,612.88,778.3l45.59-45.59a35.46,35.46,0,0,0,10.32-27l-22.41,22.43" transform="translate(0 0)" style="fill:#da4040"/><g style="clip-path:url(#clip-path-4)"><g id="Group_2141" data-name="Group 2141"><path id="Path_1556" data-name="Path 1556" d="M174.85,48.37,150.76,0H100.6l24.08,48.37a33.34,33.34,0,0,0,29.87,18.48h50.16a33.38,33.38,0,0,1-29.86-18.48" transform="translate(0 0)" style="fill:#5c6972"/></g></g><g style="clip-path:url(#clip-path-5)"><g id="Group_2142" data-name="Group 2142"><path id="Path_1558" data-name="Path 1558" d="M535.2,217.3H702.38a66.85,66.85,0,0,1,66.89,66.81h0V384.44a66.85,66.85,0,0,1-66.8,66.86H562.89a66.91,66.91,0,0,0-47.3,19.58L468.28,518.3v-234a66.85,66.85,0,0,1,66.84-66.84h0" transform="translate(0 0)" style="fill:#f7c360"/></g></g><path id="Path_1560" data-name="Path 1560" d="M518.51,334.3V219.6a66.71,66.71,0,0,0-50.13,64.51v234l47.31-47.27A66.94,66.94,0,0,1,563,451.27H702.5a66.72,66.72,0,0,0,64.55-50.16H585.43a66.82,66.82,0,0,1-66.88-66.76v-.15" transform="translate(0 0)" style="fill:#faaf41"/><path id="Path_1561" data-name="Path 1561" d="M301.11,952.73H267.67a16.72,16.72,0,1,0-.19,33.44h33.63a16.72,16.72,0,0,0,.19-33.44h-.19" transform="translate(0 0)" style="fill:#79828a"/><path id="Path_1562" data-name="Path 1562" d="M551.92,317.55a16.73,16.73,0,1,0,16.72,16.75h0a16.76,16.76,0,0,0-16.72-16.73" transform="translate(0 0)" style="fill:#79828a"/><path id="Path_1563" data-name="Path 1563" d="M618.84,317.55a16.73,16.73,0,1,0,16.72,16.75h0a16.77,16.77,0,0,0-16.72-16.73" transform="translate(0 0)" style="fill:#79828a"/><path id="Path_1564" data-name="Path 1564" d="M685.72,317.55a16.73,16.73,0,1,0,16.72,16.75,16.73,16.73,0,0,0-16.72-16.75h0" transform="translate(0 0)" style="fill:#79828a"/></g></svg>