<svg xmlns="http://www.w3.org/2000/svg" width="125.389" height="125.389" viewBox="0 0 125.389 125.389">
  <g id="Group_4375" data-name="Group 4375" transform="translate(-233.678 -419.13)">
    <circle id="Ellipse_557" data-name="Ellipse 557" cx="62.694" cy="62.694" r="62.694" transform="translate(233.678 419.13)" fill="#45515c"/>
    <g id="Group_4374" data-name="Group 4374" transform="translate(255.204 449.058)">
      <path id="Path_2518" data-name="Path 2518" d="M320.229,465.186a20.489,20.489,0,0,0-3.993.4,21.333,21.333,0,0,0-39.388,5.611c-.405-.034-.794-.05-1.179-.05a16.628,16.628,0,0,0-16.414,16.8c0,4.289,1.623,11.932,4.671,15.13a1.564,1.564,0,0,0,1.129.484h25.454a1.56,1.56,0,1,0,0-3.119h-24.73c-2.013-2.677-3.4-8.667-3.4-12.495a13.508,13.508,0,0,1,13.295-13.681,12.865,12.865,0,0,1,2.145.2,1.576,1.576,0,0,0,1.789-1.257,18.549,18.549,0,0,1,18.076-15.4,18.3,18.3,0,0,1,16.352,10.264,1.557,1.557,0,0,0,1.779.811,17.827,17.827,0,0,1,4.418-.579c10.061,0,18.245,8.416,18.245,18.761,0,3.97-1.134,10.2-2.832,13.378H310.923a1.56,1.56,0,1,0,0,3.119h25.6a1.554,1.554,0,0,0,1.292-.687c2.463-3.656,3.776-11.531,3.776-15.81C341.592,475,332.008,465.186,320.229,465.186Z" transform="translate(-259.255 -454.69)" fill="#fff"/>
      <path id="Path_2519" data-name="Path 2519" d="M307.84,486.912a1.561,1.561,0,0,0-2.541,0l-6.955,9.759a1.56,1.56,0,0,0,2.54,1.81l4.125-5.788v30.971a1.56,1.56,0,0,0,3.119,0v-30.97l4.125,5.787a1.56,1.56,0,0,0,2.808-.647,1.548,1.548,0,0,0-.268-1.163Z" transform="translate(-265.4 -459.69)" fill="#fff"/>
    </g>
  </g>
</svg>
