<svg id="Layer_1" data-name="Layer 1" xmlns="http://www.w3.org/2000/svg" viewBox="0 0 996.67 958.33"><path id="bg-2" d="M972.67,93.67H1011c264.64,0,479.17,214.53,479.17,479.16h0c0,264.64-214.53,479.17-479.17,479.17H972.67C708,1052,493.5,837.47,493.5,572.83h0C493.5,308.2,708,93.67,972.67,93.67Z" transform="translate(-493.5 -93.67)" style="fill:#003e89"/><g id="Group_2026" data-name="Group 2026"><path id="Path_1278" data-name="Path 1278" d="M991.87,450.55h185.92c3.33,0,4.41.27,3.83,4.06-3.18,27.83-5.94,55.7-8.89,83.53-3.53,33-7.17,65.94-10.7,98.94-3,27.72-5.82,55.43-8.77,83.15-3.34,31.35-5.79,62.82-10.47,94a46,46,0,0,1-31.55,35.53,60.84,60.84,0,0,1-22.35,3.84H894.08a52.48,52.48,0,0,1-53.43-36.5,138.82,138.82,0,0,1-3.18-25c-2.88-25.68-5.56-51.37-8.29-77.05q-3.55-33.46-7.09-66.93c-2.72-25.41-5.52-50.79-8.2-76.21s-5.29-49.83-7.9-75c-1.49-14.07-2.76-28.14-4.6-42.17-.53-3.83.73-4.06,3.84-4.06Q898.88,450.58,991.87,450.55Z" transform="translate(-493.5 -93.67)" style="fill:#f7f0f4"/><path id="Path_1279" data-name="Path 1279" d="M991.87,436.6H814.73a31.58,31.58,0,0,1-31.35-23,29.47,29.47,0,0,1,23.45-34.47c.53-.1,1.07-.19,1.62-.26a52.46,52.46,0,0,1,8.85-.69h74.1c3.3,0,4.18-.73,4.18-3.84,0-12.49-.65-25,.42-37.52a31.66,31.66,0,0,1,32.12-30.67c4.07-.27,8.17-.46,12.27-.46h106.72a101.29,101.29,0,0,1,13.49.73,27.45,27.45,0,0,1,26.86,28c0,.21,0,.41,0,.61.8,13,.34,26.11.34,39.18,0,3.14.77,4,4.14,3.83h75.82a32.81,32.81,0,0,1,26.84,12.27,28.52,28.52,0,0,1-18.75,45.54,43.41,43.41,0,0,1-8.81.77Z" transform="translate(-493.5 -93.67)" style="fill:#f7f0f4"/><path id="Path_1280" data-name="Path 1280" d="M975,642.75V508.59a16.48,16.48,0,0,1,19.48-17.25,16.1,16.1,0,0,1,13.37,12,28.63,28.63,0,0,1,.62,6.05V776.65a16.75,16.75,0,0,1-33.35,3.21c0-.53-.08-1.06-.08-1.6V724.83Z" transform="translate(-493.5 -93.67)" style="fill:#f7f0f4"/><path id="Path_1281" data-name="Path 1281" d="M1050.37,779.87c1.26-18.82,2.41-36.18,3.64-53.66q2-28.07,3.83-56.12,3.27-46.4,6.48-92.73,2.42-34.82,4.68-69.58a16.6,16.6,0,0,1,16.32-16.87,17.19,17.19,0,0,1,2.58.16,16.32,16.32,0,0,1,14.56,17.13q-3.33,47.38-6.59,94.8-4.06,57.76-8.16,115.54c-1.46,20.62-2.73,41.25-4.3,61.83a16.68,16.68,0,0,1-33.12-.54Z" transform="translate(-493.5 -93.67)" style="fill:#f7f0f4"/><path id="Path_1282" data-name="Path 1282" d="M933.41,778.64a16.64,16.64,0,0,1-15.64,16.26,16.06,16.06,0,0,1-17.32-13.46c-1.15-10.39-1.69-20.85-2.42-31.28q-4.17-59.79-8.32-119.6-2.72-39.67-5.36-79.35c-1-14.1-1.92-28.21-3-42.16a16.28,16.28,0,0,1,14.26-17.71,15.9,15.9,0,0,1,18.53,12.75c0,.3.1.6.14.89,1.41,14.07,2.14,28.18,3.14,42.17q3.3,47.39,6.59,94.8,2.7,39.67,5.41,79.31c1.26,18.44,2.6,36.88,3.83,55.31C933.22,777.38,933.41,778.19,933.41,778.64Z" transform="translate(-493.5 -93.67)" style="fill:#f7f0f4"/><path id="Path_1283" data-name="Path 1283" d="M992,346h50.37c2.91,0,3.83.57,3.83,3.52-.23,8.55,0,17.14,0,25.69,0,2.33-.69,2.91-3.07,2.91H940.66c-2.34,0-3.11-.54-3.07-2.87V349.12c0-2.57.69-3.14,3.3-3.11C957.72,346,974.93,346,992,346Z" transform="translate(-493.5 -93.67)" style="fill:#f7f0f4"/></g></svg>