<svg xmlns="http://www.w3.org/2000/svg" width="10.906" height="14.296" viewBox="0 0 10.906 14.296">
  <g id="Group_2026" data-name="Group 2026" transform="translate(0 0)">
    <path id="Path_1278" data-name="Path 1278" d="M107,119.051q2.425,0,4.85,0c.087,0,.115.007.1.106-.083.726-.155,1.453-.232,2.179-.092.86-.187,1.72-.279,2.581-.077.723-.152,1.446-.229,2.169-.087.818-.151,1.639-.273,2.453a1.2,1.2,0,0,1-.823.927,1.584,1.584,0,0,1-.583.1q-2.541,0-5.082,0a1.369,1.369,0,0,1-1.394-.952,3.649,3.649,0,0,1-.083-.653c-.075-.67-.145-1.34-.216-2.01q-.093-.873-.185-1.746c-.071-.663-.144-1.325-.214-1.988s-.138-1.3-.206-1.957c-.039-.367-.072-.734-.12-1.1-.014-.1.019-.106.1-.106Q104.574,119.052,107,119.051Z" transform="translate(-101.546 -115.267)" fill="#f7f0f4"/>
    <path id="Path_1279" data-name="Path 1279" d="M103.221,89.476H98.6a.824.824,0,0,1-.818-.6.769.769,0,0,1,.654-.906,1.373,1.373,0,0,1,.231-.018c.645,0,1.289,0,1.933,0,.086,0,.109-.019.109-.1,0-.326-.017-.653.011-.979a.826.826,0,0,1,.838-.8c.106-.007.213-.012.32-.012q1.392,0,2.784,0a2.679,2.679,0,0,1,.352.019.716.716,0,0,1,.7.747c.021.34.009.681.009,1.022,0,.082.02.105.108.1.659,0,1.318,0,1.978,0a.856.856,0,0,1,.7.32.744.744,0,0,1-.489,1.188,1.124,1.124,0,0,1-.23.02Z" transform="translate(-97.767 -86.056)" fill="#f7f0f4"/>
    <path id="Path_1280" data-name="Path 1280" d="M141.515,132.235q0-1.751,0-3.5a.43.43,0,0,1,.508-.45.421.421,0,0,1,.349.313.757.757,0,0,1,.016.158q0,3.486,0,6.972a.437.437,0,1,1-.872.042c0-.465,0-.93,0-1.394Z" transform="translate(-136.5 -123.437)" fill="#f7f0f4"/>
    <path id="Path_1281" data-name="Path 1281" d="M158.656,135.811c.033-.491.063-.944.095-1.4q.051-.732.1-1.464.085-1.21.169-2.419.063-.908.122-1.815a.433.433,0,0,1,.493-.436.426.426,0,0,1,.38.447c-.058.824-.114,1.648-.172,2.473q-.106,1.507-.213,3.014c-.038.538-.071,1.076-.112,1.613a.435.435,0,0,1-.864-.014Z" transform="translate(-151.676 -123.436)" fill="#f7f0f4"/>
    <path id="Path_1282" data-name="Path 1282" d="M121.5,135.782a.434.434,0,0,1-.408.424.419.419,0,0,1-.452-.351c-.03-.271-.044-.544-.063-.816q-.109-1.56-.217-3.12-.071-1.035-.14-2.07c-.025-.368-.05-.736-.079-1.1a.425.425,0,0,1,.372-.462.415.415,0,0,1,.487.356c.037.367.056.735.082,1.1q.086,1.236.172,2.473c.047.69.093,1.38.141,2.069.033.481.068.962.1,1.443C121.495,135.749,121.5,135.77,121.5,135.782Z" transform="translate(-117.571 -123.439)" fill="#f7f0f4"/>
    <path id="Path_1283" data-name="Path 1283" d="M134.394,95.256c.438,0,.876,0,1.314,0,.076,0,.1.015.1.092-.006.223,0,.447,0,.67,0,.061-.018.076-.08.076q-1.336,0-2.673,0c-.061,0-.081-.014-.08-.075,0-.227,0-.454,0-.681,0-.067.018-.082.086-.081C133.5,95.257,133.949,95.256,134.394,95.256Z" transform="translate(-128.937 -94.2)" fill="#f7f0f4"/>
  </g>
</svg>
