<?xml version="1.0" encoding="utf-8"?>
<!-- Generator: Adobe Illustrator 24.3.0, SVG Export Plug-In . SVG Version: 6.00 Build 0)  -->
<svg version="1.1" id="Layer_1" xmlns="http://www.w3.org/2000/svg" xmlns:xlink="http://www.w3.org/1999/xlink" x="0px" y="0px"
	 viewBox="0 0 80 80" enable-background="new 0 0 80 80" xml:space="preserve">
<path fill="#FFCC43" d="M11.313,50.309c0,0,0,12,1.5,13.5c1.5,1.5,5.501,1.167,6.167,0c0.666-1.167,2.5-1.333,2.5-4
	s-0.667-10-0.667-10L11.313,50.309z"/>
<path fill="#131731" d="M19.478,13.142V48.18h-8.834v12.507c0.002,3.268,2.648,5.917,5.916,5.917c0.223,0,0.441-0.015,0.658-0.038
	h45.463c3.579-0.002,6.481-2.904,6.483-6.482V13.142H19.478z M13.643,60.687l0.002-9.506h5.832v9.506
	c-0.003,1.61-1.307,2.915-2.917,2.917C14.953,63.602,13.646,62.297,13.643,60.687z M66.162,60.083
	c-0.002,1.92-1.561,3.479-3.481,3.482H21.727c0.476-0.853,0.749-1.833,0.749-2.879l0.002-10.857h0.002V16.142h43.682V60.083z"/>
<path fill="#667BBC" d="M54.397,22.808H34.979v2.999h19.418V22.808z M28.479,33.308v3h31.918v-3H28.479z M28.479,45.308h31.918
	v-3.001H28.479V45.308z M28.479,54.308h31.918v-3H28.479V54.308z"/>
</svg>
