<svg id="Layer_1" data-name="Layer 1" xmlns="http://www.w3.org/2000/svg" viewBox="0 0 769.2 980"><path d="M378.4,12.6C327.1,24,255.6,71.3,189.9,137.3c-36.8,37-52.8,57.6-66.4,86.1l-8.1,17.1V556.1c0,299.6.2,316.2,3.9,329.8,11,38.1,39.7,73.2,73.9,89.4S207.7,990,501.1,990c250.5,0,266.1-.2,279.4-3.9,47.4-13.4,86.8-52.9,100.2-100.2,3.7-13.6,3.9-32,3.9-385.7s-.2-372.1-3.9-385.7c-13.4-46.9-52-85.9-99.1-100-12-3.7-27.8-3.9-201.6-4.4C428.8,9.7,388.9,10.1,378.4,12.6ZM777.2,86.4a74.3,74.3,0,0,1,32.9,34.9l5.5,12.2-.5,369.1-.6,369.1-5.3,9.8a80.1,80.1,0,0,1-32,32.5l-10.9,5.9-263.9.6-263.9.5-12.2-5.5a74.3,74.3,0,0,1-34.9-32.9l-5.9-10.9-.7-308.2-.4-308.3,65.1-1.1c50.8-.7,68.1-1.8,78-4.6,25.4-7,42.3-19.3,52.6-38.2s12.7-32.8,14-84.3l1.3-47.6,185.5.5,185.4.6Z" transform="translate(-115.4 -10)" style="fill:#003e89"/><path d="M266.2,327.5c-14.1,6.8-13.6,41,.6,47.5,4,1.8,69.1,2.5,235.2,2.5,215.6,0,230.1-.3,234.5-4,10.3-8.1,10.3-36.6,0-44.9-4.4-3.5-18.9-3.7-235.2-3.5C344.8,325.1,269.5,325.9,266.2,327.5Z" transform="translate(-115.4 -10)" style="fill:#f48100"/><path d="M266.2,432.7c-14.1,6.8-13.6,41,.6,47.5,4,1.8,69.1,2.4,235.2,2.4,215.6,0,230.1-.2,234.5-3.9,10.3-8.1,10.3-36.6,0-44.9-4.4-3.5-18.9-3.7-235.2-3.5C344.8,430.3,269.5,431.1,266.2,432.7Z" transform="translate(-115.4 -10)" style="fill:#f48100"/><path d="M266.4,537.4c-14,5.7-13.6,41.5.4,48,4,1.8,69.1,2.5,235.2,2.5,215.6,0,230.1-.3,234.5-4,10.3-8.1,10.3-36.6,0-44.9-4.4-3.5-18.9-3.8-235.2-3.5C374.6,535.5,269,536.3,266.4,537.4Z" transform="translate(-115.4 -10)" style="fill:#f48100"/><path d="M266.2,643.1c-14.1,6.8-13.6,41,.6,47.5,4,1.8,69.1,2.4,235.2,2.4,215.6,0,230.1-.2,234.5-3.9,10.3-8.1,10.3-36.6,0-44.9-4.4-3.5-18.9-3.8-235.2-3.5C344.8,640.7,269.5,641.5,266.2,643.1Z" transform="translate(-115.4 -10)" style="fill:#f48100"/><path d="M266.4,747.8c-14,5.7-13.6,43,.6,48.5,3.1,1.1,101.3,1.9,235.2,1.9,215.4,0,229.9-.2,234.3-3.9,10.3-8.1,10.3-36.6,0-44.9-4.4-3.6-18.9-3.8-235.2-3.6C374.6,745.9,269,746.7,266.4,747.8Z" transform="translate(-115.4 -10)" style="fill:#f48100"/></svg>