<svg id="Layer_1" data-name="Layer 1" xmlns="http://www.w3.org/2000/svg" viewBox="0 0 526 629.1"><path d="M451.8,188.9c-2,.2-5.2,2.2-7.3,4.3l-3.9,4v78.6l13.7.2h13.5l.2-7.3c.6-29,.5-65.2-.4-69.2C465.8,191.9,459.9,187.8,451.8,188.9Z" transform="translate(-191.6 -188.7)" style="fill:#fff"/><path d="M434.6,310.7c-61.2,7.9-111,36.8-145,84.4-31.6,44-40.6,103-23.3,153.2,9.3,27.1,23.7,50,45.5,71.7,16.1,16.2,32.7,28.3,52.2,37.8l12.5,6.3-.2,26.7c-.2,30.8.7,36.3,6.9,40.1,4.2,2.5,7.2,2.6,71.1,2.6,71.4,0,72.5-.1,75.9-6.6.8-1.6,1.6-14.6,1.7-32.6l.3-30,12.8-6.2A198.7,198.7,0,0,0,597.3,620c27.8-27.8,45.5-60.5,51.9-96.3,3-16.8,2.6-44-.7-60.8-15.4-75-75.7-132.8-155.4-149.1C480.7,311.3,445.1,309.4,434.6,310.7Zm55.5,30.4c63.6,12.4,114,57.3,128.6,114.9,11,43.1,2.5,90.7-22.5,126-14.3,20.2-40.4,41.8-63.4,52.5s-42.7,15.2-70.3,16.3c-30.5,1-54.7-2.9-79.5-13.4-21.3-9.1-35.9-18.7-53-35.7-32-31.6-47.4-73.6-43.8-120.2,5.6-74.9,67.3-134,149.1-142.9C445.8,337.6,479.3,339,490.1,341.1ZM420.7,676.4c24.2,4.1,58.5,3.2,80.1-2.2,2.9-.7,2.9-.7,2.9,15.4v16l-49.4-.2-49.4-.4-.4-15.7c-.1-8.5-.1-15.5.1-15.5S412.2,674.9,420.7,676.4Z" transform="translate(-191.6 -188.7)" style="fill:#fff"/><path d="M442.3,375.9l-.4,10.1-8.5,1.8c-15.6,3.1-28.1,13.1-36.1,28.6-10.5,20.8-10.5,42,.1,62.1q10.8,20.1,37.2,28l7.3,2.1.4,38.8c.3,30.5,0,38.7-1.3,38.7-3.7-.1-13.8-5.7-20.4-11.3l-7-5.9-10,8.1c-5.6,4.3-10.1,8.5-10.1,9.1s3.8,4.7,8.6,9.1c9.6,9,24.2,16.7,34.2,18.1,6,1,6.3,1.1,6.3,5.5v4.5h27.9v-6.5c0-6.4,0-6.4,7.8-11.2,23.2-14.4,38.6-44.8,37-73-1.4-24.7-13.4-39.9-36.1-46.1l-8.1-2.2-.4-31.1-.2-30.9,3.7,3.5,3.7,3.6,11.6-6.7c6.3-3.8,11.5-7.4,11.5-8.1,0-2.7-15.5-16.5-23-20.4l-7.5-3.9V365.7H442.7Zm.3,71.6V480l-2.9-.8c-8.9-2.6-14.6-7.5-18.5-15.8-6.6-14.2-6.5-27.6.5-38.1,3.2-4.8,12.8-10.5,17.8-10.5h3.1v32.7Zm36.9,69.2c10.2,6.4,13.3,28.3,6.4,44.9-2.5,5.8-9.4,14.7-12.9,16.7s-2.5.2-2.5-32V513l3,.8A29.9,29.9,0,0,1,479.5,516.7Z" transform="translate(-191.6 -188.7)" style="fill:#fff"/><path d="M195.5,339c-4.9,5.1-5.3,12.9-.8,17.9,1.6,1.9,14.2,10,28.2,18.2,22.3,13,25.3,14.5,26.5,12.5s4.1-6.2,7.7-11,6.3-9.2,6.3-9.6-12-7.7-26.7-16.3C206.4,333,202.7,332,195.5,339Z" transform="translate(-191.6 -188.7)" style="fill:#fff"/><path d="M673.6,349.9l-26.4,15.7c-1.6.9-.7,3.2,5.2,11.5,3.8,5.9,7.4,11,8,11.6s50.1-27.4,54.1-31.8,4-12.8-.9-17.9c-3.2-3-5.1-3.8-9.7-3.7S694.3,337.7,673.6,349.9Z" transform="translate(-191.6 -188.7)" style="fill:#fff"/><path d="M384.8,751c-7,6.3-6.5,17.8,1.1,22.3,4.1,2.6,7,2.7,68.6,2.7s64.6-.1,68.7-2.7c7.6-4.5,8.1-16,1-22.3l-3.4-2.9H388.3Z" transform="translate(-191.6 -188.7)" style="fill:#fff"/><path d="M412.2,792.5c-7.6,4.1-8.9,14.2-2.9,20.9l3.8,4.4H496l3.8-4.4c6.1-6.7,4.7-17-2.9-20.9C491.7,789.8,417,789.8,412.2,792.5Z" transform="translate(-191.6 -188.7)" style="fill:#fff"/></svg>