<svg id="Layer_1" data-name="Layer 1" xmlns="http://www.w3.org/2000/svg" viewBox="0 0 1307.91 1062.33"><circle id="Ellipse" cx="657.24" cy="531.17" r="531.17" style="fill:#ef6f0e;isolation:isolate;opacity:0.14399999380111694"/><circle id="Ellipse-2" cx="657.24" cy="531.17" r="312.45" style="fill:#ef6f0e;isolation:isolate;opacity:0.9950000047683716"/><g id="compass"><g id="compass-2"><path id="Combined-Shape" d="M1012.45,647a98.2,98.2,0,1,1,98.19-98.2A98.19,98.19,0,0,1,1012.45,647Zm0-17.85a80.35,80.35,0,1,0-80.35-80.35A80.34,80.34,0,0,0,1012.45,629.18ZM987.68,517.93l62.49-17.85a8.92,8.92,0,0,1,11,11l-17.85,62.49a8.91,8.91,0,0,1-6.14,6.13l-62.49,17.86a8.93,8.93,0,0,1-11-11l17.85-62.5A9,9,0,0,1,987.68,517.93ZM985.27,576l42.27-12.08,12.08-42.27-42.27,12.08Zm27.18-18.25a8.93,8.93,0,1,1,8.92-8.93A8.93,8.93,0,0,1,1012.45,557.76Z" transform="translate(-355.21 -17.67)" style="fill:#ef6f0e"/></g></g><g id="Group_4336" data-name="Group 4336"><circle id="Ellipse-6" cx="662.28" cy="517.18" r="339.48" style="fill:#e95815;isolation:isolate;opacity:0.9950000047683716"/><g id="compass-3"><g id="compass-4"><path id="Combined-Shape-2" d="M1017.49,641.54a106.68,106.68,0,1,1,106.68-106.68h0A106.68,106.68,0,0,1,1017.49,641.54Zm0-19.4a87.3,87.3,0,1,0-87.3-87.29h0a87.29,87.29,0,0,0,87.29,87.29Zm-26.9-120.87,67.89-19.4a9.69,9.69,0,0,1,12,12l-19.4,67.89a9.71,9.71,0,0,1-6.66,6.67l-67.9,19.42a9.7,9.7,0,0,1-12-12l19.4-67.91a9.7,9.7,0,0,1,6.66-6.67ZM988,564.37l45.93-13.13L1047,505.32l-45.92,13.12Zm29.52-19.83a9.7,9.7,0,1,1,9.7-9.7h0A9.7,9.7,0,0,1,1017.49,544.54Z" transform="translate(-355.21 -17.67)" style="fill:#e95815"/></g></g><path id="Path_1119-2" data-name="Path 1119-2" d="M776.09,248.76H914.72V885.2H776.09Z" transform="translate(-355.21 -17.67)" style="fill:#f89973"/><path id="Path_1120-2" data-name="Path 1120-2" d="M597.38,421.33H736V885.2H597.38Z" transform="translate(-355.21 -17.67)" style="fill:#f89973"/><path id="Path_1121-2" data-name="Path 1121-2" d="M674.91,344.36H813.56V885.18H674.91Z" transform="translate(-355.21 -17.67)" style="fill:#f89973"/><path id="Path_1122-2" data-name="Path 1122-2" d="M861.9,421.33h138.64V885.2H861.9Z" transform="translate(-355.21 -17.67)" style="fill:#f89973"/><path id="Path_1123-2" data-name="Path 1123-2" d="M1240.29,421.33H1432V885.2H1240.29Z" transform="translate(-355.21 -17.67)" style="fill:#f89973"/><path id="Path_1124-2" data-name="Path 1124-2" d="M1446.81,421.33h191.71V885.2H1446.81Z" transform="translate(-355.21 -17.67)" style="fill:#f89973"/><path id="Path_1125-2" data-name="Path 1125-2" d="M1095.45,344.36h162.72V885.18H1095.45Z" transform="translate(-355.21 -17.67)" style="fill:#f89973"/><path id="Path_1126-2" data-name="Path 1126-2" d="M977.94,248.76l138.65,52.33V885.2H977.94Z" transform="translate(-355.21 -17.67)" style="fill:#f89973"/><path id="Path_1127-2" data-name="Path 1127-2" d="M1404,248.76l138.64,52.33V885.2H1404Z" transform="translate(-355.21 -17.67)" style="fill:#f89973"/><path id="Path_1128-2" data-name="Path 1128-2" d="M406.61,315.48H600.26V885.2H406.61Z" transform="translate(-355.21 -17.67)" style="fill:#f89973"/><path id="Path_1129-2" data-name="Path 1129-2" d="M438.49,275.7H568.38v92.74H438.49Z" transform="translate(-355.21 -17.67)" style="fill:#f89973"/><path id="Path_1130-2" data-name="Path 1130-2" d="M469.33,211h68.19v82.35H469.33Z" transform="translate(-355.21 -17.67)" style="fill:#f89973"/><path id="Path_1131-2" data-name="Path 1131-2" d="M497.44,134.49h12v91.95h-12Z" transform="translate(-355.21 -17.67)" style="fill:#f89973"/><path id="Path_1132-2" data-name="Path 1132-2" d="M597.38,461.66h19.25v39.73H597.38Z" transform="translate(-355.21 -17.67)" style="fill:#fff"/><path id="Path_1133-2" data-name="Path 1133-2" d="M1022.17,304.56h19.24v39.73h-19.24Z" transform="translate(-355.21 -17.67)" style="fill:#fff"/><path id="Path_1134-2" data-name="Path 1134-2" d="M1372.49,446.75h19.24v39.72h-19.24Z" transform="translate(-355.21 -17.67)" style="fill:#fff"/><path id="Path_1135-2" data-name="Path 1135-2" d="M1100.39,437.42h19.24v39.73h-19.24Z" transform="translate(-355.21 -17.67)" style="fill:#fff"/><path id="Path_1136-2" data-name="Path 1136-2" d="M1453.56,325.77h19.24v39.72h-19.24Z" transform="translate(-355.21 -17.67)" style="fill:#fff"/><path id="Path_1137-2" data-name="Path 1137-2" d="M1570,461.66h19.25v39.73H1570Z" transform="translate(-355.21 -17.67)" style="fill:#fff"/><path id="Path_1138-2" data-name="Path 1138-2" d="M493.81,226.44h19.24v39.72H493.81Z" transform="translate(-355.21 -17.67)" style="fill:#fff"/><path id="Path_1139-2" data-name="Path 1139-2" d="M480.44,410.79h19.25v39.73H480.44Z" transform="translate(-355.21 -17.67)" style="fill:#fff"/><path id="Path_1140-2" data-name="Path 1140-2" d="M805.9,344.36h19.24v39.73H805.9Z" transform="translate(-355.21 -17.67)" style="fill:#fff"/><path id="Path_1141-2" data-name="Path 1141-2" d="M1663.12,894.93c0-38.13-292.77-69-653.92-69s-653.91,30.9-653.91,69,292.76,69,653.91,69,653.92-30.9,653.92-69Z" transform="translate(-355.21 -17.67)" style="fill:#f89973"/><path id="Path_1142-2" data-name="Path 1142-2" d="M383.14,852.14l13.2,6.33a41.43,41.43,0,0,0,17.91,4.07H1492.33a112.57,112.57,0,0,0,27.41-3.39l103.19-25.92a37.11,37.11,0,0,0,27.2-43.93h0s3.3-79.08-25.26-121.92c0,0,6.22-35.52-11.35-46.5,0,0,1.83-32.22-5.49-34.78s-92.27-9.16-112.77-14.28-189.7-81.29-276.09-84.22-264.36-11-347.83,20.51-203.2,101-203.2,101S431.23,634.07,392.4,697A292.52,292.52,0,0,0,355.89,799.7,49.12,49.12,0,0,0,383.14,852.14Z" transform="translate(-355.21 -17.67)" style="fill:#e95815"/><path id="Path_1143-2" data-name="Path 1143-2" d="M711,634.43S846.07,532.28,949.32,520.19s312-24.17,432.79,46.15c0,0-43.94,35.7-54.37,37.33s-490.83,33.32-523,34.06-93.74-3.3-93.74-3.3Z" transform="translate(-355.21 -17.67)" style="fill:#0c111b"/><path id="Path_1144-2" data-name="Path 1144-2" d="M871.33,508.11l15.38,7.32s-194.05,104.73-205.77,104a12.53,12.53,0,0,1-12.82-10.26s139.51-79.82,203.21-101.06Z" transform="translate(-355.21 -17.67)" style="fill:#fff"/><path id="Path_1145-2" data-name="Path 1145-2" d="M382.89,731.46s11.72-32.22,35.89-42.47,68.83-12.46,68.83-6.6-35.15,27.83-35.15,35.16a28.64,28.64,0,0,0,4.39,13.91Z" transform="translate(-355.21 -17.67)" style="fill:#fff"/><path id="Path_1146-2" data-name="Path 1146-2" d="M388.38,817.69s3.84,17.58,9.7,17.58,18.67-37.53,17.21-42.11-32.77-1.64-33.5-.73A242.2,242.2,0,0,0,388.38,817.69Z" transform="translate(-355.21 -17.67)" style="fill:#0c111b"/><path id="Path_1147-2" data-name="Path 1147-2" d="M1046.53,521.27l-16.29,98.13s-238.55,16.11-246.79,13.91-9.33-28,0-36.24,97.76-50.53,148.29-61A1025.93,1025.93,0,0,1,1046.53,521.27Z" transform="translate(-355.21 -17.67)" style="fill:#fff"/><path id="Path_1148-2" data-name="Path 1148-2" d="M753.43,609.54s27.7-15.69,33.63-15,16.17,22,9.21,34L760,631.48s-6.25-6.59-6.59-22Z" transform="translate(-355.21 -17.67)" style="fill:#e95815"/><path id="Path_1149-2" data-name="Path 1149-2" d="M1077.27,615.22l6-93.94s133.65,2.2,182,13.19l41,65.9-225.52,14.82Z" transform="translate(-355.21 -17.67)" style="fill:#fff"/><path id="Path_1150-2" data-name="Path 1150-2" d="M1301.52,552.44,1328,587.18a4.11,4.11,0,0,0,5.76.81h0l0,0,22.32-17.37a4.11,4.11,0,0,0,.73-5.76,4,4,0,0,0-1.88-1.36l-48.74-17.37a4.11,4.11,0,0,0-4.65,6.36Z" transform="translate(-355.21 -17.67)" style="fill:#fff"/><path id="Path_1151-2" data-name="Path 1151-2" d="M1210.92,836.87H755.25a31.36,31.36,0,0,1-31-26,500.1,500.1,0,0,1-8.15-88.22,331.29,331.29,0,0,1,13.22-91.38l1.28.45a330.05,330.05,0,0,0-13.14,91,497.18,497.18,0,0,0,8.14,88,30,30,0,0,0,29.6,24.85h455.68a30,30,0,0,0,24.89-13.21l105.71-156.07a29.08,29.08,0,0,0,.28-32.29L1319.68,600l1.15-.76,22.11,33.93a30.44,30.44,0,0,1-.29,33.79L1237,823.06A31.43,31.43,0,0,1,1210.92,836.87Z" transform="translate(-355.21 -17.67)" style="fill:#0c111b"/><path id="Path_1152-2" data-name="Path 1152-2" d="M1054.12,836.32c-19.59-76.51-.21-222,0-223.43l1.34.19c-.19,1.45-19.53,146.65,0,222.9Z" transform="translate(-355.21 -17.67)" style="fill:#0c111b"/><path id="Path_1153-2" data-name="Path 1153-2" d="M1010.84,683a18.87,18.87,0,1,0-21.34,16,20,20,0,0,0,2.68.18A17.57,17.57,0,0,0,1010.84,683Z" transform="translate(-355.21 -17.67)" style="fill:#d5211a"/><path id="Path_1154-2" data-name="Path 1154-2" d="M1025.23,676.72H958a.45.45,0,0,0-.44.45h0v10.11a.44.44,0,0,0,.44.44h67.24a.45.45,0,0,0,.45-.44h0V677.17a.45.45,0,0,0-.45-.45Z" transform="translate(-355.21 -17.67)" style="fill:#e95815"/><path id="Path_1155-2" data-name="Path 1155-2" d="M1294.79,671.27a18.87,18.87,0,1,0-21.34,16,19.86,19.86,0,0,0,2.67.19A17.59,17.59,0,0,0,1294.79,671.27Z" transform="translate(-355.21 -17.67)" style="fill:#d5211a"/><path id="Path_1156-2" data-name="Path 1156-2" d="M1309.18,665h-67.24a.45.45,0,0,0-.45.42v10.13a.45.45,0,0,0,.45.44h67.24a.45.45,0,0,0,.45-.44V665.4a.45.45,0,0,0-.45-.45Z" transform="translate(-355.21 -17.67)" style="fill:#e95815"/><path id="Path_1157-2" data-name="Path 1157-2" d="M1613.52,620.89h-73.23c-14.83,0-35.71,2.56-22,11.35s57.67,24.73,56.57,30.2-3.3,13.5-3.3,13.5,46.14,1.34,53.28-8.56c0,0,6.69-34-11.35-46.5Z" transform="translate(-355.21 -17.67)" style="fill:#fff"/><path id="Path_1158-2" data-name="Path 1158-2" d="M1489,811.29a106.55,106.55,0,1,0-106.55,106.55h0A106.55,106.55,0,0,0,1489,811.29Z" transform="translate(-355.21 -17.67)" style="fill:#0c111b"/><path id="Path_1159-2" data-name="Path 1159-2" d="M1382.47,738.36a73.08,73.08,0,1,0,73.09,73.08h0a73.16,73.16,0,0,0-73.09-73.08Zm0,153.79a80.72,80.72,0,1,1,80.71-80.71,80.72,80.72,0,0,1-80.71,80.71Z" transform="translate(-355.21 -17.67)" style="fill:#950d19"/><path id="Path_1160-2" data-name="Path 1160-2" d="M1407.74,811.43a25.27,25.27,0,1,0-25.27,25.26h0A25.27,25.27,0,0,0,1407.74,811.43Z" transform="translate(-355.21 -17.67)" style="fill:#950d19"/><path id="Path_1161-2" data-name="Path 1161-2" d="M1386.5,792.19l8.79-54.9h-25.62l9.09,54.9Z" transform="translate(-355.21 -17.67)" style="fill:#950d19"/><path id="Path_1162-2" data-name="Path 1162-2" d="M1401.13,800.75,1443.77,765l-19.36-16.79-29.1,47.44,5.85,5.07Z" transform="translate(-355.21 -17.67)" style="fill:#950d19"/><path id="Path_1163-2" data-name="Path 1163-2" d="M1404.59,819.34l55.4,4.88-1.81-25.56-54.15,13,.55,7.71Z" transform="translate(-355.21 -17.67)" style="fill:#950d19"/><path id="Path_1164-2" data-name="Path 1164-2" d="M1363.81,800.75,1321.18,765l19.36-16.79,29.1,47.44-5.85,5.07Z" transform="translate(-355.21 -17.67)" style="fill:#950d19"/><path id="Path_1165-2" data-name="Path 1165-2" d="M1386.5,832.77l8.79,54.93h-25.62l9.09-54.93Z" transform="translate(-355.21 -17.67)" style="fill:#950d19"/><path id="Path_1166-2" data-name="Path 1166-2" d="M1401.13,824l42.64,35.71-19.36,17-29.1-47.45,5.85-5.22Z" transform="translate(-355.21 -17.67)" style="fill:#950d19"/><path id="Path_1167-2" data-name="Path 1167-2" d="M1363.81,824.22l-42.63,35.71,19.36,16.8,29.1-47.45-5.85-5.07Z" transform="translate(-355.21 -17.67)" style="fill:#950d19"/><path id="Path_1168-2" data-name="Path 1168-2" d="M1360.36,819.34l-55.4,4.88,1.81-25.56,54.15,13-.55,7.71Z" transform="translate(-355.21 -17.67)" style="fill:#950d19"/><path id="Path_1169-2" data-name="Path 1169-2" d="M700.7,811.29A106.55,106.55,0,1,0,594.15,917.84h0A106.56,106.56,0,0,0,700.7,811.29Z" transform="translate(-355.21 -17.67)" style="fill:#0c111b"/><path id="Path_1170-2" data-name="Path 1170-2" d="M594.17,738.36a73.08,73.08,0,1,0,73.07,73.09h0a73.16,73.16,0,0,0-73.07-73.08Zm0,153.79a80.72,80.72,0,1,1,80.7-80.72h0A80.8,80.8,0,0,1,594.17,892.15Z" transform="translate(-355.21 -17.67)" style="fill:#7b0c15"/><path id="Path_1171-2" data-name="Path 1171-2" d="M619.42,811.44a25.26,25.26,0,1,0-25.26,25.25h0a25.24,25.24,0,0,0,25.26-25.24Z" transform="translate(-355.21 -17.67)" style="fill:#7b0c15"/><path id="Path_1172-2" data-name="Path 1172-2" d="M598.19,792.19l8.78-54.9H581.36l9.11,54.9Z" transform="translate(-355.21 -17.67)" style="fill:#7b0c15"/><path id="Path_1173-2" data-name="Path 1173-2" d="M612.82,800.75,655.45,765l-19.36-16.79L607,795.67l5.84,5.07Z" transform="translate(-355.21 -17.67)" style="fill:#7b0c15"/><path id="Path_1174-2" data-name="Path 1174-2" d="M616.27,819.34l55.41,4.88-1.81-25.56L615.72,811.6Z" transform="translate(-355.21 -17.67)" style="fill:#7b0c15"/><path id="Path_1175-2" data-name="Path 1175-2" d="M575.5,800.75,532.89,765l19.36-16.8,29.09,47.46-5.84,5.06Z" transform="translate(-355.21 -17.67)" style="fill:#7b0c15"/><path id="Path_1176-2" data-name="Path 1176-2" d="M598.19,832.77,607,887.7H581.36l9.09-54.93Z" transform="translate(-355.21 -17.67)" style="fill:#7b0c15"/><path id="Path_1177-2" data-name="Path 1177-2" d="M612.82,824l42.63,35.71-19.36,17L607,829.3l5.84-5.23Z" transform="translate(-355.21 -17.67)" style="fill:#7b0c15"/><path id="Path_1178-2" data-name="Path 1178-2" d="M575.5,824.22l-42.61,35.71,19.36,16.8,29.09-47.45-5.84-5.07Z" transform="translate(-355.21 -17.67)" style="fill:#7b0c15"/><path id="Path_1179-2" data-name="Path 1179-2" d="M572.05,819.34l-55.41,4.88,1.82-25.56,54.14,13-.54,7.71Z" transform="translate(-355.21 -17.67)" style="fill:#7b0c15"/><path id="Path_1180-2" data-name="Path 1180-2" d="M1076.3,631.91a140.22,140.22,0,0,1,7,17.55c1.11,5,5.9,9,3.4,10.61s-8.28-6.41-8.28-6.41-2.63,10.09-3,13.32-2.4,8.83-4.78,8.77.32-15.44.32-15.44-3.53,12.73-5.75,13.14-.08-16.44-.08-16.44a86.6,86.6,0,0,1-4.3,14.62c-1.18.87-2.33-.61-2.42-5.75a49.12,49.12,0,0,1,1.17-10.4q-1.58,5.34-3.66,10.51c-.75,1-2.52,1.89-1.84-5.73a79.08,79.08,0,0,1,10.24-31.14l12,2.8Z" transform="translate(-355.21 -17.67)" style="fill:#f68d57"/><path id="Path_1181-2" data-name="Path 1181-2" d="M1221.68,262.4a140.15,140.15,0,0,1-8.44-16.9c-1.54-4.89-6.65-8.48-4.28-10.26s8.81,5.69,8.81,5.69,1.75-10.27,1.81-13.52,1.65-9,4-9.15,1,15.4,1,15.4,2.42-13,4.6-13.58,1.48,16.37,1.48,16.37a87.27,87.27,0,0,1,3-14.93c1.1-1,2.39.41,2.9,5.52a48.24,48.24,0,0,1-.27,10.47s2.1-9.7,2.75-10.8,2.35-2.07,2.31,5.58a79,79,0,0,1-7.55,31.89l-12.19-1.76Z" transform="translate(-355.21 -17.67)" style="fill:#f68d57"/><path id="Path_1182-2" data-name="Path 1182-2" d="M1133.59,881.27s-1,29.91-1.27,30.31,2,4.28,2,4.28l9.33,2.13,8.79-3.53s.58-27.81,1.69-32.14-20.53-1-20.53-1Z" transform="translate(-355.21 -17.67)" style="fill:#fff"/><path id="Path_1183-2" data-name="Path 1183-2" d="M1152.43,914.43a24.54,24.54,0,0,1-20-3.46s-36.82,11.82-36.21,22.18c0,0-1.69,3,14,3.09s40.1.56,40.77.24,3.65,1.46,1.45-22Z" transform="translate(-355.21 -17.67)" style="fill:#de3848"/><path id="Path_1184-2" data-name="Path 1184-2" d="M1262.46,881.27s1,29.91,1.26,30.31-2,4.28-2,4.28L1252.4,918l-8.78-3.53s-.59-27.81-1.7-32.14,20.53-1,20.53-1Z" transform="translate(-355.21 -17.67)" style="fill:#fff"/><path id="Path_1185-2" data-name="Path 1185-2" d="M1243.62,914.43a24.53,24.53,0,0,0,20-3.46s36.82,11.82,36.22,22.18c0,0,1.68,3-14,3.09s-40.09.56-40.74.24-3.66,1.46-1.45-22Z" transform="translate(-355.21 -17.67)" style="fill:#de3848"/><path id="Path_1186-2" data-name="Path 1186-2" d="M1167.41,391.31l-37.59,21.95L1124.66,439l29.1,142.61,63.46-9.7-24.39-144.69-25.44-35.9Z" transform="translate(-355.21 -17.67)" style="fill:#fff"/><path id="Path_1187-2" data-name="Path 1187-2" d="M1241.84,559.45s20.82,69.88,29.05,330l-36.8,7.88S1191,668.61,1187.86,665.74s-26.23,231.62-26.23,231.62h-39.86L1119.67,580l122.16-20.59Z" transform="translate(-355.21 -17.67)" style="fill:#0c111b"/><path id="Path_1188-2" data-name="Path 1188-2" d="M1167.41,391.31s41.42,126.84,46.67,222.82l47.2-3.52s-25.17-105.75-25.17-127.42,14.68-126.22,14.68-150.87-12.58-75.88-12.58-75.88l-23.86,5.76S1230.17,354.68,1167.41,391.31Z" transform="translate(-355.21 -17.67)" style="fill:#002b3b"/><path id="Path_1189-2" data-name="Path 1189-2" d="M1129.82,413.26s28,120,29.37,141.46,8.25,64.95,8.25,64.95L1118,622.53l-4.91-84.75s-15.39,32.3-18.88,46.2-9.79,52.38-9.79,52.38h-28s-4.19-86,10.49-130.78,20.09-67,62.94-92.31Z" transform="translate(-355.21 -17.67)" style="fill:#002b3b"/><path id="Path_1190-2" data-name="Path 1190-2" d="M1159,347.64s.87-4.36,3.25-3.72c6.06,1.69,3.35,8.17.71,10.45Z" transform="translate(-355.21 -17.67)" style="fill:#eb693f"/><path id="Path_1191-2" data-name="Path 1191-2" d="M1154.78,334.52h0c-.14-.37-.27-.73-.42-1.1a30.35,30.35,0,1,0-49,33.5,194.72,194.72,0,0,0,14.24,13.84,43.33,43.33,0,0,1,14.16,23.59l1.63,7.21c21,2.1,25.39-9.69,25.39-9.69l-4.77-12.5a3.35,3.35,0,0,1,1.69-4.23h0c20.82-10.19,1.06-41-2.91-50.65Z" transform="translate(-355.21 -17.67)" style="fill:#f68d57"/><path id="Path_1192-2" data-name="Path 1192-2" d="M1153.31,347a2.21,2.21,0,1,0-1.2,2.88h0A2.23,2.23,0,0,0,1153.31,347Z" transform="translate(-355.21 -17.67)" style="fill:#0c111b"/><path id="Path_1193-2" data-name="Path 1193-2" d="M1131,362.17a2.21,2.21,0,1,0-1.21,2.88h0A2.25,2.25,0,0,0,1131,362.17Z" transform="translate(-355.21 -17.67)" style="fill:#0c111b"/><path id="Path_1194-2" data-name="Path 1194-2" d="M1120.88,360.93a1.66,1.66,0,0,1-2.16-.91h0a1.71,1.71,0,0,1-.1-.87,8.87,8.87,0,0,1,10.11-7.21,1.65,1.65,0,1,1-.25,3.3h0a5.57,5.57,0,0,0-6.57,4.36h0v.05a1.66,1.66,0,0,1-1,1.29Z" transform="translate(-355.21 -17.67)" style="fill:#0c111b"/><path id="Path_1195-2" data-name="Path 1195-2" d="M1143.71,346.78a1.73,1.73,0,0,1-.9.1,1.67,1.67,0,0,1-1.39-1.89,8.86,8.86,0,0,1,10.12-7.21,1.65,1.65,0,0,1-.19,3.3h0a5.6,5.6,0,0,0-6.59,4.37h0v0A1.64,1.64,0,0,1,1143.71,346.78Z" transform="translate(-355.21 -17.67)" style="fill:#0c111b"/><path id="Path_1196-2" data-name="Path 1196-2" d="M1096.82,359.85l15.07,15.52,4.69-3.13-7-25.76-12.76,13.39Z" transform="translate(-355.21 -17.67)" style="fill:#0c111b"/><path id="Path_1197-2" data-name="Path 1197-2" d="M1117.12,371.32a4.58,4.58,0,0,0-3-1.09,7.59,7.59,0,0,0-7.4,3.88c-2,4.85,8.66,11.16,13.64,3.79,0,0,1.15-2.76-3.23-6.59Z" transform="translate(-355.21 -17.67)" style="fill:#f68d57"/><path id="Path_1198-2" data-name="Path 1198-2" d="M1149.23,365.11a5.64,5.64,0,0,1-4.85,1.81.49.49,0,0,1-.4-.56h0a.49.49,0,0,1,.56-.4h0a4.6,4.6,0,0,0,4.77-2.82,1.7,1.7,0,0,0,.26-1.14c-.11-.32-.65-.57-1.4-.92a14.45,14.45,0,0,1-7.19-6.69.48.48,0,0,1,.17-.66h0a.5.5,0,0,1,.67.18,13.49,13.49,0,0,0,6.74,6.31c.93.44,1.66.76,1.92,1.45a2.37,2.37,0,0,1-.3,1.89,6.69,6.69,0,0,1-1,1.56Z" transform="translate(-355.21 -17.67)" style="fill:#eb693f"/><path id="Path_1199-2" data-name="Path 1199-2" d="M1140.64,374.2a42.06,42.06,0,0,0,16.66-9s1.69,8.89-4.23,12.08S1140.64,374.2,1140.64,374.2Z" transform="translate(-355.21 -17.67)" style="fill:#fff"/><path id="Path_1200-2" data-name="Path 1200-2" d="M1093.62,359a13.69,13.69,0,0,1-3.52-5.4,49.12,49.12,0,0,1-3.2-25.84,13.58,13.58,0,0,1,3.19-7.83,1.87,1.87,0,0,1,1-.62c1-.12,1.58,1.08,1.83,2.05l1.79,6.8a81.14,81.14,0,0,1,8.1-13.59,27,27,0,0,1,12.54-9.33,4.15,4.15,0,0,1,4.2.37c1.43,1.4.49,3.8-.54,5.54,10.18-2.68,21.1-5.36,31.1-2,1.39.45,3,1.34,3,2.81s-1.43,2.3-2.77,2.61a11.27,11.27,0,0,0-3.88,1.14,41.09,41.09,0,0,0,5.22,1.42,4.59,4.59,0,0,1,3.55,3.64c.12,2.72-3.24,4.05-5.92,4.56l-22.49,4.31c1.07,1.53,3,2.19,4.47,3.36s2.39,3.57,1,4.81a4,4,0,0,1-2.23.7l-16.79,1.94a6.33,6.33,0,0,1,3,6.4,10.19,10.19,0,0,1-3.19,5.28c-3.82,3.81-14.24,11.21-19.44,6.87Z" transform="translate(-355.21 -17.67)" style="fill:#0c111b"/><path id="Path_1201-2" data-name="Path 1201-2" d="M1145.79,325.51s5.19,1.18,13.18,17.81c0,0-6.43-19.56-9.4-20.78S1145.79,325.51,1145.79,325.51Z" transform="translate(-355.21 -17.67)" style="fill:#0c111b"/><path id="Path_1202-2" data-name="Path 1202-2" d="M1159,408.89v10.38l-5.42,2.53-7.85-5.25,4.91-7.68Z" transform="translate(-355.21 -17.67)" style="fill:#5d9573"/><path id="Path_1203-2" data-name="Path 1203-2" d="M1132.2,411.86l1.53-7.46,16.72,3.73,7.09-14.59,3.28,1.63,1.87,14.94-11.27-.25-5.69,9-13.52-7Z" transform="translate(-355.21 -17.67)" style="fill:#fff"/><path id="Path_1204-2" data-name="Path 1204-2" d="M1159,419.3l40.74,121.45-9.79,33-25.52-24.48-11.19-129.19,5.77-.79Z" transform="translate(-355.21 -17.67)" style="fill:#5d9573"/><path id="Path_1205-2" data-name="Path 1205-2" d="M1237.62,233.81a1.33,1.33,0,0,1,.06,1.89l0,0-7.07,7.52a1.34,1.34,0,0,1-1.9.07h0l-1.11-1a1.35,1.35,0,0,1-.07-1.9h0l7.09-7.54a1.32,1.32,0,0,1,1.89-.07h0l1.1,1ZM1212,212.44l-6,6.4a7,7,0,0,0,.31,9.93h0l17.86,16.79a5,5,0,0,0,7.08-.22L1240,236a5,5,0,0,0-.22-7.09l-17.86-16.79a7,7,0,0,0-9.93.31h0Z" transform="translate(-355.21 -17.67)" style="fill:#0c111b"/><path id="Path_1206-2" data-name="Path 1206-2" d="M1216.9,213.05l-10.58,11.27a.24.24,0,0,0,0,.33l6.35,6a.25.25,0,0,0,.34,0l10.56-11.24a.24.24,0,0,0,0-.33l-6.35-6a.23.23,0,0,0-.32,0h0Z" transform="translate(-355.21 -17.67)" style="fill:#0c111b"/><path id="Path_1207-2" data-name="Path 1207-2" d="M1224.06,220l-10.37,11a.39.39,0,0,0,0,.55l6.42,6a.37.37,0,0,0,.52,0v0l10.37-11a.38.38,0,0,0,0-.54l-6.42-6a.38.38,0,0,0-.53,0h0Z" transform="translate(-355.21 -17.67)" style="fill:#0c111b"/><path id="Path_1208-2" data-name="Path 1208-2" d="M1216.27,219.42l-3.64,3.88,3.16,3a.22.22,0,0,0,.3,0l3.35-3.57a.22.22,0,0,0,0-.3l-3.16-3Z" transform="translate(-355.21 -17.67)" style="fill:#fff"/><path id="Path_1209-2" data-name="Path 1209-2" d="M1213.53,222.84l-.34.35-.9-.84a1.76,1.76,0,0,1-.16-2.47l.71-.76a1.76,1.76,0,0,1,2.48,0l-.34.36a1.26,1.26,0,0,0-1.78,0h0l-.7.75a1.26,1.26,0,0,0,.12,1.78h0l.9.85Z" transform="translate(-355.21 -17.67)" style="fill:#fff"/><path id="Path_1210-2" data-name="Path 1210-2" d="M1216,222.17a.42.42,0,0,0-.59,0h0a.44.44,0,0,0,0,.59.41.41,0,0,0,.59-.07A.42.42,0,0,0,1216,222.17Z" transform="translate(-355.21 -17.67)" style="fill:#0c111b"/><path id="Path_1211-2" data-name="Path 1211-2" d="M1215.82,222.46l1.15.67-.57.62-.79-1.07.21-.21Z" transform="translate(-355.21 -17.67)" style="fill:#0c111b"/><path id="Path_1212-2" data-name="Path 1212-2" d="M1223.35,226.47l-3.45,3.69a.16.16,0,0,0,0,.24h0l3.1,2.91a.19.19,0,0,0,.26,0h0l3.43-3.66a.18.18,0,0,0,0-.25h0l-3.09-2.92a.21.21,0,0,0-.26,0Z" transform="translate(-355.21 -17.67)" style="fill:#fff"/><path id="Path_1213-2" data-name="Path 1213-2" d="M1223.23,227.08l-.35.36-.91-.87a1.24,1.24,0,0,0-1.75-.08l-.68.72a1.25,1.25,0,0,0,.2,1.74l.93.86-.34.36-.93-.87a1.76,1.76,0,0,1-.22-2.43l.68-.72a1.73,1.73,0,0,1,2.45.07l.9.86Z" transform="translate(-355.21 -17.67)" style="fill:#fff"/><path id="Path_1214-2" data-name="Path 1214-2" d="M1223.14,229.15a.45.45,0,0,0-.61,0,.46.46,0,0,0,0,.6h0a.43.43,0,0,0,.6,0h0A.44.44,0,0,0,1223.14,229.15Z" transform="translate(-355.21 -17.67)" style="fill:#0c111b"/><path id="Path_1215-2" data-name="Path 1215-2" d="M1223,229.44l1.18.67-.59.62-.79-1.08.2-.22Z" transform="translate(-355.21 -17.67)" style="fill:#0c111b"/><path id="Path_1216-2" data-name="Path 1216-2" d="M1248.05,238.3l11.92-.4,0-1.34-1.71.05-.89.71v-.67l-1.34,0-.53.68-.92,0,0-.67-7.36.25.92,1.31Z" transform="translate(-355.21 -17.67)" style="fill:#4372b8"/><path id="Path_1217-2" data-name="Path 1217-2" d="M1240,245.24l2.61,9.7,1.09-.29-.38-1.4-.75-.58.55-.15-.3-1.1-.67-.3-.2-.75.55-.15-1.61-6-.89,1Z" transform="translate(-355.21 -17.67)" style="fill:#4372b8"/><path id="Path_1218-2" data-name="Path 1218-2" d="M1243.82,240.18a3,3,0,0,1-1.85-2.56c-.06-1.88,2.06-2.81,2.06-2.81l-.21,5.35Zm3.69-6.56-2.5.08a3.8,3.8,0,0,0-3.66,3.88v.31a3.77,3.77,0,0,0,3.88,3.65l2.5-.08a1.58,1.58,0,0,0,1.53-1.63l-.15-4.71a1.58,1.58,0,0,0-1.63-1.52h0Z" transform="translate(-355.21 -17.67)" style="fill:#0c111b"/><path id="Path_1219-2" data-name="Path 1219-2" d="M1236.19,233.87a3.79,3.79,0,1,0,5.36-.14h0A3.8,3.8,0,0,0,1236.19,233.87Zm6.06,5.69a4.52,4.52,0,1,1-.21-6.39h0A4.53,4.53,0,0,1,1242.25,239.56Z" transform="translate(-355.21 -17.67)" style="fill:#4372b8"/><path id="Path_1220-2" data-name="Path 1220-2" d="M1242.11,238.45a2.8,2.8,0,0,0,.58,1c.34.3-.52.72-.52.72a3.52,3.52,0,0,1-.65-1.26c-.13-.64.59-.43.59-.43Z" transform="translate(-355.21 -17.67)" style="fill:#0c111b"/><path id="Path_1221-2" data-name="Path 1221-2" d="M1236.13,237.36l-2.18,2.32,1.37,1.3,2.18-2.33Z" transform="translate(-355.21 -17.67)" style="fill:#0c111b"/><path id="Path_1222-2" data-name="Path 1222-2" d="M1239.2,239.64a3.16,3.16,0,0,0-1.09.53,2.63,2.63,0,0,0,.39.06h0a1.14,1.14,0,0,1,1.66,1.56,1.13,1.13,0,0,1-1.6.05h0a1.11,1.11,0,0,1-.35-.89,5.75,5.75,0,0,1-.71-.2,3.24,3.24,0,0,0-.64,2.93l.49,1.88a1.39,1.39,0,0,0,1.7,1l3.72-1a1.37,1.37,0,0,0,1-1.68v0h0l-.48-1.85a3.3,3.3,0,0,0-4-2.34h0Z" transform="translate(-355.21 -17.67)" style="fill:#0c111b"/><path id="Path_1223-2" data-name="Path 1223-2" d="M1223.17,211.78s-2.43,11.34-.9,11.89,5.44-7.81,5.43-7.66-2.61,9.51-.81,11,5.8-8.39,5.8-8.39-3.08,8.61-1.78,9.53,5.14-7,5.7-6.76-3.28,6.8-1.73,8,7.27-7.83,6.34-9.82a2.83,2.83,0,0,0-3.16-1.45s-1.94-3.18-4-3c0,0-4.06-3.11-5.76-1.6,0,0-2.14-3.92-5.15-1.73Z" transform="translate(-355.21 -17.67)" style="fill:#eb693f"/><path id="Path_1224-2" data-name="Path 1224-2" d="M1150.62,538.36a3.43,3.43,0,1,0-3.43,3.43,3.43,3.43,0,0,0,3.43-3.43Z" transform="translate(-355.21 -17.67)" style="fill:#0c111b"/><path id="Path_1225-2" data-name="Path 1225-2" d="M1155.28,571.28a3.43,3.43,0,1,0-3.43,3.43,3.44,3.44,0,0,0,3.43-3.43Z" transform="translate(-355.21 -17.67)" style="fill:#0c111b"/><path id="Path_1226-2" data-name="Path 1226-2" d="M1080.73,615.22a3.44,3.44,0,1,0-3.45,3.42h0a3.43,3.43,0,0,0,3.45-3.41Z" transform="translate(-355.21 -17.67)" style="fill:#0c111b"/><path id="Path_1227-2" data-name="Path 1227-2" d="M1238.05,261.7a3.43,3.43,0,1,0-3.43,3.43A3.42,3.42,0,0,0,1238.05,261.7Z" transform="translate(-355.21 -17.67)" style="fill:#0c111b"/><path id="Path_1228-2" data-name="Path 1228-2" d="M1233.17,114.8a16.07,16.07,0,0,1-6,20.91,23.54,23.54,0,0,1-23.05-.3,45.2,45.2,0,0,0-11.4-5.74c-10.26-2.17-22.85,10.34-32.42,3.09-8.3-6.3-4.37-12,2-16.86,18.91-14.55,50,5,70.93-1.1Z" transform="translate(-355.21 -17.67)" style="fill:#fff"/><path id="Path_1229-2" data-name="Path 1229-2" d="M1367,362a16.08,16.08,0,0,1-6,20.92,23.58,23.58,0,0,1-23.06-.3,45,45,0,0,0-11.39-5.75c-10.26-2.16-22.85,10.34-32.42,3.1-8.3-6.31-4.37-12,1.94-16.87,18.91-14.54,50,5,70.93-1.1Z" transform="translate(-355.21 -17.67)" style="fill:#fff"/><path id="Path_1230-2" data-name="Path 1230-2" d="M1094.44,211.06a62,62,0,0,1-20.37,5.69l-15.67,2.52c-11.75,1.88-24.17,3.74-35.5.62-8.24-2.27-15.21-7-23.63-8.73s-17.28-.29-25.95-.65a23.81,23.81,0,0,1-7.25-1.22,9.81,9.81,0,0,1-6.92-10.5,11.75,11.75,0,0,1,10.74-8.18c7-.6,15.38,3.26,20.24-.8a21.85,21.85,0,0,0,3.48-5.14,21.38,21.38,0,0,1,11.5-7c14.43-4.42,26.46-1.29,40.9.33a154.09,154.09,0,0,0,28.48-1.33c12.39-.82,25,.62,29.38,11.41a19,19,0,0,1-9.41,23Z" transform="translate(-355.21 -17.67)" style="fill:#fff"/><path id="Path_1231-2" data-name="Path 1231-2" d="M1336.94,231.67c-2.53-.89-5-2.14-7.55-2.86a40.06,40.06,0,0,0-10.81-.94l-42.64.23a5.51,5.51,0,0,1-3.86-1,4.39,4.39,0,0,1-1.15-2.87c-.72-8.17,8.09-14.68,16.28-14.45a15.48,15.48,0,0,0,8.2-.71,14.52,14.52,0,0,0,4.21-4.94,26.86,26.86,0,0,1,36.9-6.16c2.5,1.87,4.64,4.2,7.15,6.08,7.54,5.71,17.45,6.89,26.55,9.42,9.53,2.64,18.21,12.94,7,19.61-7.71,4.52-32.32,1.41-40.22-1.41Z" transform="translate(-355.21 -17.67)" style="fill:#fff"/></g></svg>