<svg xmlns="http://www.w3.org/2000/svg" width="14.551" height="23.059" viewBox="0 0 14.551 23.059">
  <path id="Path_2508" data-name="Path 2508" d="M280.718,93.131h13.853a.349.349,0,0,0,.349-.349V88a7.292,7.292,0,0,0-5.28-7,5.671,5.671,0,1,0-4.149.047,7.351,7.351,0,0,0-3.646,2.561A7.2,7.2,0,0,0,280.369,88v4.786A.349.349,0,0,0,280.718,93.131Zm.349-.7V88a6.578,6.578,0,1,1,13.155,0v4.437Zm6.441-11.712a4.975,4.975,0,1,1,4.976-4.976A4.981,4.981,0,0,1,287.508,80.72Z" transform="translate(-280.369 -70.072)" fill="#fff"/>
</svg>
