<svg id="Layer_1" data-name="Layer 1" xmlns="http://www.w3.org/2000/svg" viewBox="0 0 18.8 24.4"><path id="Path_2510" data-name="Path 2510" d="M51.4,263.2H48.9v-2.5a6.6,6.6,0,0,0-6.6-6.4,6.4,6.4,0,0,0-6.3,6.4v2.5H33.6a.5.5,0,0,0-.5.5v14.6a.5.5,0,0,0,.5.4H51.4a.5.5,0,0,0,.5-.4V263.7A.5.5,0,0,0,51.4,263.2Zm-.5,1v13.6H34.1V264.2Zm-3-1h-11v-2.5a5.5,5.5,0,0,1,5.6-5.4,5.4,5.4,0,0,1,5.4,5.4Z" transform="translate(-33.1 -254.3)" style="fill:#f8f9fa"/><path id="Path_2511" data-name="Path 2511" d="M42.4,273.1a.5.5,0,0,0,.4-.5v-4.4a.5.5,0,0,0-.4-.5.5.5,0,0,0-.5.5v4.4A.5.5,0,0,0,42.4,273.1Z" transform="translate(-33.1 -254.3)" style="fill:#f8f9fa"/></svg>