<svg id="Group_4353" data-name="Group 4353" xmlns="http://www.w3.org/2000/svg" width="20.586" height="20.872" viewBox="0 0 20.586 20.872">
  <path id="Path_2501" data-name="Path 2501" d="M81.267,88.512a2.8,2.8,0,0,0-2.334,1.273L68.981,84.82A2.9,2.9,0,0,0,68.971,83L78.95,77.9a2.8,2.8,0,0,0,2.317,1.249,2.877,2.877,0,1,0-2.813-2.877,2.914,2.914,0,0,0,.151.922L68.626,82.3a2.8,2.8,0,0,0-2.318-1.249,2.877,2.877,0,0,0,0,5.753,2.8,2.8,0,0,0,2.335-1.273l9.952,4.965a2.916,2.916,0,0,0-.141.894,2.814,2.814,0,1,0,2.813-2.877ZM79.226,76.269a2.042,2.042,0,1,1,2.041,2.087A2.067,2.067,0,0,1,79.226,76.269ZM68.35,83.926a2.042,2.042,0,1,1-2.042-2.087A2.067,2.067,0,0,1,68.35,83.926Zm11.082,6.555,0-.006s0,0,0-.006a2.038,2.038,0,0,1,1.83-1.168,2.088,2.088,0,1,1-2.041,2.087A2.108,2.108,0,0,1,79.432,90.481Z" transform="translate(-63.495 -73.393)" fill="#fff"/>
</svg>
