<svg id="Layer_1" data-name="Layer 1" xmlns="http://www.w3.org/2000/svg" viewBox="0 0 23.9 23.9"><path id="Path_2509" data-name="Path 2509" d="M42.5,254.5a12,12,0,1,0,12,12h0A12.2,12.2,0,0,0,42.5,254.5Zm6,18.7a9.6,9.6,0,0,1-5.6,4.3v-6a12.2,12.2,0,0,1,5.6,1.7Zm-5.6-2.4v-3.9h7.5a14.2,14.2,0,0,1-1.5,5.7,11.7,11.7,0,0,0-6-1.8Zm6.2,2.9,1.1.9a11.5,11.5,0,0,1-4.8,2.7,10.6,10.6,0,0,0,3.7-3.6Zm0-14.4a10.6,10.6,0,0,0-3.7-3.6,10.9,10.9,0,0,1,4.8,2.7l-1.1.9Zm1.3,6.8H42.9v-3.9a11.7,11.7,0,0,0,6-1.8,14.2,14.2,0,0,1,1.5,5.7Zm-7.5-4.6v-6a9.5,9.5,0,0,1,5.6,4.2,11.2,11.2,0,0,1-5.6,1.8Zm10.8,5.4a11.1,11.1,0,0,1-3,7.1l-1.2-1a13.2,13.2,0,0,0,1.6-6.1Zm0-.8H51.1a13.2,13.2,0,0,0-1.6-6.1l1.2-1a11.1,11.1,0,0,1,3,7.1Zm-17.2-6.4a9.1,9.1,0,0,1,5.6-4.2v6a11.2,11.2,0,0,1-5.6-1.8Zm5.6,2.5v3.9H34.6a14.2,14.2,0,0,1,1.5-5.7,11.7,11.7,0,0,0,6,1.8Zm-6.2-2.9-1.1-.9a11.1,11.1,0,0,1,4.7-2.7,10.3,10.3,0,0,0-3.6,3.6Zm-4.6,6.8a11.6,11.6,0,0,1,3-7.2,4.3,4.3,0,0,0,1.2,1.1,13.2,13.2,0,0,0-1.6,6.1Zm4.6,7.6a10.6,10.6,0,0,0,3.7,3.6,10.9,10.9,0,0,1-4.8-2.7l1.1-.9Zm-1.3-6.8h7.5v3.9a10.8,10.8,0,0,0-6,1.8,14.2,14.2,0,0,1-1.5-5.7Zm7.5,4.6v6a9.6,9.6,0,0,1-5.6-4.3,12.2,12.2,0,0,1,5.6-1.7ZM34.3,274a11.1,11.1,0,0,1-3-7.1h2.6a13.2,13.2,0,0,0,1.6,6.1l-1.2,1Z" transform="translate(-30.5 -254.5)" style="fill:#fff"/></svg>